{
.appVersion = "915";
DisplayStrings = (
"?\012! &\012\012\012   \012",
"0123456789*/backslash :,!#.?;//_{}[]()/emdash/endash -\U00AB\U00BB/guilsinglleft/guilsinglright/quotedblbase/quotesinglbase/quotedblbase/quotedblright/quotedblleft/quotedblright/quoteleft/quoteright/quotesinglbase +/minus \U00F7=@&| {}\0125+2 = 700\U00F700",
xxyxx,
z
);
date = "2016-05-07 12:34:20 +0000";
designer = "Rafał Buchner";
familyName = Apropal;
featurePrefixes = (
{
automatic = 1;
code = "languagesystem DFLT dflt;\012";
name = Languagesystems;
}
);
features = (
{
automatic = 1;
code = "feature salt;\012feature ss01;\012";
name = aalt;
},
{
automatic = 1;
code = "sub i by i.ss01;\012";
name = salt;
},
{
automatic = 1;
code = "sub i by i.ss01;\012";
name = ss01;
}
);
fontMaster = (
{
ascender = 800;
capHeight = 800;
descender = -200;
guideLines = (
{
angle = 180;
position = "{39, 744}";
},
{
angle = 180;
position = "{274, 778}";
},
{
position = "{403, -10}";
}
);
id = "15808E89-C4EA-4701-A327-0721774450FF";
userData = {
GSCornerRadius = 51;
GSOffsetHorizontal = 27;
GSOffsetMakeStroke = 1;
GSOffsetVertical = 27;
};
verticalStems = (
300
);
weight = Bold;
weightValue = 300;
xHeight = 600;
}
);
glyphs = (
{
glyphname = B;
lastChange = "2016-08-06 13:12:27 +0000";
layers = (
{
associatedMasterId = "15808E89-C4EA-4701-A327-0721774450FF";
background = {
paths = (
{
closed = 1;
nodes = (
"344 337 LINE",
"444.483 337 OFFCURVE",
"499 301 OFFCURVE",
"499 210 CURVE SMOOTH",
"499 101 OFFCURVE",
"430.243 58 OFFCURVE",
"316 71 CURVE",
"316 3 LINE",
"600 -54 OFFCURVE",
"800 44 OFFCURVE",
"800 212 CURVE SMOOTH",
"800 327 OFFCURVE",
"690.601 405 OFFCURVE",
"409.435 405 CURVE SMOOTH",
"344 405 LINE"
);
}
);
};
layerId = "93E8B22F-6B4D-4D28-B341-F422B34F7742";
name = "Bold Jul 22 16, 14:50";
paths = (
{
closed = 1;
nodes = (
"238 696 LINE",
"59 686 LINE",
"53 425 OFFCURVE",
"54 121 OFFCURVE",
"60 0 CURVE",
"360 11 LINE",
"354 131 OFFCURVE",
"353 441 OFFCURVE",
"360 702 CURVE"
);
},
{
closed = 1;
nodes = (
"347 304 LINE",
"450 313 OFFCURVE",
"489 260 OFFCURVE",
"489 182 CURVE SMOOTH",
"489 97 OFFCURVE",
"444 50 OFFCURVE",
"384 50 CURVE SMOOTH",
"371 50 OFFCURVE",
"353 52 OFFCURVE",
"334 56 CURVE",
"60 0 LINE",
"158 -9 OFFCURVE",
"246 -13 OFFCURVE",
"325 -13 CURVE SMOOTH",
"611 -13 OFFCURVE",
"757 68 OFFCURVE",
"757 194.844 CURVE SMOOTH",
"757 341 OFFCURVE",
"561.631 391.087 OFFCURVE",
"346.631 350.087 CURVE"
);
},
{
closed = 1;
nodes = (
"356 662 LINE",
"364 666 OFFCURVE",
"385 670 OFFCURVE",
"402 670 CURVE",
"464 670 OFFCURVE",
"502 619 OFFCURVE",
"502 524 CURVE SMOOTH",
"502 391.069 OFFCURVE",
"428.1 344.726 OFFCURVE",
"312.1 359.252 CURVE",
"316.161 308 LINE",
"465.778 338.935 LINE",
"611.522 332.327 OFFCURVE",
"776.236 403.875 OFFCURVE",
"776 549 CURVE SMOOTH",
"776.236 679.521 OFFCURVE",
"650.912 746 OFFCURVE",
"417.618 746 CURVE",
"298.079 746 OFFCURVE",
"178.539 724 OFFCURVE",
"59 686 CURVE"
);
}
);
width = 816;
},
{
associatedMasterId = "15808E89-C4EA-4701-A327-0721774450FF";
background = {
paths = (
{
closed = 1;
nodes = (
"344 337 LINE",
"444.483 337 OFFCURVE",
"499 301 OFFCURVE",
"499 210 CURVE SMOOTH",
"499 101 OFFCURVE",
"430.243 58 OFFCURVE",
"316 71 CURVE",
"316 3 LINE",
"600 -54 OFFCURVE",
"800 44 OFFCURVE",
"800 212 CURVE SMOOTH",
"800 327 OFFCURVE",
"690.601 405 OFFCURVE",
"409.435 405 CURVE SMOOTH",
"344 405 LINE"
);
}
);
};
layerId = "F4BAEFAA-DBCB-4976-A06A-D5515CED271E";
name = "Bold Jul 22 16, 21:05";
paths = (
{
closed = 1;
nodes = (
"238 696 LINE",
"59 686 LINE",
"53 425 OFFCURVE",
"54 121 OFFCURVE",
"60 0 CURVE",
"360 11 LINE",
"354 131 OFFCURVE",
"353 441 OFFCURVE",
"360 702 CURVE"
);
},
{
closed = 1;
nodes = (
"353 657 LINE",
"432 690 OFFCURVE",
"521 645 OFFCURVE",
"521 554 CURVE SMOOTH",
"521 479 OFFCURVE",
"478 398 OFFCURVE",
"344 374 CURVE",
"344 345 LINE",
"434 349 LINE",
"661 349 OFFCURVE",
"775 440 OFFCURVE",
"774 548 CURVE SMOOTH",
"774 655 OFFCURVE",
"649 746 OFFCURVE",
"397 746 CURVE SMOOTH",
"295 746 OFFCURVE",
"177 724 OFFCURVE",
"59 686 CURVE"
);
},
{
closed = 1;
nodes = (
"352 305 LINE",
"437 322 OFFCURVE",
"520 274 OFFCURVE",
"520 177 CURVE SMOOTH",
"520 81 OFFCURVE",
"441 21 OFFCURVE",
"335 60 CURVE",
"60 0 LINE",
"137 -17 OFFCURVE",
"255 -24 OFFCURVE",
"359 -24 CURVE SMOOTH",
"597 -24 OFFCURVE",
"751 63 OFFCURVE",
"750 197 CURVE SMOOTH",
"750 304 OFFCURVE",
"635 395 OFFCURVE",
"387 365 CURVE",
"335 360 LINE"
);
}
);
width = 816;
},
{
background = {
paths = (
{
closed = 1;
nodes = (
"344 337 LINE",
"444.483 337 OFFCURVE",
"499 301 OFFCURVE",
"499 210 CURVE SMOOTH",
"499 101 OFFCURVE",
"430.243 58 OFFCURVE",
"316 71 CURVE",
"316 3 LINE",
"600 -54 OFFCURVE",
"800 44 OFFCURVE",
"800 212 CURVE SMOOTH",
"800 327 OFFCURVE",
"690.601 405 OFFCURVE",
"409.435 405 CURVE SMOOTH",
"344 405 LINE"
);
}
);
};
layerId = "15808E89-C4EA-4701-A327-0721774450FF";
paths = (
{
closed = 1;
nodes = (
"238 696 LINE",
"59 686 LINE",
"53 425 OFFCURVE",
"54 121 OFFCURVE",
"60 0 CURVE",
"360 11 LINE",
"354 131 OFFCURVE",
"353 441 OFFCURVE",
"360 702 CURVE"
);
},
{
closed = 1;
nodes = (
"349 655 LINE",
"360 657 OFFCURVE",
"370 658 OFFCURVE",
"380 658 CURVE SMOOTH",
"455 658 OFFCURVE",
"491 594 OFFCURVE",
"491 529 CURVE SMOOTH",
"491 468 OFFCURVE",
"458 406 OFFCURVE",
"402 387 CURVE",
"465 368 LINE",
"620 382 OFFCURVE",
"725 451 OFFCURVE",
"725 552 CURVE SMOOTH",
"725 662 OFFCURVE",
"611 746 OFFCURVE",
"383 746 CURVE",
"285 746 OFFCURVE",
"172 724 OFFCURVE",
"59 686 CURVE"
);
},
{
closed = 1;
nodes = (
"344 334 LINE",
"444 342 OFFCURVE",
"499 305 OFFCURVE",
"499 199 CURVE SMOOTH",
"499 81 OFFCURVE",
"450 41 OFFCURVE",
"344 56 CURVE",
"60 0 LINE",
"163 -13 OFFCURVE",
"255 -20 OFFCURVE",
"337 -20 CURVE SMOOTH",
"644 -20 OFFCURVE",
"800 71 OFFCURVE",
"800 212 CURVE SMOOTH",
"800 325 OFFCURVE",
"691 401 OFFCURVE",
"425 400 CURVE SMOOTH",
"394 400 OFFCURVE",
"370 399 OFFCURVE",
"344 397 CURVE"
);
}
);
width = 816;
},
{
associatedMasterId = "15808E89-C4EA-4701-A327-0721774450FF";
background = {
paths = (
{
closed = 1;
nodes = (
"344 337 LINE",
"444.483 337 OFFCURVE",
"499 301 OFFCURVE",
"499 210 CURVE SMOOTH",
"499 101 OFFCURVE",
"430.243 58 OFFCURVE",
"316 71 CURVE",
"316 3 LINE",
"600 -54 OFFCURVE",
"800 44 OFFCURVE",
"800 212 CURVE SMOOTH",
"800 327 OFFCURVE",
"690.601 405 OFFCURVE",
"409.435 405 CURVE SMOOTH",
"344 405 LINE"
);
}
);
};
layerId = "DE37AA77-5B10-424E-9A1F-7F220DDF905E";
name = "Bold Jul 22 16, 14:50 Jul 22 16, 21:08";
paths = (
{
closed = 1;
nodes = (
"238 696 LINE",
"59 686 LINE",
"53 425 OFFCURVE",
"54 121 OFFCURVE",
"60 0 CURVE",
"360 11 LINE",
"354 131 OFFCURVE",
"353 441 OFFCURVE",
"360 702 CURVE"
);
},
{
closed = 1;
nodes = (
"353 657 LINE",
"432 670 OFFCURVE",
"521 625 OFFCURVE",
"521 534 CURVE SMOOTH",
"521 467 OFFCURVE",
"478 395 OFFCURVE",
"344 374 CURVE",
"344 345 LINE",
"424 349 LINE",
"607 363 OFFCURVE",
"755 428 OFFCURVE",
"754 548 CURVE SMOOTH",
"754 655 OFFCURVE",
"636 746 OFFCURVE",
"397 746 CURVE SMOOTH",
"295 746 OFFCURVE",
"177 724 OFFCURVE",
"59 686 CURVE"
);
},
{
closed = 1;
nodes = (
"344 308 LINE",
"438 328 OFFCURVE",
"489 290 OFFCURVE",
"489 187 CURVE SMOOTH",
"489 94 OFFCURVE",
"442 46 OFFCURVE",
"344 50 CURVE",
"60 0 LINE",
"158 -9 OFFCURVE",
"246 -13 OFFCURVE",
"325 -13 CURVE SMOOTH",
"611 -13 OFFCURVE",
"757 71 OFFCURVE",
"757 202 CURVE SMOOTH",
"757 353 OFFCURVE",
"559 405 OFFCURVE",
"344 364 CURVE"
);
}
);
width = 816;
}
);
unicode = 0042;
},
{
glyphname = C;
lastChange = "2016-08-06 13:12:27 +0000";
layers = (
{
background = {
paths = (
{
closed = 1;
nodes = (
"320 573 OFFCURVE",
"346 664 OFFCURVE",
"398 664 CURVE SMOOTH",
"463 664 OFFCURVE",
"508 505 OFFCURVE",
"508 301 CURVE SMOOTH",
"508 155 OFFCURVE",
"482 65 OFFCURVE",
"430 65 CURVE SMOOTH",
"365 65 OFFCURVE",
"320 223 OFFCURVE",
"320 428 CURVE SMOOTH"
);
},
{
closed = 1;
nodes = (
"154 749 OFFCURVE",
"20 585 OFFCURVE",
"20 356 CURVE SMOOTH",
"20 130 OFFCURVE",
"166 -21 OFFCURVE",
"409 -21 CURVE SMOOTH",
"674 -21 OFFCURVE",
"808 143 OFFCURVE",
"808 372 CURVE SMOOTH",
"808 598 OFFCURVE",
"662 749 OFFCURVE",
"419 749 CURVE SMOOTH"
);
}
);
};
layerId = "15808E89-C4EA-4701-A327-0721774450FF";
paths = (
{
closed = 1;
nodes = (
"383 115 OFFCURVE",
"317 216 OFFCURVE",
"317 453 CURVE SMOOTH",
"317 608 OFFCURVE",
"357 666 OFFCURVE",
"421 666 CURVE SMOOTH",
"470 666 OFFCURVE",
"515 620 OFFCURVE",
"518 481 CURVE",
"614 471 OFFCURVE",
"703 519 OFFCURVE",
"703 591 CURVE SMOOTH",
"703 666 OFFCURVE",
"608 748 OFFCURVE",
"427 748 CURVE SMOOTH",
"176 748 OFFCURVE",
"19 612 OFFCURVE",
"19 375 CURVE SMOOTH",
"19 143 OFFCURVE",
"160 -20 OFFCURVE",
"399 -20 CURVE SMOOTH",
"552 -20 OFFCURVE",
"659 43 OFFCURVE",
"722 123 CURVE",
"716 146 OFFCURVE",
"699 168 OFFCURVE",
"680 180 CURVE",
"633 141 OFFCURVE",
"569 115 OFFCURVE",
"509 115 CURVE SMOOTH"
);
}
);
width = 724;
},
{
associatedMasterId = "15808E89-C4EA-4701-A327-0721774450FF";
layerId = "9D0FD5C1-FB6A-431F-9FE1-2515EEB7613B";
name = "Bold Jul 22 16, 20:58";
paths = (
{
closed = 1;
nodes = (
"384 110 OFFCURVE",
"318 212 OFFCURVE",
"318 453 CURVE SMOOTH",
"318 626 OFFCURVE",
"358 690 OFFCURVE",
"422 690 CURVE SMOOTH",
"476 690 OFFCURVE",
"526 642 OFFCURVE",
"529 499 CURVE",
"625 489 OFFCURVE",
"714 537 OFFCURVE",
"714 609 CURVE SMOOTH",
"714 684 OFFCURVE",
"616 766 OFFCURVE",
"430 766 CURVE SMOOTH",
"172 766 OFFCURVE",
"10 623 OFFCURVE",
"10 375 CURVE SMOOTH",
"10 143 OFFCURVE",
"153 -20 OFFCURVE",
"395 -20 CURVE SMOOTH",
"547 -20 OFFCURVE",
"653 40 OFFCURVE",
"711 108 CURVE",
"706 129 OFFCURVE",
"691 149 OFFCURVE",
"674 160 CURVE",
"633 133 OFFCURVE",
"570 110 OFFCURVE",
"510 110 CURVE SMOOTH"
);
}
);
width = 724;
}
);
unicode = 0043;
},
{
glyphname = E;
lastChange = "2016-08-06 13:12:27 +0000";
layers = (
{
background = {
paths = (
{
closed = 1;
nodes = (
"59 716 LINE",
"53 425 OFFCURVE",
"54 121 OFFCURVE",
"60 3 CURVE",
"160 -18 OFFCURVE",
"269 -12 OFFCURVE",
"360 11 CURVE",
"354 131 OFFCURVE",
"353 441 OFFCURVE",
"360 737 CURVE"
);
},
{
closed = 1;
nodes = (
"489 750 OFFCURVE",
"293 746 OFFCURVE",
"59 716 CURVE",
"306 676 LINE",
"432 669 OFFCURVE",
"527 652 OFFCURVE",
"629 620 CURVE",
"645 648 OFFCURVE",
"653 695 OFFCURVE",
"645 734 CURVE"
);
},
{
closed = 1;
nodes = (
"320 297 LINE",
"555 263 LINE",
"571 291 OFFCURVE",
"579 338 OFFCURVE",
"572 377 CURVE",
"320 358 LINE"
);
}
);
};
layerId = "15808E89-C4EA-4701-A327-0721774450FF";
paths = (
{
closed = 1;
nodes = (
"59 716 LINE",
"53 425 OFFCURVE",
"54 121 OFFCURVE",
"60 3 CURVE",
"360 11 LINE",
"354 131 OFFCURVE",
"353 441 OFFCURVE",
"360 737 CURVE"
);
},
{
closed = 1;
nodes = (
"579 116 OFFCURVE",
"461 101 OFFCURVE",
"323 101 CURVE",
"60 3 LINE",
"251 -7 OFFCURVE",
"443 -11 OFFCURVE",
"639 -2 CURVE",
"665 32 OFFCURVE",
"668 100 OFFCURVE",
"656 136 CURVE"
);
},
{
closed = 1;
nodes = (
"489 750 OFFCURVE",
"293 746 OFFCURVE",
"59 716 CURVE",
"298 648 LINE",
"427 645 OFFCURVE",
"525 636 OFFCURVE",
"629 620 CURVE",
"645 648 OFFCURVE",
"653 695 OFFCURVE",
"645 734 CURVE"
);
},
{
closed = 1;
nodes = (
"320 319 LINE",
"555 291 LINE",
"571 319 OFFCURVE",
"579 366 OFFCURVE",
"572 405 CURVE",
"320 394 LINE"
);
}
);
width = 660;
}
);
unicode = 0045;
},
{
glyphname = F;
lastChange = "2016-08-06 13:12:27 +0000";
layers = (
{
layerId = "15808E89-C4EA-4701-A327-0721774450FF";
paths = (
{
closed = 1;
nodes = (
"59 716 LINE",
"53 425 OFFCURVE",
"54 121 OFFCURVE",
"60 3 CURVE",
"160 -18 OFFCURVE",
"269 -12 OFFCURVE",
"360 11 CURVE",
"354 131 OFFCURVE",
"353 441 OFFCURVE",
"360 737 CURVE"
);
},
{
closed = 1;
nodes = (
"489 750 OFFCURVE",
"293 746 OFFCURVE",
"59 716 CURVE",
"298 648 LINE",
"427 645 OFFCURVE",
"525 636 OFFCURVE",
"629 620 CURVE",
"645 648 OFFCURVE",
"653 695 OFFCURVE",
"645 734 CURVE"
);
},
{
closed = 1;
nodes = (
"320 299 LINE",
"555 271 LINE",
"571 299 OFFCURVE",
"579 346 OFFCURVE",
"572 385 CURVE",
"320 374 LINE"
);
}
);
width = 630;
}
);
unicode = 0046;
},
{
glyphname = G;
lastChange = "2016-08-06 13:12:27 +0000";
layers = (
{
associatedMasterId = "15808E89-C4EA-4701-A327-0721774450FF";
background = {
paths = (
{
closed = 1;
nodes = (
"377 110 OFFCURVE",
"308 212 OFFCURVE",
"308 453 CURVE SMOOTH",
"308 626 OFFCURVE",
"357.449 690 OFFCURVE",
"436.119 690 CURVE SMOOTH",
"496.807 690 OFFCURVE",
"553 652 OFFCURVE",
"556 509 CURVE",
"646.811 499 OFFCURVE",
"731 545.267 OFFCURVE",
"731 614.668 CURVE SMOOTH",
"731 686.96 OFFCURVE",
"630.633 766 OFFCURVE",
"440.142 766 CURVE SMOOTH",
"175.912 766 OFFCURVE",
"10 623 OFFCURVE",
"10 375 CURVE SMOOTH",
"10 143 OFFCURVE",
"153 -20 OFFCURVE",
"395 -20 CURVE SMOOTH",
"547 -20 OFFCURVE",
"653 40 OFFCURVE",
"711 108 CURVE",
"706 129 OFFCURVE",
"691 149 OFFCURVE",
"674 160 CURVE",
"633 133 OFFCURVE",
"570 110 OFFCURVE",
"510 110 CURVE SMOOTH"
);
}
);
};
layerId = "C2763DAB-5A3D-4F1F-A3BC-D9DF68C49A06";
name = "Bold Jul 22 16, 20:39";
paths = (
{
closed = 1;
nodes = (
"393 110 OFFCURVE",
"308 212 OFFCURVE",
"308 453 CURVE SMOOTH",
"308 626 OFFCURVE",
"357 690 OFFCURVE",
"436.119 690 CURVE SMOOTH",
"497 690 OFFCURVE",
"553 652 OFFCURVE",
"556 509 CURVE",
"646.811 499 OFFCURVE",
"731 545.267 OFFCURVE",
"731 614.668 CURVE SMOOTH",
"731 686.96 OFFCURVE",
"630.633 766 OFFCURVE",
"440.142 766 CURVE SMOOTH",
"176 766 OFFCURVE",
"10 623 OFFCURVE",
"10 375 CURVE SMOOTH",
"10 143 OFFCURVE",
"158.318 -20 OFFCURVE",
"409.318 -20 CURVE SMOOTH",
"593 -20 OFFCURVE",
"676.913 77.459 OFFCURVE",
"724 164 CURVE",
"675 204 LINE",
"657 170 OFFCURVE",
"600 110 OFFCURVE",
"510 110 CURVE SMOOTH"
);
}
);
width = 724;
},
{
associatedMasterId = "15808E89-C4EA-4701-A327-0721774450FF";
background = {
paths = (
{
closed = 1;
nodes = (
"377 110 OFFCURVE",
"308 212 OFFCURVE",
"308 453 CURVE SMOOTH",
"308 626 OFFCURVE",
"357.449 690 OFFCURVE",
"436.119 690 CURVE SMOOTH",
"496.807 690 OFFCURVE",
"553 652 OFFCURVE",
"556 509 CURVE",
"646.811 499 OFFCURVE",
"731 545.267 OFFCURVE",
"731 614.668 CURVE SMOOTH",
"731 686.96 OFFCURVE",
"630.633 766 OFFCURVE",
"440.142 766 CURVE SMOOTH",
"175.912 766 OFFCURVE",
"10 623 OFFCURVE",
"10 375 CURVE SMOOTH",
"10 143 OFFCURVE",
"153 -20 OFFCURVE",
"395 -20 CURVE SMOOTH",
"547 -20 OFFCURVE",
"653 40 OFFCURVE",
"711 108 CURVE",
"706 129 OFFCURVE",
"691 149 OFFCURVE",
"674 160 CURVE",
"633 133 OFFCURVE",
"570 110 OFFCURVE",
"510 110 CURVE SMOOTH"
);
}
);
};
layerId = "7BB6CA0E-62D1-459F-A3CA-AEB72DEF0500";
name = "Bold Jul 22 16, 20:45 Jul 22 16, 20:55";
paths = (
{
closed = 1;
nodes = (
"393 99 OFFCURVE",
"308 204 OFFCURVE",
"308 453 CURVE SMOOTH",
"308 626 OFFCURVE",
"357 690 OFFCURVE",
"436 690 CURVE SMOOTH",
"497 690 OFFCURVE",
"553 652 OFFCURVE",
"556 509 CURVE",
"647 499 OFFCURVE",
"731 545 OFFCURVE",
"731 615 CURVE SMOOTH",
"731 687 OFFCURVE",
"631 766 OFFCURVE",
"440 766 CURVE SMOOTH",
"176 766 OFFCURVE",
"10 623 OFFCURVE",
"10 375 CURVE SMOOTH",
"10 143 OFFCURVE",
"159.37 -20 OFFCURVE",
"412.693 -20 CURVE SMOOTH",
"612 -20 OFFCURVE",
"725 80 OFFCURVE",
"725 197 CURVE SMOOTH",
"725 240 OFFCURVE",
"696 279 OFFCURVE",
"622 284 CURVE",
"656 167 OFFCURVE",
"597 99 OFFCURVE",
"506 99 CURVE SMOOTH"
);
},
{
closed = 1;
nodes = (
"488 294 OFFCURVE",
"510 259 CURVE",
"592 272 OFFCURVE",
"666 279 OFFCURVE",
"751 282 CURVE",
"768 334 OFFCURVE",
"740 368 OFFCURVE",
"652 368 CURVE SMOOTH",
"527 368 OFFCURVE"
);
}
);
width = 724;
},
{
associatedMasterId = "15808E89-C4EA-4701-A327-0721774450FF";
background = {
paths = (
{
closed = 1;
nodes = (
"393 85 OFFCURVE",
"308 194 OFFCURVE",
"308 442 CURVE SMOOTH",
"308 626 OFFCURVE",
"357 690 OFFCURVE",
"436 690 CURVE SMOOTH",
"497 690 OFFCURVE",
"553 652 OFFCURVE",
"556 509 CURVE",
"647 499 OFFCURVE",
"731 545 OFFCURVE",
"731 615 CURVE SMOOTH",
"731 687 OFFCURVE",
"631 766 OFFCURVE",
"440 766 CURVE SMOOTH",
"176 766 OFFCURVE",
"10 623 OFFCURVE",
"10 375 CURVE SMOOTH",
"10 143 OFFCURVE",
"159 -20 OFFCURVE",
"413 -20 CURVE SMOOTH",
"612 -20 OFFCURVE",
"725 87.457 OFFCURVE",
"725 227 CURVE SMOOTH",
"725 268 OFFCURVE",
"715 320 OFFCURVE",
"705 357 CURVE",
"616.66 304.881 LINE",
"625 282 OFFCURVE",
"632 258.174 OFFCURVE",
"632 225 CURVE SMOOTH",
"632 140 OFFCURVE",
"579 85 OFFCURVE",
"502 85 CURVE SMOOTH"
);
},
{
closed = 1;
nodes = (
"532 420 OFFCURVE",
"438 319 OFFCURVE",
"514 225 CURVE",
"554 257 OFFCURVE",
"630 274 OFFCURVE",
"705 269 CURVE",
"705 357 LINE"
);
}
);
};
layerId = "8161DD7C-CA46-4999-8ED4-B5F3B88D7667";
name = "Bold Jul 22 16, 20:55";
paths = (
{
closed = 1;
nodes = (
"394.352 85 OFFCURVE",
"308 194 OFFCURVE",
"308 442 CURVE SMOOTH",
"308 626 OFFCURVE",
"357 690 OFFCURVE",
"436 690 CURVE SMOOTH",
"497 690 OFFCURVE",
"553 652 OFFCURVE",
"556 509 CURVE",
"647 499 OFFCURVE",
"731 545 OFFCURVE",
"731 615 CURVE SMOOTH",
"731 687 OFFCURVE",
"631 766 OFFCURVE",
"440 766 CURVE SMOOTH",
"176 766 OFFCURVE",
"10 623 OFFCURVE",
"10 375 CURVE SMOOTH",
"10 143 OFFCURVE",
"159 -20 OFFCURVE",
"413 -20 CURVE SMOOTH",
"612 -20 OFFCURVE",
"725 87 OFFCURVE",
"725 227 CURVE SMOOTH",
"725 271 OFFCURVE",
"717 326 OFFCURVE",
"709 366 CURVE",
"617 305 LINE",
"628 281 OFFCURVE",
"637.153 256.841 OFFCURVE",
"637.153 223.841 CURVE SMOOTH",
"637.153 138.841 OFFCURVE",
"583.31 85 OFFCURVE",
"505.085 85 CURVE SMOOTH"
);
},
{
closed = 1;
nodes = (
"657 400 OFFCURVE",
"610 414 OFFCURVE",
"557 414 CURVE SMOOTH",
"458 414 OFFCURVE",
"404 365 OFFCURVE",
"404 308 CURVE SMOOTH",
"404 273 OFFCURVE",
"424 237 OFFCURVE",
"467 205 CURVE",
"514 258 OFFCURVE",
"606 287 OFFCURVE",
"695 279 CURVE",
"709 366 LINE"
);
}
);
width = 724;
},
{
background = {
paths = (
{
closed = 1;
nodes = (
"310 573 OFFCURVE",
"336 664 OFFCURVE",
"388 664 CURVE SMOOTH",
"453 664 OFFCURVE",
"498 505 OFFCURVE",
"498 301 CURVE SMOOTH",
"498 155 OFFCURVE",
"472 65 OFFCURVE",
"420 65 CURVE SMOOTH",
"355 65 OFFCURVE",
"310 223 OFFCURVE",
"310 428 CURVE SMOOTH"
);
},
{
closed = 1;
nodes = (
"144 749 OFFCURVE",
"10 585 OFFCURVE",
"10 356 CURVE SMOOTH",
"10 130 OFFCURVE",
"156 -21 OFFCURVE",
"399 -21 CURVE SMOOTH",
"664 -21 OFFCURVE",
"798 143 OFFCURVE",
"798 372 CURVE SMOOTH",
"798 598 OFFCURVE",
"652 749 OFFCURVE",
"409 749 CURVE SMOOTH"
);
}
);
};
layerId = "15808E89-C4EA-4701-A327-0721774450FF";
paths = (
{
closed = 1;
nodes = (
"382 99 OFFCURVE",
"298 204 OFFCURVE",
"298 453 CURVE SMOOTH",
"298 614 OFFCURVE",
"347 673 OFFCURVE",
"426 673 CURVE SMOOTH",
"482 673 OFFCURVE",
"533 635 OFFCURVE",
"536 492 CURVE",
"627 482 OFFCURVE",
"711 528 OFFCURVE",
"711 598 CURVE SMOOTH",
"711 670 OFFCURVE",
"614 749 OFFCURVE",
"428 749 CURVE SMOOTH",
"171 749 OFFCURVE",
"10 612 OFFCURVE",
"10 375 CURVE SMOOTH",
"10 143 OFFCURVE",
"154.832 -20 OFFCURVE",
"401.727 -20 CURVE SMOOTH",
"595.161 -20 OFFCURVE",
"705 80 OFFCURVE",
"706 209 CURVE SMOOTH",
"706 248 OFFCURVE",
"698 297 OFFCURVE",
"689 322 CURVE",
"602 284 LINE",
"609 260 OFFCURVE",
"612 238 OFFCURVE",
"612 219 CURVE SMOOTH",
"612 142 OFFCURVE",
"563 99 OFFCURVE",
"494.621 99 CURVE SMOOTH"
);
},
{
closed = 1;
nodes = (
"571 268 OFFCURVE",
"662 273 OFFCURVE",
"753 297 CURVE",
"762 331 OFFCURVE",
"757 363 OFFCURVE",
"740 392 CURVE",
"646 381 OFFCURVE",
"553 369 OFFCURVE",
"465 357 CURVE",
"461 335 OFFCURVE",
"464 311 OFFCURVE",
"475 285 CURVE"
);
}
);
width = 724;
}
);
unicode = 0047;
},
{
glyphname = H;
lastChange = "2016-08-06 13:12:27 +0000";
layers = (
{
layerId = "15808E89-C4EA-4701-A327-0721774450FF";
paths = (
{
closed = 1;
nodes = (
"318 743 OFFCURVE",
"273 746 OFFCURVE",
"228 746 CURVE SMOOTH",
"169 746 OFFCURVE",
"111 740 OFFCURVE",
"59 729 CURVE",
"53 425 OFFCURVE",
"54 121 OFFCURVE",
"60 0 CURVE",
"160 -20 OFFCURVE",
"269 -13 OFFCURVE",
"360 11 CURVE",
"354 131 OFFCURVE",
"353 441 OFFCURVE",
"360 737 CURVE"
);
},
{
closed = 1;
nodes = (
"759 743 OFFCURVE",
"714 746 OFFCURVE",
"669 746 CURVE SMOOTH",
"610 746 OFFCURVE",
"552 740 OFFCURVE",
"500 729 CURVE",
"494 425 OFFCURVE",
"495 121 OFFCURVE",
"501 0 CURVE",
"601 -20 OFFCURVE",
"710 -13 OFFCURVE",
"801 11 CURVE",
"795 131 OFFCURVE",
"794 441 OFFCURVE",
"801 737 CURVE"
);
},
{
closed = 1;
nodes = (
"320 305 LINE",
"564 305 LINE",
"564 400 LINE",
"320 400 LINE"
);
}
);
width = 853;
}
);
unicode = 0048;
},
{
glyphname = I;
lastChange = "2016-08-06 13:12:27 +0000";
layers = (
{
layerId = "15808E89-C4EA-4701-A327-0721774450FF";
paths = (
{
closed = 1;
nodes = (
"318 743 OFFCURVE",
"273 746 OFFCURVE",
"228 746 CURVE SMOOTH",
"169 746 OFFCURVE",
"111 740 OFFCURVE",
"59 729 CURVE",
"53 425 OFFCURVE",
"54 121 OFFCURVE",
"60 0 CURVE",
"160 -20 OFFCURVE",
"269 -13 OFFCURVE",
"360 11 CURVE",
"354 131 OFFCURVE",
"353 441 OFFCURVE",
"360 737 CURVE"
);
}
);
width = 412;
}
);
unicode = 0049;
},
{
glyphname = K;
lastChange = "2016-08-06 13:12:27 +0000";
layers = (
{
layerId = "15808E89-C4EA-4701-A327-0721774450FF";
paths = (
{
closed = 1;
nodes = (
"711 755 OFFCURVE",
"548 743 OFFCURVE",
"491 729 CURVE",
"510 423 OFFCURVE",
"458 330 OFFCURVE",
"316 341 CURVE",
"316 295 LINE",
"612 271 OFFCURVE",
"792 419 OFFCURVE",
"762 720 CURVE"
);
},
{
closed = 1;
nodes = (
"376 158 OFFCURVE",
"459 -18 OFFCURVE",
"618 -19 CURVE SMOOTH",
"776 -20 OFFCURVE",
"825 140 OFFCURVE",
"770 294 CURVE",
"665 240 OFFCURVE",
"477 242 OFFCURVE",
"451 305 CURVE",
"377 310 LINE"
);
},
{
closed = 1;
nodes = (
"318 743 OFFCURVE",
"273 746 OFFCURVE",
"228 746 CURVE SMOOTH",
"169 746 OFFCURVE",
"111 740 OFFCURVE",
"59 729 CURVE",
"53 425 OFFCURVE",
"54 121 OFFCURVE",
"60 0 CURVE",
"160 -20 OFFCURVE",
"269 -13 OFFCURVE",
"360 11 CURVE",
"354 131 OFFCURVE",
"353 441 OFFCURVE",
"360 737 CURVE"
);
}
);
width = 802;
}
);
unicode = 004B;
},
{
glyphname = L;
lastChange = "2016-08-06 13:12:27 +0000";
layers = (
{
layerId = "15808E89-C4EA-4701-A327-0721774450FF";
paths = (
{
closed = 1;
nodes = (
"318 743 OFFCURVE",
"273 746 OFFCURVE",
"228 746 CURVE SMOOTH",
"169 746 OFFCURVE",
"111 740 OFFCURVE",
"59 729 CURVE",
"53 425 OFFCURVE",
"54 121 OFFCURVE",
"60 0 CURVE",
"360 11 LINE",
"354 131 OFFCURVE",
"353 441 OFFCURVE",
"360 737 CURVE"
);
},
{
closed = 1;
nodes = (
"579 116 OFFCURVE",
"461 101 OFFCURVE",
"323 101 CURVE",
"60 3 LINE",
"251 -7 OFFCURVE",
"443 -11 OFFCURVE",
"639 -2 CURVE",
"665 32 OFFCURVE",
"668 100 OFFCURVE",
"656 136 CURVE"
);
}
);
width = 660;
}
);
rightMetricsKey = E;
unicode = 004C;
},
{
glyphname = N;
lastChange = "2016-08-06 13:12:27 +0000";
layers = (
{
background = {
paths = (
{
closed = 1;
nodes = (
"348 743 OFFCURVE",
"303 746 OFFCURVE",
"258 746 CURVE SMOOTH",
"199 746 OFFCURVE",
"141 740 OFFCURVE",
"89 729 CURVE",
"83 425 OFFCURVE",
"84 121 OFFCURVE",
"90 0 CURVE",
"190 -20 OFFCURVE",
"299 -13 OFFCURVE",
"390 11 CURVE",
"384 131 OFFCURVE",
"383 441 OFFCURVE",
"390 737 CURVE"
);
},
{
closed = 1;
nodes = (
"789 743 OFFCURVE",
"744 746 OFFCURVE",
"699 746 CURVE SMOOTH",
"640 746 OFFCURVE",
"582 740 OFFCURVE",
"530 729 CURVE",
"524 425 OFFCURVE",
"525 121 OFFCURVE",
"531 0 CURVE",
"631 -20 OFFCURVE",
"740 -13 OFFCURVE",
"831 11 CURVE",
"825 131 OFFCURVE",
"824 441 OFFCURVE",
"831 737 CURVE"
);
},
{
closed = 1;
nodes = (
"350 305 LINE",
"594 305 LINE",
"594 400 LINE",
"350 400 LINE"
);
}
);
};
layerId = "15808E89-C4EA-4701-A327-0721774450FF";
paths = (
{
closed = 1;
nodes = (
"179 748 OFFCURVE",
"138 746 OFFCURVE",
"108 740 CURVE",
"104 528 OFFCURVE",
"99 192 OFFCURVE",
"109 -10 CURVE",
"158 -12 OFFCURVE",
"191 -9 OFFCURVE",
"240 -6 CURVE",
"227 184 OFFCURVE",
"218 530 OFFCURVE",
"209 744 CURVE"
);
},
{
closed = 1;
nodes = (
"171 470 OFFCURVE",
"376 223 OFFCURVE",
"597 -10 CURVE",
"650 -16 OFFCURVE",
"694 -15 OFFCURVE",
"734 -7 CURVE",
"675 269 LINE",
"552 408 OFFCURVE",
"393 594 OFFCURVE",
"271 748 CURVE",
"131 763 OFFCURVE",
"18 739 OFFCURVE",
"-23 709 CURVE"
);
},
{
closed = 1;
nodes = (
"663 -15 OFFCURVE",
"704 -13 OFFCURVE",
"734 -7 CURVE",
"738 205 OFFCURVE",
"743 541 OFFCURVE",
"733 743 CURVE",
"684 745 OFFCURVE",
"651 742 OFFCURVE",
"602 739 CURVE",
"615 549 OFFCURVE",
"624 203 OFFCURVE",
"633 -11 CURVE"
);
}
);
width = 793;
}
);
rightMetricsKey = H;
unicode = 004E;
},
{
glyphname = O;
lastChange = "2016-08-06 13:12:27 +0000";
layers = (
{
layerId = "15808E89-C4EA-4701-A327-0721774450FF";
paths = (
{
closed = 1;
nodes = (
"310 573 OFFCURVE",
"336 664 OFFCURVE",
"388 664 CURVE SMOOTH",
"453 664 OFFCURVE",
"498 505 OFFCURVE",
"498 301 CURVE SMOOTH",
"498 155 OFFCURVE",
"472 65 OFFCURVE",
"420 65 CURVE SMOOTH",
"355 65 OFFCURVE",
"310 223 OFFCURVE",
"310 428 CURVE SMOOTH"
);
},
{
closed = 1;
nodes = (
"144 749 OFFCURVE",
"10 585 OFFCURVE",
"10 356 CURVE SMOOTH",
"10 130 OFFCURVE",
"156 -21 OFFCURVE",
"399 -21 CURVE SMOOTH",
"664 -21 OFFCURVE",
"798 143 OFFCURVE",
"798 372 CURVE SMOOTH",
"798 598 OFFCURVE",
"652 749 OFFCURVE",
"409 749 CURVE SMOOTH"
);
}
);
width = 808;
}
);
leftMetricsKey = o;
rightMetricsKey = o;
unicode = 004F;
},
{
glyphname = P;
lastChange = "2016-08-06 13:12:27 +0000";
layers = (
{
background = {
paths = (
{
closed = 1;
nodes = (
"238 714 LINE",
"59 686 LINE",
"53 425 OFFCURVE",
"54 121 OFFCURVE",
"60 0 CURVE",
"160 -20 OFFCURVE",
"269 -13 OFFCURVE",
"360 11 CURVE",
"354 131 OFFCURVE",
"353 441 OFFCURVE",
"360 702 CURVE"
);
},
{
closed = 1;
nodes = (
"342 644 LINE",
"352 649 OFFCURVE",
"371 652 OFFCURVE",
"385 652 CURVE SMOOTH",
"441 652 OFFCURVE",
"489 607 OFFCURVE",
"489 511 CURVE SMOOTH",
"489 394 OFFCURVE",
"424 348 OFFCURVE",
"316 362 CURVE",
"316 294 LINE",
"594 230 OFFCURVE",
"790 340 OFFCURVE",
"790 529 CURVE SMOOTH",
"790 658 OFFCURVE",
"683 746 OFFCURVE",
"408 746 CURVE SMOOTH",
"303 746 OFFCURVE",
"181 724 OFFCURVE",
"59 686 CURVE"
);
}
);
};
layerId = "15808E89-C4EA-4701-A327-0721774450FF";
paths = (
{
closed = 1;
nodes = (
"350.556 644 LINE",
"359 648 OFFCURVE",
"380 652 OFFCURVE",
"397 652 CURVE SMOOTH",
"459 652 OFFCURVE",
"502 596 OFFCURVE",
"502 483.171 CURVE SMOOTH",
"502 341 OFFCURVE",
"432.116 288 OFFCURVE",
"316 302 CURVE",
"316 234 LINE",
"601.625 170 OFFCURVE",
"803 300 OFFCURVE",
"803 503.767 CURVE SMOOTH",
"803 668 OFFCURVE",
"673 746 OFFCURVE",
"431 746 CURVE SMOOTH",
"307.339 746 OFFCURVE",
"183.17 724 OFFCURVE",
"59 686 CURVE"
);
},
{
closed = 1;
nodes = (
"238 714 LINE",
"59 686 LINE",
"53 425 OFFCURVE",
"54 121 OFFCURVE",
"60 0 CURVE",
"160 -20 OFFCURVE",
"269 -13 OFFCURVE",
"360 11 CURVE",
"354 131 OFFCURVE",
"353 441 OFFCURVE",
"360 702 CURVE"
);
}
);
width = 830;
},
{
associatedMasterId = "15808E89-C4EA-4701-A327-0721774450FF";
layerId = "20DD1D93-037D-4644-97C1-F52EDE66D8A7";
name = "Bold Jun 17 16, 19:03";
paths = (
{
closed = 1;
nodes = (
"278 714 LINE",
"99 666 LINE",
"93 413 OFFCURVE",
"94 118 OFFCURVE",
"100 0 CURVE",
"200 -20 OFFCURVE",
"309 -13 OFFCURVE",
"400 11 CURVE",
"394 131 OFFCURVE",
"393 441 OFFCURVE",
"400 702 CURVE"
);
},
{
closed = 1;
nodes = (
"-28 621 OFFCURVE",
"-15 594 OFFCURVE",
"3 578 CURVE",
"159 638 OFFCURVE",
"295 674 OFFCURVE",
"400 674 CURVE SMOOTH",
"511 674 OFFCURVE",
"561 596 OFFCURVE",
"561 513 CURVE SMOOTH",
"561 418 OFFCURVE",
"497 318 OFFCURVE",
"385 318 CURVE SMOOTH",
"375 318 OFFCURVE",
"366 319 OFFCURVE",
"356 320 CURVE",
"356 268 LINE",
"653 219 OFFCURVE",
"862 334 OFFCURVE",
"862 513 CURVE SMOOTH",
"862 658 OFFCURVE",
"722 746 OFFCURVE",
"448 746 CURVE SMOOTH",
"307 746 OFFCURVE",
"136 706 OFFCURVE",
"-26 643 CURVE"
);
}
);
width = 870;
}
);
unicode = 0050;
},
{
glyphname = R;
lastChange = "2016-08-06 13:12:27 +0000";
layers = (
{
background = {
paths = (
{
closed = 1;
nodes = (
"349 655 LINE",
"360 657 OFFCURVE",
"370 658 OFFCURVE",
"379 658 CURVE SMOOTH",
"532 658 OFFCURVE",
"529 418 OFFCURVE",
"399 394 CURVE",
"465 368 LINE",
"650 368 OFFCURVE",
"739 451 OFFCURVE",
"739 539 CURVE",
"739 662 OFFCURVE",
"620 746 OFFCURVE",
"383 746 CURVE",
"285 746 OFFCURVE",
"172 724 OFFCURVE",
"59 686 CURVE"
);
}
);
};
layerId = "15808E89-C4EA-4701-A327-0721774450FF";
paths = (
{
closed = 1;
nodes = (
"238 714 LINE",
"59 686 LINE",
"53 425 OFFCURVE",
"54 121 OFFCURVE",
"60 0 CURVE",
"160 -20 OFFCURVE",
"269 -13 OFFCURVE",
"360 11 CURVE",
"354 131 OFFCURVE",
"353 441 OFFCURVE",
"360 702 CURVE"
);
},
{
closed = 1;
nodes = (
"342 644 LINE",
"352 649 OFFCURVE",
"371 652 OFFCURVE",
"385 652 CURVE SMOOTH",
"441 652 OFFCURVE",
"489 607 OFFCURVE",
"489 511 CURVE SMOOTH",
"489 394 OFFCURVE",
"424 348 OFFCURVE",
"316 362 CURVE",
"316 294 LINE",
"594 230 OFFCURVE",
"790 340 OFFCURVE",
"790 529 CURVE SMOOTH",
"790 658 OFFCURVE",
"683 746 OFFCURVE",
"408 746 CURVE SMOOTH",
"303 746 OFFCURVE",
"181 724 OFFCURVE",
"59 686 CURVE"
);
},
{
closed = 1;
nodes = (
"385 158 OFFCURVE",
"462 -18 OFFCURVE",
"637 -19 CURVE SMOOTH",
"786 -20 OFFCURVE",
"844 140 OFFCURVE",
"789 294 CURVE",
"702 228 OFFCURVE",
"512 217 OFFCURVE",
"482 308 CURVE",
"386 310 LINE"
);
}
);
width = 826;
},
{
associatedMasterId = "15808E89-C4EA-4701-A327-0721774450FF";
layerId = "4466AFF6-B25E-4462-9B7B-005F8BA63344";
name = "Regular May 7 16, 17:14";
paths = (
{
closed = 1;
nodes = (
"93 437 OFFCURVE",
"94 123 OFFCURVE",
"100 0 CURVE",
"200 -20 OFFCURVE",
"309 -13 OFFCURVE",
"400 11 CURVE",
"394 131 OFFCURVE",
"393 440 OFFCURVE",
"400 700 CURVE",
"100 700 LINE"
);
},
{
closed = 1;
nodes = (
"44 641 LINE",
"305 700 OFFCURVE",
"562 685 OFFCURVE",
"562 487 CURVE SMOOTH",
"562 342 OFFCURVE",
"424 295 OFFCURVE",
"248 304 CURVE",
"248 258 LINE",
"606 200 OFFCURVE",
"862 299 OFFCURVE",
"862 487 CURVE SMOOTH",
"862 719 OFFCURVE",
"505 821 OFFCURVE",
"44 676 CURVE"
);
}
);
width = 1000;
},
{
associatedMasterId = "15808E89-C4EA-4701-A327-0721774450FF";
background = {
paths = (
{
closed = 1;
nodes = (
"-28 621 OFFCURVE",
"-15 593 OFFCURVE",
"4 577 CURVE",
"160 638 OFFCURVE",
"295 674 OFFCURVE",
"400 674 CURVE SMOOTH",
"496 674 OFFCURVE",
"562 609 OFFCURVE",
"562 513 CURVE SMOOTH",
"562 412 OFFCURVE",
"485 301 OFFCURVE",
"356 320 CURVE",
"356 261 LINE",
"652 227 OFFCURVE",
"862 334 OFFCURVE",
"862 513 CURVE SMOOTH",
"862 658 OFFCURVE",
"722 746 OFFCURVE",
"448 746 CURVE SMOOTH",
"307 746 OFFCURVE",
"136 706 OFFCURVE",
"-26 643 CURVE"
);
}
);
};
layerId = "04B0A51E-82CF-4238-AFCE-8EFCB7B02EDE";
name = "Bold May 8 16, 15:41";
paths = (
{
closed = 1;
nodes = (
"278 714 LINE",
"99 666 LINE",
"93 413 OFFCURVE",
"94 118 OFFCURVE",
"100 0 CURVE",
"200 -20 OFFCURVE",
"309 -13 OFFCURVE",
"400 11 CURVE",
"394 131 OFFCURVE",
"393 441 OFFCURVE",
"400 702 CURVE"
);
},
{
closed = 1;
nodes = (
"-28 606 OFFCURVE",
"-15 562 OFFCURVE",
"3 541 CURVE",
"164 603 OFFCURVE",
"294 648 OFFCURVE",
"384 648 CURVE SMOOTH",
"478 648 OFFCURVE",
"529 609 OFFCURVE",
"529 511 CURVE SMOOTH",
"529 394 OFFCURVE",
"464 348 OFFCURVE",
"356 362 CURVE",
"356 294 LINE",
"634 230 OFFCURVE",
"830 340 OFFCURVE",
"830 529 CURVE SMOOTH",
"830 658 OFFCURVE",
"723 746 OFFCURVE",
"448 746 CURVE SMOOTH",
"307 746 OFFCURVE",
"136 706 OFFCURVE",
"-26 643 CURVE"
);
},
{
closed = 1;
nodes = (
"425 158 OFFCURVE",
"502 -18 OFFCURVE",
"677 -19 CURVE SMOOTH",
"826 -20 OFFCURVE",
"884 140 OFFCURVE",
"829 294 CURVE",
"742 228 OFFCURVE",
"552 217 OFFCURVE",
"522 308 CURVE",
"426 310 LINE"
);
}
);
width = 884;
},
{
associatedMasterId = "15808E89-C4EA-4701-A327-0721774450FF";
background = {
paths = (
{
closed = 1;
nodes = (
"-68 621 OFFCURVE",
"-55 593 OFFCURVE",
"-36 577 CURVE",
"120 638 OFFCURVE",
"255 674 OFFCURVE",
"360 674 CURVE SMOOTH",
"456 674 OFFCURVE",
"522 609 OFFCURVE",
"522 513 CURVE SMOOTH",
"522 412 OFFCURVE",
"445 301 OFFCURVE",
"316 320 CURVE",
"316 261 LINE",
"612 227 OFFCURVE",
"822 334 OFFCURVE",
"822 513 CURVE SMOOTH",
"822 658 OFFCURVE",
"682 746 OFFCURVE",
"408 746 CURVE SMOOTH",
"267 746 OFFCURVE",
"96 706 OFFCURVE",
"-66 643 CURVE"
);
}
);
};
layerId = "FCAC5389-22E4-4583-8874-376491DA84F2";
name = "Bold Jun 17 16, 18:59";
paths = (
{
closed = 1;
nodes = (
"238 714 LINE",
"59 686 LINE",
"53 425 OFFCURVE",
"54 121 OFFCURVE",
"60 0 CURVE",
"160 -20 OFFCURVE",
"269 -13 OFFCURVE",
"360 11 CURVE",
"354 131 OFFCURVE",
"353 441 OFFCURVE",
"360 702 CURVE"
);
},
{
closed = 1;
nodes = (
"344 648 LINE",
"438 648 OFFCURVE",
"489 609 OFFCURVE",
"489 511 CURVE SMOOTH",
"489 394 OFFCURVE",
"424 348 OFFCURVE",
"316 362 CURVE",
"316 294 LINE",
"594 230 OFFCURVE",
"790 340 OFFCURVE",
"790 529 CURVE SMOOTH",
"790 658 OFFCURVE",
"683 746 OFFCURVE",
"408 746 CURVE SMOOTH",
"303 746 OFFCURVE",
"181 724 OFFCURVE",
"59 686 CURVE"
);
},
{
closed = 1;
nodes = (
"385 158 OFFCURVE",
"462 -18 OFFCURVE",
"637 -19 CURVE SMOOTH",
"786 -20 OFFCURVE",
"844 140 OFFCURVE",
"789 294 CURVE",
"702 228 OFFCURVE",
"512 217 OFFCURVE",
"482 308 CURVE",
"386 310 LINE"
);
}
);
width = 826;
}
);
unicode = 0052;
},
{
glyphname = a;
lastChange = "2016-08-06 13:12:27 +0000";
layers = (
{
associatedMasterId = "15808E89-C4EA-4701-A327-0721774450FF";
background = {
paths = (
{
closed = 1;
nodes = (
"212 620 OFFCURVE",
"89 560 OFFCURVE",
"54 502 CURVE",
"88 478 LINE",
"144 528 OFFCURVE",
"218 535 OFFCURVE",
"296 535 CURVE SMOOTH",
"360 535 OFFCURVE",
"396 502 OFFCURVE",
"396 329 CURVE SMOOTH",
"396 113 OFFCURVE",
"397 56 OFFCURVE",
"403 0 CURVE",
"498 -21 OFFCURVE",
"618 -18 OFFCURVE",
"703 13 CURVE",
"690 59 OFFCURVE",
"686 154 OFFCURVE",
"686 324 CURVE SMOOTH",
"686 528 OFFCURVE",
"583 620 OFFCURVE",
"381 620 CURVE SMOOTH"
);
}
);
};
layerId = "B45360D2-E3F8-4A03-8218-4223EF894025";
name = "Bold May 11 16, 20:06";
paths = (
{
closed = 1;
nodes = (
"191.376 407 OFFCURVE",
"24 324.068 OFFCURVE",
"24 172.716 CURVE SMOOTH",
"24 69.525 OFFCURVE",
"91.358 -20.003 OFFCURVE",
"197.956 -20.102 CURVE SMOOTH",
"294.01 -20.191 OFFCURVE",
"393.068 62.595 OFFCURVE",
"408.563 190.244 CURVE",
"396.221 200.199 LINE",
"376.611 172.087 OFFCURVE",
"353.519 159 OFFCURVE",
"333.329 159 CURVE SMOOTH",
"306.533 159 OFFCURVE",
"285.057 178.284 OFFCURVE",
"285.057 212.907 CURVE SMOOTH",
"285.057 257.566 OFFCURVE",
"322.059 286.697 OFFCURVE",
"386.14 286.697 CURVE SMOOTH",
"396.411 286.697 OFFCURVE",
"407.378 285.979 OFFCURVE",
"419 284.488 CURVE",
"423 329 LINE"
);
},
{
closed = 1;
nodes = (
"222 620 OFFCURVE",
"113 585 OFFCURVE",
"31 526 CURVE",
"49 472 OFFCURVE",
"83 439 OFFCURVE",
"133 422 CURVE",
"167 496 OFFCURVE",
"221 541 OFFCURVE",
"299 541 CURVE SMOOTH",
"375 541 OFFCURVE",
"396 500 OFFCURVE",
"396 329 CURVE SMOOTH",
"396 113 OFFCURVE",
"397 56 OFFCURVE",
"403 0 CURVE",
"498 -21 OFFCURVE",
"618 -18 OFFCURVE",
"703 13 CURVE",
"690 59 OFFCURVE",
"686 154 OFFCURVE",
"686 324 CURVE SMOOTH",
"686 528 OFFCURVE",
"583 620 OFFCURVE",
"359 620 CURVE SMOOTH"
);
}
);
width = 727;
},
{
associatedMasterId = "15808E89-C4EA-4701-A327-0721774450FF";
background = {
paths = (
{
closed = 1;
nodes = (
"381 337 OFFCURVE",
"327 348 OFFCURVE",
"272 348 CURVE SMOOTH",
"151 348 OFFCURVE",
"24 294 OFFCURVE",
"24 168.275 CURVE SMOOTH",
"24 72.56 OFFCURVE",
"91 -20 OFFCURVE",
"198 -20 CURVE SMOOTH",
"289 -20 OFFCURVE",
"382 46 OFFCURVE",
"407 173 CURVE",
"396 202 LINE",
"380 174 OFFCURVE",
"357 158 OFFCURVE",
"333 158 CURVE SMOOTH",
"305 158 OFFCURVE",
"285 180.463 OFFCURVE",
"285 214 CURVE SMOOTH",
"285 256 OFFCURVE",
"317 279 OFFCURVE",
"364 279 CURVE SMOOTH",
"381 279 OFFCURVE",
"400 276 OFFCURVE",
"417 269 CURVE",
"421 319 LINE"
);
},
{
closed = 1;
nodes = (
"235 620 OFFCURVE",
"125 565 OFFCURVE",
"63 513 CURVE",
"67 497 OFFCURVE",
"77 485 OFFCURVE",
"90 475 CURVE",
"145 505 OFFCURVE",
"210 529 OFFCURVE",
"279 529 CURVE SMOOTH",
"363 529 OFFCURVE",
"396 493 OFFCURVE",
"396 329 CURVE SMOOTH",
"396 113 OFFCURVE",
"397 56 OFFCURVE",
"403 0 CURVE",
"498 -21 OFFCURVE",
"618 -18 OFFCURVE",
"703 13 CURVE",
"690 59 OFFCURVE",
"686 154 OFFCURVE",
"686 324 CURVE",
"686 543 OFFCURVE",
"597 620 OFFCURVE",
"400 621 CURVE SMOOTH"
);
}
);
};
layerId = "FE0D994F-7ECD-4C9F-85B8-241C2F4D4098";
name = "Bold May 11 16, 20:27";
paths = (
{
closed = 1;
nodes = (
"373 346 OFFCURVE",
"322 357 OFFCURVE",
"273 357 CURVE SMOOTH",
"141 357 OFFCURVE",
"24 300 OFFCURVE",
"24 170 CURVE SMOOTH",
"24 55 OFFCURVE",
"100 -20 OFFCURVE",
"198 -20 CURVE SMOOTH",
"289 -20 OFFCURVE",
"382 46 OFFCURVE",
"407 173 CURVE",
"396 202 LINE",
"381.211 163.55 OFFCURVE",
"355.582 145.406 OFFCURVE",
"332.673 145.406 CURVE SMOOTH",
"302.643 145.406 OFFCURVE",
"284.801 175.46 OFFCURVE",
"284.801 207.814 CURVE SMOOTH",
"284.801 245.53 OFFCURVE",
"309.048 286.371 OFFCURVE",
"366.501 286.371 CURVE SMOOTH",
"382.473 286.371 OFFCURVE",
"399.67 282.76 OFFCURVE",
"417 275 CURVE",
"421 323 LINE"
);
},
{
closed = 1;
nodes = (
"265 620 OFFCURVE",
"139 575 OFFCURVE",
"59 510 CURVE",
"63 496 OFFCURVE",
"78 477 OFFCURVE",
"88 469 CURVE",
"149 506 OFFCURVE",
"215 524 OFFCURVE",
"270 524 CURVE SMOOTH",
"367 524 OFFCURVE",
"396 482 OFFCURVE",
"396 329 CURVE SMOOTH",
"396 113 OFFCURVE",
"397 56 OFFCURVE",
"403 0 CURVE",
"498 -21 OFFCURVE",
"618 -18 OFFCURVE",
"703 13 CURVE",
"690 59 OFFCURVE",
"686 154 OFFCURVE",
"686 324 CURVE SMOOTH",
"686 528 OFFCURVE",
"583 620 OFFCURVE",
"395 620 CURVE SMOOTH"
);
}
);
width = 727;
},
{
associatedMasterId = "15808E89-C4EA-4701-A327-0721774450FF";
background = {
paths = (
{
closed = 1;
nodes = (
"381 337 OFFCURVE",
"327 348 OFFCURVE",
"272 348 CURVE SMOOTH",
"151 348 OFFCURVE",
"24 294 OFFCURVE",
"24 168.275 CURVE SMOOTH",
"24 72.56 OFFCURVE",
"91 -20 OFFCURVE",
"198 -20 CURVE SMOOTH",
"289 -20 OFFCURVE",
"382 46 OFFCURVE",
"407 173 CURVE",
"396 202 LINE",
"380 174 OFFCURVE",
"357 158 OFFCURVE",
"333 158 CURVE SMOOTH",
"305 158 OFFCURVE",
"285 180.463 OFFCURVE",
"285 214 CURVE SMOOTH",
"285 256 OFFCURVE",
"317 279 OFFCURVE",
"364 279 CURVE SMOOTH",
"381 279 OFFCURVE",
"400 276 OFFCURVE",
"417 269 CURVE",
"421 319 LINE"
);
},
{
closed = 1;
nodes = (
"235 620 OFFCURVE",
"125 565 OFFCURVE",
"63 513 CURVE",
"67 497 OFFCURVE",
"77 485 OFFCURVE",
"90 475 CURVE",
"145 505 OFFCURVE",
"210 529 OFFCURVE",
"279 529 CURVE SMOOTH",
"363 529 OFFCURVE",
"396 493 OFFCURVE",
"396 329 CURVE SMOOTH",
"396 113 OFFCURVE",
"397 56 OFFCURVE",
"403 0 CURVE",
"498 -21 OFFCURVE",
"618 -18 OFFCURVE",
"703 13 CURVE",
"690 59 OFFCURVE",
"686 154 OFFCURVE",
"686 324 CURVE",
"686 543 OFFCURVE",
"597 620 OFFCURVE",
"400 621 CURVE SMOOTH"
);
}
);
};
layerId = "2DA1DE88-ED41-48BE-85DD-A6F865D84988";
name = "Bold May 11 16, 20:37";
paths = (
{
closed = 1;
nodes = (
"373 346 OFFCURVE",
"322 357 OFFCURVE",
"273 357 CURVE",
"141 357 OFFCURVE",
"24 300 OFFCURVE",
"24 170 CURVE",
"24 55 OFFCURVE",
"100 -20 OFFCURVE",
"198 -20 CURVE",
"289 -20 OFFCURVE",
"382 46 OFFCURVE",
"407 173 CURVE",
"396 202 LINE",
"381 164 OFFCURVE",
"356 145 OFFCURVE",
"333 145 CURVE",
"303 145 OFFCURVE",
"285 175 OFFCURVE",
"285 208 CURVE",
"285 246 OFFCURVE",
"309 286 OFFCURVE",
"367 286 CURVE",
"382 286 OFFCURVE",
"400 283 OFFCURVE",
"417 275 CURVE",
"421 323 LINE"
);
},
{
closed = 1;
nodes = (
"265 620 OFFCURVE",
"139 575 OFFCURVE",
"59 510 CURVE",
"65 488 OFFCURVE",
"85 459 OFFCURVE",
"100 447 CURVE",
"146 489 OFFCURVE",
"222 524 OFFCURVE",
"289 524 CURVE SMOOTH",
"356 524 OFFCURVE",
"396 488 OFFCURVE",
"396 329 CURVE SMOOTH",
"396 113 OFFCURVE",
"397 56 OFFCURVE",
"403 0 CURVE",
"498 -21 OFFCURVE",
"618 -18 OFFCURVE",
"703 13 CURVE",
"690 59 OFFCURVE",
"686 154 OFFCURVE",
"686 324 CURVE",
"686 528 OFFCURVE",
"583 620 OFFCURVE",
"395 620 CURVE"
);
}
);
width = 727;
},
{
associatedMasterId = "15808E89-C4EA-4701-A327-0721774450FF";
background = {
paths = (
{
closed = 1;
nodes = (
"381 337 OFFCURVE",
"327 348 OFFCURVE",
"272 348 CURVE SMOOTH",
"151 348 OFFCURVE",
"24 294 OFFCURVE",
"24 168.275 CURVE SMOOTH",
"24 72.56 OFFCURVE",
"91 -20 OFFCURVE",
"198 -20 CURVE SMOOTH",
"289 -20 OFFCURVE",
"382 46 OFFCURVE",
"407 173 CURVE",
"396 202 LINE",
"380 174 OFFCURVE",
"357 158 OFFCURVE",
"333 158 CURVE SMOOTH",
"305 158 OFFCURVE",
"285 180.463 OFFCURVE",
"285 214 CURVE SMOOTH",
"285 256 OFFCURVE",
"317 279 OFFCURVE",
"364 279 CURVE SMOOTH",
"381 279 OFFCURVE",
"400 276 OFFCURVE",
"417 269 CURVE",
"421 319 LINE"
);
},
{
closed = 1;
nodes = (
"235 620 OFFCURVE",
"125 565 OFFCURVE",
"63 513 CURVE",
"67 497 OFFCURVE",
"77 485 OFFCURVE",
"90 475 CURVE",
"145 505 OFFCURVE",
"210 529 OFFCURVE",
"279 529 CURVE SMOOTH",
"363 529 OFFCURVE",
"396 493 OFFCURVE",
"396 329 CURVE SMOOTH",
"396 113 OFFCURVE",
"397 56 OFFCURVE",
"403 0 CURVE",
"498 -21 OFFCURVE",
"618 -18 OFFCURVE",
"703 13 CURVE",
"690 59 OFFCURVE",
"686 154 OFFCURVE",
"686 324 CURVE",
"686 543 OFFCURVE",
"597 620 OFFCURVE",
"400 621 CURVE SMOOTH"
);
}
);
};
layerId = "922C3CF5-1AE8-4886-885C-F074DB80848B";
name = "Bold May 11 16, 20:39";
paths = (
{
closed = 1;
nodes = (
"373 298.177 OFFCURVE",
"322 315 OFFCURVE",
"255.824 315 CURVE",
"141 315 OFFCURVE",
"24 264.35 OFFCURVE",
"24 148.833 CURVE",
"24 46.645 OFFCURVE",
"100 -20 OFFCURVE",
"198 -20 CURVE",
"289 -20 OFFCURVE",
"382 46 OFFCURVE",
"407 173 CURVE",
"396 202 LINE",
"388.606 161.427 OFFCURVE",
"360.883 145.023 OFFCURVE",
"334.995 145.023 CURVE",
"302.694 145.023 OFFCURVE",
"285.187 165.28 OFFCURVE",
"285.187 186.884 CURVE",
"285.187 220.396 OFFCURVE",
"318.871 237.932 OFFCURVE",
"354.276 237.932 CURVE",
"377.427 237.932 OFFCURVE",
"401.315 230.434 OFFCURVE",
"417 215 CURVE",
"421 263 LINE"
);
},
{
closed = 1;
nodes = (
"265 620 OFFCURVE",
"139 575 OFFCURVE",
"59 510 CURVE",
"65 488 OFFCURVE",
"85 459 OFFCURVE",
"100 447 CURVE",
"146 489 OFFCURVE",
"222 524 OFFCURVE",
"289 524 CURVE",
"356 524 OFFCURVE",
"396 488 OFFCURVE",
"396 329 CURVE",
"396 113 OFFCURVE",
"397 56 OFFCURVE",
"403 0 CURVE",
"498 -21 OFFCURVE",
"618 -18 OFFCURVE",
"703 13 CURVE",
"690 59 OFFCURVE",
"686 154 OFFCURVE",
"686 324 CURVE",
"686 528 OFFCURVE",
"583 620 OFFCURVE",
"395 620 CURVE"
);
}
);
width = 727;
},
{
associatedMasterId = "15808E89-C4EA-4701-A327-0721774450FF";
background = {
paths = (
{
closed = 1;
nodes = (
"253 496 OFFCURVE",
"282 550 OFFCURVE",
"321 550 CURVE SMOOTH",
"358 550 OFFCURVE",
"398 503 OFFCURVE",
"398 394 CURVE",
"398 180 OFFCURVE",
"208 69 OFFCURVE",
"68 177 CURVE",
"53 166 OFFCURVE",
"40 141 OFFCURVE",
"40 122 CURVE",
"92 44 OFFCURVE",
"192 -20 OFFCURVE",
"334 -20 CURVE",
"547 -20 OFFCURVE",
"673 113 OFFCURVE",
"673 298 CURVE",
"673 482 OFFCURVE",
"552 620 OFFCURVE",
"303 619 CURVE",
"186 619 OFFCURVE",
"82 573 OFFCURVE",
"40 481 CURVE",
"83 414 OFFCURVE",
"153 388 OFFCURVE",
"241 394 CURVE"
);
}
);
};
layerId = "646111EA-D23A-4D10-8B3D-7972784A66B9";
name = "Bold May 14 16, 17:50";
paths = (
{
closed = 1;
nodes = (
"257 620 OFFCURVE",
"131 575 OFFCURVE",
"51 510 CURVE",
"70 461 OFFCURVE",
"135 395 OFFCURVE",
"182 367 CURVE",
"208 452 OFFCURVE",
"252 523 OFFCURVE",
"299 523 CURVE SMOOTH",
"349 523 OFFCURVE",
"388 488 OFFCURVE",
"388 329 CURVE SMOOTH",
"388 113 OFFCURVE",
"389 56 OFFCURVE",
"395 0 CURVE",
"490 -21 OFFCURVE",
"610 -18 OFFCURVE",
"695 13 CURVE",
"682 59 OFFCURVE",
"678 154 OFFCURVE",
"678 324 CURVE SMOOTH",
"678 528 OFFCURVE",
"575 620 OFFCURVE",
"387 620 CURVE SMOOTH"
);
},
{
closed = 1;
nodes = (
"375 320 OFFCURVE",
"318 335 OFFCURVE",
"249 335 CURVE SMOOTH",
"111 335 OFFCURVE",
"16 263 OFFCURVE",
"16 152 CURVE SMOOTH",
"16 48 OFFCURVE",
"92 -20 OFFCURVE",
"190 -20 CURVE SMOOTH",
"281 -20 OFFCURVE",
"394 45 OFFCURVE",
"399 173 CURVE",
"388 202 LINE",
"384 159 OFFCURVE",
"357 140 OFFCURVE",
"329 140 CURVE SMOOTH",
"298 140 OFFCURVE",
"277 163 OFFCURVE",
"277 194 CURVE SMOOTH",
"277 231 OFFCURVE",
"307 257 OFFCURVE",
"350 257 CURVE SMOOTH",
"376 257 OFFCURVE",
"400 247 OFFCURVE",
"415 232 CURVE",
"416 297 LINE"
);
}
);
width = 719;
},
{
associatedMasterId = "15808E89-C4EA-4701-A327-0721774450FF";
background = {
paths = (
{
closed = 1;
nodes = (
"254 620 OFFCURVE",
"128 575 OFFCURVE",
"48 510 CURVE",
"62 455 OFFCURVE",
"139 387 OFFCURVE",
"207 367 CURVE",
"229 471 OFFCURVE",
"269 545 OFFCURVE",
"314 545 CURVE SMOOTH",
"351 545 OFFCURVE",
"385 495 OFFCURVE",
"385 329 CURVE SMOOTH",
"385 113 OFFCURVE",
"386 56 OFFCURVE",
"392 0 CURVE",
"487 -21 OFFCURVE",
"607 -18 OFFCURVE",
"692 13 CURVE",
"679 59 OFFCURVE",
"675 154 OFFCURVE",
"675 324 CURVE SMOOTH",
"675 537 OFFCURVE",
"565 620 OFFCURVE",
"385 620 CURVE SMOOTH"
);
},
{
closed = 1;
nodes = (
"372 320 OFFCURVE",
"315 335 OFFCURVE",
"246 335 CURVE SMOOTH",
"108 335 OFFCURVE",
"13 263 OFFCURVE",
"13 152 CURVE SMOOTH",
"13 48 OFFCURVE",
"89 -20 OFFCURVE",
"187 -20 CURVE SMOOTH",
"278 -20 OFFCURVE",
"391 45 OFFCURVE",
"396 173 CURVE",
"385 202 LINE",
"381 159 OFFCURVE",
"354 140 OFFCURVE",
"326 140 CURVE SMOOTH",
"295 140 OFFCURVE",
"274 163 OFFCURVE",
"274 194 CURVE SMOOTH",
"274 231 OFFCURVE",
"304 257 OFFCURVE",
"347 257 CURVE SMOOTH",
"373 257 OFFCURVE",
"397 247 OFFCURVE",
"412 232 CURVE",
"413 297 LINE"
);
}
);
};
layerId = "9B0BCB2A-18FA-4789-B61E-D1279A8B20EB";
name = "Bold Jul 9 16, 13:54";
paths = (
{
closed = 1;
nodes = (
"169 620 OFFCURVE",
"55 551 OFFCURVE",
"55 471 CURVE SMOOTH",
"55 407 OFFCURVE",
"134 372 OFFCURVE",
"207 367 CURVE",
"229 471 OFFCURVE",
"269 545 OFFCURVE",
"314 545 CURVE SMOOTH",
"351 545 OFFCURVE",
"385 495 OFFCURVE",
"385 329 CURVE SMOOTH",
"385 113 OFFCURVE",
"386 56 OFFCURVE",
"392 0 CURVE",
"487 -21 OFFCURVE",
"607 -18 OFFCURVE",
"692 13 CURVE",
"679 59 OFFCURVE",
"675 154 OFFCURVE",
"675 324 CURVE SMOOTH",
"675 537 OFFCURVE",
"565 620 OFFCURVE",
"385 620 CURVE SMOOTH"
);
},
{
closed = 1;
nodes = (
"372 320 OFFCURVE",
"315 335 OFFCURVE",
"246 335 CURVE SMOOTH",
"108 335 OFFCURVE",
"13 263 OFFCURVE",
"13 152 CURVE SMOOTH",
"13 48 OFFCURVE",
"89 -20 OFFCURVE",
"187 -20 CURVE SMOOTH",
"278 -20 OFFCURVE",
"391 45 OFFCURVE",
"396 173 CURVE",
"385 202 LINE",
"381 159 OFFCURVE",
"352 140 OFFCURVE",
"326 140 CURVE SMOOTH",
"298 140 OFFCURVE",
"282 163 OFFCURVE",
"282 194 CURVE SMOOTH",
"282 231 OFFCURVE",
"307 257 OFFCURVE",
"347 257 CURVE SMOOTH",
"371 257 OFFCURVE",
"397 247 OFFCURVE",
"412 232 CURVE",
"413 297 LINE"
);
}
);
width = 716;
},
{
background = {
paths = (
{
closed = 1;
nodes = (
"151.976 620 OFFCURVE",
"51 550 OFFCURVE",
"51 483 CURVE SMOOTH",
"51 436 OFFCURVE",
"101 397 OFFCURVE",
"201.446 380.048 CURVE",
"209 477 OFFCURVE",
"266 537 OFFCURVE",
"314 537 CURVE SMOOTH",
"353 537 OFFCURVE",
"388 499 OFFCURVE",
"388 329 CURVE",
"388 113 OFFCURVE",
"389 56 OFFCURVE",
"395 0 CURVE",
"490 -21 OFFCURVE",
"610 -18 OFFCURVE",
"695 13 CURVE",
"682 59 OFFCURVE",
"678 154 OFFCURVE",
"678 324 CURVE",
"678 528 OFFCURVE",
"575 620 OFFCURVE",
"377 620 CURVE"
);
},
{
closed = 1;
nodes = (
"376 320 OFFCURVE",
"319 335 OFFCURVE",
"250 335 CURVE",
"112 335 OFFCURVE",
"17 263 OFFCURVE",
"17 152 CURVE",
"17 48 OFFCURVE",
"93 -20 OFFCURVE",
"191 -20 CURVE",
"282 -20 OFFCURVE",
"395 45 OFFCURVE",
"400 173 CURVE",
"389 202 LINE",
"385 159 OFFCURVE",
"356 140 OFFCURVE",
"330 140 CURVE",
"302 140 OFFCURVE",
"286 163 OFFCURVE",
"286 194 CURVE",
"286 231 OFFCURVE",
"311 257 OFFCURVE",
"351 257 CURVE",
"375 257 OFFCURVE",
"401 247 OFFCURVE",
"416 232 CURVE",
"417 297 LINE"
);
}
);
};
layerId = "15808E89-C4EA-4701-A327-0721774450FF";
paths = (
{
closed = 1;
nodes = (
"152 620 OFFCURVE",
"51 550 OFFCURVE",
"51 486.6 CURVE SMOOTH",
"51 438.157 OFFCURVE",
"112 380 OFFCURVE",
"252.149 379.36 CURVE",
"253.405 478.628 OFFCURVE",
"291.899 537 OFFCURVE",
"329.71 537 CURVE SMOOTH",
"360.43 537 OFFCURVE",
"388 499 OFFCURVE",
"388 329 CURVE SMOOTH",
"388 113 OFFCURVE",
"389 56 OFFCURVE",
"395 0 CURVE",
"490 -21 OFFCURVE",
"610 -18 OFFCURVE",
"695 13 CURVE",
"682 59 OFFCURVE",
"678 154 OFFCURVE",
"678 324 CURVE SMOOTH",
"678 528 OFFCURVE",
"575 620 OFFCURVE",
"377 620 CURVE SMOOTH"
);
},
{
closed = 1;
nodes = (
"376 320 OFFCURVE",
"319 335 OFFCURVE",
"250 335 CURVE SMOOTH",
"112 335 OFFCURVE",
"17 263 OFFCURVE",
"17 152 CURVE SMOOTH",
"17 48 OFFCURVE",
"93 -20 OFFCURVE",
"191 -20 CURVE SMOOTH",
"282 -20 OFFCURVE",
"395 45 OFFCURVE",
"400 173 CURVE",
"389 202 LINE",
"385 159 OFFCURVE",
"356 140 OFFCURVE",
"330 140 CURVE SMOOTH",
"302 140 OFFCURVE",
"286 163 OFFCURVE",
"286 194 CURVE SMOOTH",
"286 231 OFFCURVE",
"311 257 OFFCURVE",
"351 257 CURVE SMOOTH",
"375 257 OFFCURVE",
"401 247 OFFCURVE",
"416 232 CURVE",
"417 297 LINE"
);
}
);
width = 720;
},
{
associatedMasterId = "15808E89-C4EA-4701-A327-0721774450FF";
background = {
paths = (
{
closed = 1;
nodes = (
"151.976 620 OFFCURVE",
"51 550 OFFCURVE",
"51 483 CURVE SMOOTH",
"51 436 OFFCURVE",
"101 397 OFFCURVE",
"201.446 380.048 CURVE",
"209 477 OFFCURVE",
"266 537 OFFCURVE",
"314 537 CURVE SMOOTH",
"353 537 OFFCURVE",
"388 499 OFFCURVE",
"388 329 CURVE",
"388 113 OFFCURVE",
"389 56 OFFCURVE",
"395 0 CURVE",
"490 -21 OFFCURVE",
"610 -18 OFFCURVE",
"695 13 CURVE",
"682 59 OFFCURVE",
"678 154 OFFCURVE",
"678 324 CURVE",
"678 528 OFFCURVE",
"575 620 OFFCURVE",
"377 620 CURVE"
);
},
{
closed = 1;
nodes = (
"376 320 OFFCURVE",
"319 335 OFFCURVE",
"250 335 CURVE",
"112 335 OFFCURVE",
"17 263 OFFCURVE",
"17 152 CURVE",
"17 48 OFFCURVE",
"93 -20 OFFCURVE",
"191 -20 CURVE",
"282 -20 OFFCURVE",
"395 45 OFFCURVE",
"400 173 CURVE",
"389 202 LINE",
"385 159 OFFCURVE",
"356 140 OFFCURVE",
"330 140 CURVE",
"302 140 OFFCURVE",
"286 163 OFFCURVE",
"286 194 CURVE",
"286 231 OFFCURVE",
"311 257 OFFCURVE",
"351 257 CURVE",
"375 257 OFFCURVE",
"401 247 OFFCURVE",
"416 232 CURVE",
"417 297 LINE"
);
}
);
};
layerId = "31ADBF0B-3E85-432F-A83A-1851285DFC2B";
name = "Bold Jul 11 16, 15:47";
paths = (
{
closed = 1;
nodes = (
"151.976 620 OFFCURVE",
"51 550 OFFCURVE",
"51 483 CURVE SMOOTH",
"51 436 OFFCURVE",
"101 397 OFFCURVE",
"201.446 380.048 CURVE",
"209 477 OFFCURVE",
"266 537 OFFCURVE",
"314 537 CURVE SMOOTH",
"353 537 OFFCURVE",
"388 499 OFFCURVE",
"388 329 CURVE",
"388 113 OFFCURVE",
"389 56 OFFCURVE",
"395 0 CURVE",
"490 -21 OFFCURVE",
"610 -18 OFFCURVE",
"695 13 CURVE",
"682 59 OFFCURVE",
"678 154 OFFCURVE",
"678 324 CURVE",
"678 528 OFFCURVE",
"575 620 OFFCURVE",
"377 620 CURVE"
);
},
{
closed = 1;
nodes = (
"376 320 OFFCURVE",
"319 335 OFFCURVE",
"250 335 CURVE",
"112 335 OFFCURVE",
"17 263 OFFCURVE",
"17 152 CURVE",
"17 48 OFFCURVE",
"93 -20 OFFCURVE",
"191 -20 CURVE",
"282 -20 OFFCURVE",
"395 45 OFFCURVE",
"400 173 CURVE",
"389 202 LINE",
"385 159 OFFCURVE",
"356 140 OFFCURVE",
"330 140 CURVE",
"302 140 OFFCURVE",
"286 163 OFFCURVE",
"286 194 CURVE",
"286 231 OFFCURVE",
"311 257 OFFCURVE",
"351 257 CURVE",
"375 257 OFFCURVE",
"401 247 OFFCURVE",
"416 232 CURVE",
"417 297 LINE"
);
}
);
width = 719;
}
);
unicode = 0061;
},
{
glyphname = b;
lastChange = "2016-08-06 13:12:27 +0000";
layers = (
{
background = {
paths = (
{
closed = 1;
nodes = (
"434 620 OFFCURVE",
"362 567 OFFCURVE",
"331 485 CURVE",
"332 521 OFFCURVE",
"332 556 OFFCURVE",
"333 590 CURVE",
"232 602 OFFCURVE",
"135 603 OFFCURVE",
"42 582 CURVE",
"37 285 OFFCURVE",
"41 -60 OFFCURVE",
"45 -200 CURVE",
"142 -220 OFFCURVE",
"247 -213 OFFCURVE",
"345 -187 CURVE",
"339 -139 OFFCURVE",
"335 -61 OFFCURVE",
"333 32 CURVE",
"368 -1 OFFCURVE",
"415 -20 OFFCURVE",
"468 -20 CURVE SMOOTH",
"627 -20 OFFCURVE",
"724 105 OFFCURVE",
"724 308 CURVE SMOOTH",
"724 502 OFFCURVE",
"647 620 OFFCURVE",
"519 620 CURVE SMOOTH"
);
},
{
closed = 1;
nodes = (
"349 105 OFFCURVE",
"340 107 OFFCURVE",
"332 112 CURVE",
"330 209 OFFCURVE",
"330 316 OFFCURVE",
"331 419 CURVE",
"341 437 OFFCURVE",
"361 450 OFFCURVE",
"382 450 CURVE SMOOTH",
"416 450 OFFCURVE",
"430 403 OFFCURVE",
"430 286 CURVE SMOOTH",
"430 169 OFFCURVE",
"405 105 OFFCURVE",
"358 105 CURVE SMOOTH"
);
}
);
};
layerId = "15808E89-C4EA-4701-A327-0721774450FF";
paths = (
{
closed = 1;
nodes = (
"235 750 OFFCURVE",
"138 750 OFFCURVE",
"45 729 CURVE",
"41 452 OFFCURVE",
"42 130 OFFCURVE",
"40 0 CURVE",
"124 -15 OFFCURVE",
"211 -14 OFFCURVE",
"286 1 CURVE",
"321 35 OFFCURVE",
"331 97 OFFCURVE",
"331 342 CURVE SMOOTH",
"331 468 OFFCURVE",
"333 608 OFFCURVE",
"336 737 CURVE"
);
},
{
closed = 1;
nodes = (
"338 9 OFFCURVE",
"404 -20 OFFCURVE",
"478 -20 CURVE SMOOTH",
"624 -20 OFFCURVE",
"738 102 OFFCURVE",
"738 308 CURVE SMOOTH",
"738 495 OFFCURVE",
"644 620 OFFCURVE",
"518 620 CURVE SMOOTH",
"415 620 OFFCURVE",
"335 535 OFFCURVE",
"327 441 CURVE",
"330 424 LINE",
"342 439 OFFCURVE",
"361 450 OFFCURVE",
"378 450 CURVE SMOOTH",
"413 450 OFFCURVE",
"450 397 OFFCURVE",
"450 276 CURVE SMOOTH",
"450 151 OFFCURVE",
"411 97 OFFCURVE",
"360 97 CURVE SMOOTH",
"344 97 OFFCURVE",
"326 102 OFFCURVE",
"310 111 CURVE",
"282 64 LINE"
);
}
);
width = 753;
}
);
rightMetricsKey = o;
unicode = 0062;
},
{
glyphname = c;
lastChange = "2016-08-06 13:12:27 +0000";
layers = (
{
background = {
paths = (
{
closed = 1;
nodes = (
"358 109 OFFCURVE",
"303 186 OFFCURVE",
"303 369 CURVE SMOOTH",
"303 497 OFFCURVE",
"328 544 OFFCURVE",
"365 544 CURVE SMOOTH",
"402 544 OFFCURVE",
"438 495 OFFCURVE",
"448 381 CURVE",
"523 383 OFFCURVE",
"605 439 OFFCURVE",
"605 500 CURVE SMOOTH",
"605 565 OFFCURVE",
"510 620 OFFCURVE",
"359 620 CURVE SMOOTH",
"147 620 OFFCURVE",
"15 504 OFFCURVE",
"15 303 CURVE SMOOTH",
"15 113 OFFCURVE",
"139 -20 OFFCURVE",
"349 -20 CURVE SMOOTH",
"486 -20 OFFCURVE",
"581 40 OFFCURVE",
"633 108 CURVE",
"628 129 OFFCURVE",
"613 149 OFFCURVE",
"596 160 CURVE",
"554 128 OFFCURVE",
"501 109 OFFCURVE",
"453 109 CURVE SMOOTH"
);
}
);
};
layerId = "15808E89-C4EA-4701-A327-0721774450FF";
paths = (
{
closed = 1;
nodes = (
"358 109 OFFCURVE",
"303 186 OFFCURVE",
"303 369 CURVE SMOOTH",
"303 497 OFFCURVE",
"329 544 OFFCURVE",
"367 544 CURVE SMOOTH",
"406 544 OFFCURVE",
"439 496 OFFCURVE",
"441 354 CURVE",
"537 344 OFFCURVE",
"626 392 OFFCURVE",
"626 466 CURVE SMOOTH",
"626 539 OFFCURVE",
"538 620 OFFCURVE",
"371 620 CURVE SMOOTH",
"152 620 OFFCURVE",
"15 504 OFFCURVE",
"15 303 CURVE SMOOTH",
"15 113 OFFCURVE",
"139 -20 OFFCURVE",
"349 -20 CURVE SMOOTH",
"486 -20 OFFCURVE",
"581 40 OFFCURVE",
"633 108 CURVE",
"628 129 OFFCURVE",
"613 149 OFFCURVE",
"596 160 CURVE",
"554 128 OFFCURVE",
"501 109 OFFCURVE",
"453 109 CURVE SMOOTH"
);
}
);
vertOrigin = 160;
width = 637;
},
{
associatedMasterId = "15808E89-C4EA-4701-A327-0721774450FF";
background = {
paths = (
{
closed = 1;
nodes = (
"642 328 LINE",
"672 532 OFFCURVE",
"572 620 OFFCURVE",
"353 620 CURVE",
"129 620 OFFCURVE",
"10 482 OFFCURVE",
"10 298 CURVE",
"10 113 OFFCURVE",
"134 -20 OFFCURVE",
"344 -20 CURVE",
"488 -20 OFFCURVE",
"590 44 OFFCURVE",
"643 122 CURVE",
"643 141 OFFCURVE",
"631 164 OFFCURVE",
"615 175 CURVE",
"580 148 OFFCURVE",
"539 135 OFFCURVE",
"499.706 134.86 CURVE",
"385.295 134.86 OFFCURVE",
"275 245.074 OFFCURVE",
"275 437.873 CURVE",
"275 522 OFFCURVE",
"296 549 OFFCURVE",
"331 549 CURVE",
"354 549 OFFCURVE",
"375 536 OFFCURVE",
"375 474 CURVE",
"375 450 OFFCURVE",
"372 418 OFFCURVE",
"365 377 CURVE"
);
}
);
};
layerId = "A7FFEABA-2DE6-441E-833D-9A3D19985C7E";
name = "Bold May 14 16, 17:50";
paths = (
{
closed = 1;
nodes = (
"530 388 OFFCURVE",
"600 414 OFFCURVE",
"643 481 CURVE",
"601 573 OFFCURVE",
"497 619 OFFCURVE",
"380 619 CURVE",
"131 620 OFFCURVE",
"10 482 OFFCURVE",
"10 298 CURVE",
"10 113 OFFCURVE",
"136 -20 OFFCURVE",
"349 -20 CURVE",
"491 -20 OFFCURVE",
"591 44 OFFCURVE",
"643 122 CURVE",
"643 141 OFFCURVE",
"630 166 OFFCURVE",
"615 177 CURVE",
"475 69 OFFCURVE",
"285 180 OFFCURVE",
"285 394 CURVE",
"285 503 OFFCURVE",
"325 550 OFFCURVE",
"362 550 CURVE SMOOTH",
"401 550 OFFCURVE",
"430 496 OFFCURVE",
"442 394 CURVE"
);
}
);
width = 629;
},
{
associatedMasterId = "15808E89-C4EA-4701-A327-0721774450FF";
background = {
paths = (
{
closed = 1;
nodes = (
"642 328 LINE",
"672 532 OFFCURVE",
"572 620 OFFCURVE",
"353 620 CURVE",
"129 620 OFFCURVE",
"10 482 OFFCURVE",
"10 298 CURVE",
"10 113 OFFCURVE",
"134 -20 OFFCURVE",
"344 -20 CURVE",
"488 -20 OFFCURVE",
"590 44 OFFCURVE",
"643 122 CURVE",
"643 141 OFFCURVE",
"631 164 OFFCURVE",
"615 175 CURVE",
"580 148 OFFCURVE",
"539 135 OFFCURVE",
"499.706 134.86 CURVE",
"385.295 134.86 OFFCURVE",
"275 245.074 OFFCURVE",
"275 437.873 CURVE",
"275 522 OFFCURVE",
"296 549 OFFCURVE",
"331 549 CURVE",
"354 549 OFFCURVE",
"375 536 OFFCURVE",
"375 474 CURVE",
"375 450 OFFCURVE",
"372 418 OFFCURVE",
"365 377 CURVE"
);
}
);
};
layerId = "DFCA3EA0-5533-4895-B514-5077932FBAF8";
name = "Bold May 18 16, 01:44";
paths = (
{
closed = 1;
nodes = (
"543 369 OFFCURVE",
"616 415 OFFCURVE",
"646 507 CURVE",
"571 591 OFFCURVE",
"477 620 OFFCURVE",
"370 620 CURVE SMOOTH",
"131 620 OFFCURVE",
"10 482 OFFCURVE",
"10 298 CURVE SMOOTH",
"10 113 OFFCURVE",
"136 -20 OFFCURVE",
"349 -20 CURVE SMOOTH",
"491 -20 OFFCURVE",
"591 44 OFFCURVE",
"643 122 CURVE",
"643 141 OFFCURVE",
"630 166 OFFCURVE",
"615 177 CURVE",
"475 69 OFFCURVE",
"285 180 OFFCURVE",
"285 394 CURVE SMOOTH",
"285 503 OFFCURVE",
"325 550 OFFCURVE",
"362 550 CURVE SMOOTH",
"401 550 OFFCURVE",
"428 491 OFFCURVE",
"439 355 CURVE"
);
}
);
width = 633;
},
{
associatedMasterId = "15808E89-C4EA-4701-A327-0721774450FF";
background = {
paths = (
{
closed = 1;
nodes = (
"642 328 LINE",
"672 532 OFFCURVE",
"572 620 OFFCURVE",
"353 620 CURVE",
"129 620 OFFCURVE",
"10 482 OFFCURVE",
"10 298 CURVE",
"10 113 OFFCURVE",
"134 -20 OFFCURVE",
"344 -20 CURVE",
"488 -20 OFFCURVE",
"590 44 OFFCURVE",
"643 122 CURVE",
"643 141 OFFCURVE",
"631 164 OFFCURVE",
"615 175 CURVE",
"580 148 OFFCURVE",
"539 135 OFFCURVE",
"499.706 134.86 CURVE",
"385.295 134.86 OFFCURVE",
"275 245.074 OFFCURVE",
"275 437.873 CURVE",
"275 522 OFFCURVE",
"296 549 OFFCURVE",
"331 549 CURVE",
"354 549 OFFCURVE",
"375 536 OFFCURVE",
"375 474 CURVE",
"375 450 OFFCURVE",
"372 418 OFFCURVE",
"365 377 CURVE"
);
}
);
};
layerId = "2CA45951-6E81-4A41-B0F1-51C86614151B";
name = "Bold Jun 18 16, 09:15";
paths = (
{
closed = 1;
nodes = (
"519 359 OFFCURVE",
"589 410 OFFCURVE",
"619 495 CURVE",
"540 581 OFFCURVE",
"453 620 OFFCURVE",
"344 620 CURVE SMOOTH",
"124 620 OFFCURVE",
"10 482 OFFCURVE",
"10 300 CURVE SMOOTH",
"10 113 OFFCURVE",
"129 -20 OFFCURVE",
"326 -20 CURVE SMOOTH",
"463 -20 OFFCURVE",
"557 44 OFFCURVE",
"606 122 CURVE",
"606 141 OFFCURVE",
"594 166 OFFCURVE",
"580 177 CURVE",
"474 90 OFFCURVE",
"269 151 OFFCURVE",
"269 402 CURVE SMOOTH",
"269 508 OFFCURVE",
"307 557 OFFCURVE",
"342 557 CURVE SMOOTH",
"378 557 OFFCURVE",
"404 496 OFFCURVE",
"414 355 CURVE"
);
}
);
width = 613;
},
{
associatedMasterId = "15808E89-C4EA-4701-A327-0721774450FF";
background = {
paths = (
{
closed = 1;
nodes = (
"662 328 LINE",
"692 532 OFFCURVE",
"592 620 OFFCURVE",
"373 620 CURVE",
"149 620 OFFCURVE",
"30 482 OFFCURVE",
"30 298 CURVE",
"30 113 OFFCURVE",
"154 -20 OFFCURVE",
"364 -20 CURVE",
"508 -20 OFFCURVE",
"610 44 OFFCURVE",
"663 122 CURVE",
"663 141 OFFCURVE",
"651 164 OFFCURVE",
"635 175 CURVE",
"600 148 OFFCURVE",
"559 135 OFFCURVE",
"520 135 CURVE",
"405 135 OFFCURVE",
"295 245 OFFCURVE",
"295 438 CURVE",
"295 522 OFFCURVE",
"316 549 OFFCURVE",
"351 549 CURVE",
"374 549 OFFCURVE",
"395 536 OFFCURVE",
"395 474 CURVE",
"395 450 OFFCURVE",
"392 418 OFFCURVE",
"385 377 CURVE"
);
}
);
};
layerId = "ECDB5647-B0E5-4EC9-8212-026599F54A96";
name = "Bold Jul 9 16, 14:39";
paths = (
{
closed = 1;
nodes = (
"133 620 OFFCURVE",
"10 486 OFFCURVE",
"10 302 CURVE SMOOTH",
"10 117 OFFCURVE",
"131 -20 OFFCURVE",
"336 -20 CURVE SMOOTH",
"468 -20 OFFCURVE",
"561 44 OFFCURVE",
"611 122 CURVE",
"605 141 OFFCURVE",
"591 158 OFFCURVE",
"575 167 CURVE",
"544 140 OFFCURVE",
"501 109 OFFCURVE",
"442 109 CURVE SMOOTH",
"340 109 OFFCURVE",
"298 218 OFFCURVE",
"298 368 CURVE SMOOTH",
"298 520 OFFCURVE",
"329 557 OFFCURVE",
"357 557 CURVE SMOOTH",
"403 557 OFFCURVE",
"434 500 OFFCURVE",
"434 355 CURVE",
"519 358 OFFCURVE",
"599 419 OFFCURVE",
"623 486 CURVE",
"543 578 OFFCURVE",
"468 620 OFFCURVE",
"354 620 CURVE SMOOTH"
);
}
);
width = 630;
}
);
leftMetricsKey = o;
unicode = 0063;
},
{
glyphname = d;
lastChange = "2016-08-06 13:12:27 +0000";
layers = (
{
background = {
paths = (
{
closed = 1;
nodes = (
"518 -21 OFFCURVE",
"632 -18 OFFCURVE",
"720 13 CURVE",
"706 88 OFFCURVE",
"705 258 OFFCURVE",
"705 344 CURVE",
"705 470 OFFCURVE",
"707 609 OFFCURVE",
"710 737 CURVE",
"606 750 OFFCURVE",
"515 750 OFFCURVE",
"419 729 CURVE",
"413 556 OFFCURVE",
"414 130 OFFCURVE",
"420 0 CURVE"
);
},
{
closed = 1;
nodes = (
"415 591 OFFCURVE",
"349 620 OFFCURVE",
"275 620 CURVE SMOOTH",
"128 620 OFFCURVE",
"13 501 OFFCURVE",
"13 283 CURVE SMOOTH",
"13 89 OFFCURVE",
"104 -20 OFFCURVE",
"218 -20 CURVE SMOOTH",
"317 -20 OFFCURVE",
"418 65 OFFCURVE",
"426 164 CURVE",
"419 178 LINE",
"407 163 OFFCURVE",
"386 150 OFFCURVE",
"369 150 CURVE SMOOTH",
"334 150 OFFCURVE",
"302 207 OFFCURVE",
"302 315 CURVE SMOOTH",
"302 438 OFFCURVE",
"343 503 OFFCURVE",
"396 503 CURVE SMOOTH",
"411 503 OFFCURVE",
"427 498 OFFCURVE",
"443 489 CURVE",
"471 536 LINE"
);
}
);
};
components = (
{
name = brzuszek;
transform = "{1, 0, 0, 1, 3, 0}";
}
);
layerId = "15808E89-C4EA-4701-A327-0721774450FF";
paths = (
{
closed = 1;
nodes = (
"518 -21 OFFCURVE",
"632 -18 OFFCURVE",
"720 13 CURVE",
"706 88 OFFCURVE",
"705 258 OFFCURVE",
"705 344 CURVE SMOOTH",
"705 470 OFFCURVE",
"707 609 OFFCURVE",
"710 737 CURVE",
"606 750 OFFCURVE",
"515 750 OFFCURVE",
"419 729 CURVE",
"413 556 OFFCURVE",
"414 130 OFFCURVE",
"420 0 CURVE"
);
}
);
width = 741;
}
);
leftMetricsKey = o;
unicode = 0064;
},
{
glyphname = e;
lastChange = "2016-08-06 13:12:27 +0000";
layers = (
{
background = {
paths = (
{
closed = 1;
nodes = (
"155 620 OFFCURVE",
"39 482 OFFCURVE",
"39 298 CURVE SMOOTH",
"39 113 OFFCURVE",
"153 -20 OFFCURVE",
"345 -20 CURVE SMOOTH",
"477 -20 OFFCURVE",
"570 44 OFFCURVE",
"620 122 CURVE",
"614 141 OFFCURVE",
"600 158 OFFCURVE",
"584 167 CURVE",
"553 140 OFFCURVE",
"510 109 OFFCURVE",
"451 109 CURVE SMOOTH",
"337 109 OFFCURVE",
"289 222 OFFCURVE",
"289 378 CURVE SMOOTH",
"289 522 OFFCURVE",
"329 557 OFFCURVE",
"366 557 CURVE SMOOTH",
"412 557 OFFCURVE",
"443 500 OFFCURVE",
"443 355 CURVE",
"528 358 OFFCURVE",
"608 419 OFFCURVE",
"632 486 CURVE",
"552 578 OFFCURVE",
"477 620 OFFCURVE",
"363 620 CURVE SMOOTH"
);
}
);
};
layerId = "15808E89-C4EA-4701-A327-0721774450FF";
paths = (
{
closed = 1;
nodes = (
"136 317 LINE",
"624 317 LINE",
"624 385 LINE",
"136 385 LINE"
);
},
{
closed = 1;
nodes = (
"303 510 OFFCURVE",
"317 544 OFFCURVE",
"346 544 CURVE SMOOTH",
"370 544 OFFCURVE",
"400 525 OFFCURVE",
"382 371 CURVE",
"624 317 LINE",
"652 517 OFFCURVE",
"549 620 OFFCURVE",
"351 620 CURVE SMOOTH",
"124 620 OFFCURVE",
"15 482 OFFCURVE",
"15 303 CURVE SMOOTH",
"15 113 OFFCURVE",
"139 -20 OFFCURVE",
"349 -20 CURVE SMOOTH",
"486 -20 OFFCURVE",
"581 40 OFFCURVE",
"633 108 CURVE",
"628 129 OFFCURVE",
"613 149 OFFCURVE",
"596 160 CURVE",
"553 129 OFFCURVE",
"501 109 OFFCURVE",
"453 109 CURVE SMOOTH",
"353 109 OFFCURVE",
"303 198 OFFCURVE",
"303 368 CURVE SMOOTH"
);
}
);
width = 643;
},
{
associatedMasterId = "15808E89-C4EA-4701-A327-0721774450FF";
background = {
paths = (
{
closed = 1;
nodes = (
"698 498 OFFCURVE",
"589 620 OFFCURVE",
"359 620 CURVE SMOOTH",
"109 620 OFFCURVE",
"10 481 OFFCURVE",
"10 297 CURVE SMOOTH",
"10 101 OFFCURVE",
"119 -20 OFFCURVE",
"349 -20 CURVE SMOOTH",
"598 -20 OFFCURVE",
"698 119 OFFCURVE",
"698 302 CURVE SMOOTH"
);
},
{
closed = 1;
nodes = (
"304 510 OFFCURVE",
"319 545 OFFCURVE",
"352 545 CURVE SMOOTH",
"389 545 OFFCURVE",
"404 510 OFFCURVE",
"404 297 CURVE SMOOTH",
"404 90 OFFCURVE",
"389 55 OFFCURVE",
"356 55 CURVE SMOOTH",
"319 55 OFFCURVE",
"304 90 OFFCURVE",
"304 303 CURVE SMOOTH"
);
}
);
};
guideLines = (
{
angle = 33.7772;
position = "{41, 91}";
showMeasurement = 1;
}
);
layerId = "D83BFC44-C197-4926-BDEE-7AF99E9430F1";
name = "Bold Jun 18 16, 09:14";
paths = (
{
closed = 1;
nodes = (
"107 328 LINE",
"593 328 LINE",
"593 396 LINE",
"107 396 LINE"
);
},
{
closed = 1;
nodes = (
"593 328 LINE",
"620 532 OFFCURVE",
"500 620 OFFCURVE",
"333 620 CURVE SMOOTH",
"122 620 OFFCURVE",
"10 482 OFFCURVE",
"10 298 CURVE SMOOTH",
"10 113 OFFCURVE",
"127 -20 OFFCURVE",
"325 -20 CURVE SMOOTH",
"461 -20 OFFCURVE",
"557 44 OFFCURVE",
"607 122 CURVE",
"607 141 OFFCURVE",
"595 164 OFFCURVE",
"580 175 CURVE",
"547 148 OFFCURVE",
"509 135 OFFCURVE",
"469 135 CURVE SMOOTH",
"352 135 OFFCURVE",
"260 247 OFFCURVE",
"260 436 CURVE SMOOTH",
"260 533 OFFCURVE",
"280 564 OFFCURVE",
"313 564 CURVE SMOOTH",
"350 564 OFFCURVE",
"366 523 OFFCURVE",
"353 375 CURVE"
);
}
);
width = 611;
},
{
associatedMasterId = "15808E89-C4EA-4701-A327-0721774450FF";
background = {
paths = (
{
closed = 1;
nodes = (
"150 620 OFFCURVE",
"34 482 OFFCURVE",
"34 298 CURVE SMOOTH",
"34 113 OFFCURVE",
"148 -20 OFFCURVE",
"340 -20 CURVE SMOOTH",
"472 -20 OFFCURVE",
"565 44 OFFCURVE",
"615 122 CURVE",
"609 141 OFFCURVE",
"595 158 OFFCURVE",
"579 167 CURVE",
"548 140 OFFCURVE",
"505 109 OFFCURVE",
"446 109 CURVE SMOOTH",
"332 109 OFFCURVE",
"284 222 OFFCURVE",
"284 378 CURVE SMOOTH",
"284 522 OFFCURVE",
"324 557 OFFCURVE",
"361 557 CURVE SMOOTH",
"407 557 OFFCURVE",
"438 500 OFFCURVE",
"438 355 CURVE",
"523 358 OFFCURVE",
"603 419 OFFCURVE",
"627 486 CURVE",
"547 578 OFFCURVE",
"472 620 OFFCURVE",
"358 620 CURVE SMOOTH"
);
}
);
};
guideLines = (
{
angle = 33.7772;
position = "{65, 91}";
showMeasurement = 1;
}
);
layerId = "CCB5D130-238C-436A-9592-9B3FE7FB7399";
name = "Bold Jul 8 16, 16:47";
paths = (
{
closed = 1;
nodes = (
"131 308 LINE",
"621 329 LINE",
"613 397 LINE",
"131 376 LINE"
);
},
{
closed = 1;
nodes = (
"367 109 OFFCURVE",
"285 208 OFFCURVE",
"285 455 CURVE SMOOTH",
"285 514 OFFCURVE",
"297 557 OFFCURVE",
"332 557 CURVE SMOOTH",
"365 557 OFFCURVE",
"378 520 OFFCURVE",
"384 374 CURVE",
"621 329 LINE",
"642 529 OFFCURVE",
"540 620 OFFCURVE",
"345 620 CURVE SMOOTH",
"119 620 OFFCURVE",
"10 482 OFFCURVE",
"10 303 CURVE SMOOTH",
"10 113 OFFCURVE",
"134 -20 OFFCURVE",
"338.288 -20 CURVE SMOOTH",
"480 -20 OFFCURVE",
"575 44 OFFCURVE",
"626 122 CURVE",
"619.078 139.674 OFFCURVE",
"602.928 155.488 OFFCURVE",
"584.47 163.861 CURVE",
"557.739 133.593 OFFCURVE",
"517.643 109 OFFCURVE",
"468 109 CURVE SMOOTH"
);
}
);
width = 635;
}
);
leftMetricsKey = o;
unicode = 0065;
},
{
glyphname = f;
lastChange = "2016-08-06 13:12:27 +0000";
layers = (
{
background = {
paths = (
{
closed = 1;
nodes = (
"585 862 OFFCURVE",
"502 864 OFFCURVE",
"394 820 CURVE",
"145 820 OFFCURVE",
"46 681 OFFCURVE",
"46 497 CURVE SMOOTH",
"45 291 OFFCURVE",
"47 95 OFFCURVE",
"51 0 CURVE",
"148 -20 OFFCURVE",
"253 -13 OFFCURVE",
"341 11 CURVE",
"337 102 OFFCURVE",
"336 297 OFFCURVE",
"337 503 CURVE SMOOTH",
"338 674 OFFCURVE",
"348 730 OFFCURVE",
"370 745 CURVE",
"390 732 OFFCURVE",
"409 715 OFFCURVE",
"424 697 CURVE SMOOTH",
"447 669 OFFCURVE",
"462 638 OFFCURVE",
"468 611 CURVE",
"524 624 OFFCURVE",
"624 693 OFFCURVE",
"653 749 CURVE",
"650 772 OFFCURVE",
"643 793 OFFCURVE",
"628 811 CURVE SMOOTH"
);
}
);
};
guideLines = (
{
position = "{206, 746}";
}
);
layerId = "15808E89-C4EA-4701-A327-0721774450FF";
paths = (
{
closed = 1;
nodes = (
"232 766 OFFCURVE",
"76 650 OFFCURVE",
"76 475 CURVE SMOOTH",
"76 311 OFFCURVE",
"77 101 OFFCURVE",
"81 0 CURVE",
"178 -20 OFFCURVE",
"283 -13 OFFCURVE",
"371 11 CURVE",
"367 93 OFFCURVE",
"366 269 OFFCURVE",
"367 500 CURVE SMOOTH",
"368 663 OFFCURVE",
"391 697 OFFCURVE",
"416 697 CURVE SMOOTH",
"444 697 OFFCURVE",
"477 649 OFFCURVE",
"498 526 CURVE",
"554 533 OFFCURVE",
"665 591 OFFCURVE",
"665 664 CURVE",
"665 750 OFFCURVE",
"508 766 OFFCURVE",
"451 766 CURVE SMOOTH"
);
},
{
closed = 1;
nodes = (
"156 409 OFFCURVE",
"323 421 OFFCURVE",
"517 413 CURVE",
"525 442 OFFCURVE",
"524 469 OFFCURVE",
"517 495 CURVE",
"322 488 OFFCURVE",
"151 491 OFFCURVE",
"12 478 CURVE",
"8 449 OFFCURVE",
"10 422 OFFCURVE",
"20 397 CURVE"
);
}
);
width = 522;
},
{
associatedMasterId = "15808E89-C4EA-4701-A327-0721774450FF";
background = {
paths = (
{
closed = 1;
nodes = (
"580 862 OFFCURVE",
"497 864 OFFCURVE",
"389 820 CURVE",
"140 820 OFFCURVE",
"41 681 OFFCURVE",
"41 497 CURVE SMOOTH",
"40 291 OFFCURVE",
"42 95 OFFCURVE",
"46 0 CURVE",
"143 -20 OFFCURVE",
"248 -13 OFFCURVE",
"336 11 CURVE",
"332 102 OFFCURVE",
"331 297 OFFCURVE",
"332 503 CURVE SMOOTH",
"333 674 OFFCURVE",
"343 730 OFFCURVE",
"365 745 CURVE",
"385 732 OFFCURVE",
"404 715 OFFCURVE",
"419 697 CURVE SMOOTH",
"442 669 OFFCURVE",
"457 638 OFFCURVE",
"463 611 CURVE",
"519 624 OFFCURVE",
"619 693 OFFCURVE",
"648 749 CURVE",
"645 772 OFFCURVE",
"638 793 OFFCURVE",
"623 811 CURVE SMOOTH"
);
}
);
};
layerId = "4ABFDCC2-D29C-47C4-86D2-23594859E38E";
name = "Bold May 14 16, 18:56";
paths = (
{
closed = 1;
nodes = (
"321 442 OFFCURVE",
"150 443 OFFCURVE",
"-15 422 CURVE",
"-21 402 OFFCURVE",
"-17 379 OFFCURVE",
"-12 370 CURVE",
"160 350 OFFCURVE",
"346 357 OFFCURVE",
"502 381 CURVE",
"507 389 OFFCURVE",
"507 414 OFFCURVE",
"500 430 CURVE"
);
},
{
closed = 1;
nodes = (
"592 831 OFFCURVE",
"523 831 CURVE SMOOTH",
"260 831 OFFCURVE",
"42 680 OFFCURVE",
"41 445 CURVE SMOOTH",
"40 291 OFFCURVE",
"42 95 OFFCURVE",
"46 0 CURVE",
"143 -20 OFFCURVE",
"248 -13 OFFCURVE",
"336 11 CURVE",
"332 102 OFFCURVE",
"331 297 OFFCURVE",
"332 503 CURVE SMOOTH",
"333 660 OFFCURVE",
"343 725 OFFCURVE",
"365 725 CURVE",
"392 725 OFFCURVE",
"451 643 OFFCURVE",
"463 591 CURVE",
"519 604 OFFCURVE",
"619 673 OFFCURVE",
"648 729 CURVE",
"639 797 OFFCURVE"
);
}
);
width = 600;
}
);
unicode = 0066;
},
{
glyphname = g;
lastChange = "2016-08-06 13:12:27 +0000";
layers = (
{
background = {
paths = (
{
closed = 1;
nodes = (
"499 543 OFFCURVE",
"751 503 OFFCURVE",
"751 616 CURVE SMOOTH",
"751 667 OFFCURVE",
"701 731 OFFCURVE",
"636 748 CURVE",
"601 667 OFFCURVE",
"515 620 OFFCURVE",
"349 620 CURVE",
"375 600 LINE"
);
},
{
closed = 1;
nodes = (
"684 58 OFFCURVE",
"567 82 OFFCURVE",
"448 82 CURVE SMOOTH",
"328 82 OFFCURVE",
"208 56 OFFCURVE",
"208 97 CURVE SMOOTH",
"208 111 OFFCURVE",
"223 129 OFFCURVE",
"257 141 CURVE",
"207 165 LINE",
"111 131 OFFCURVE",
"46 66 OFFCURVE",
"46 -28 CURVE SMOOTH",
"46 -146 OFFCURVE",
"153 -194 OFFCURVE",
"357 -194 CURVE SMOOTH",
"457 -194 OFFCURVE",
"584 -183 OFFCURVE",
"636 -211 CURVE",
"667 -172 OFFCURVE",
"684 -126 OFFCURVE",
"684 -74 CURVE SMOOTH"
);
},
{
closed = 1;
nodes = (
"658 461 OFFCURVE",
"618 528 OFFCURVE",
"536 567 CURVE",
"349 620 LINE",
"120 620 OFFCURVE",
"30 511 OFFCURVE",
"30 367 CURVE SMOOTH",
"30 214 OFFCURVE",
"129 120 OFFCURVE",
"339 120 CURVE SMOOTH",
"567 120 OFFCURVE",
"658 229 OFFCURVE",
"658 372 CURVE SMOOTH"
);
},
{
closed = 1;
nodes = (
"400 253 OFFCURVE",
"386 181 OFFCURVE",
"354 181 CURVE SMOOTH",
"319 181 OFFCURVE",
"288 260 OFFCURVE",
"288 407 CURVE SMOOTH",
"288 488 OFFCURVE",
"302 560 OFFCURVE",
"334 560 CURVE SMOOTH",
"369 560 OFFCURVE",
"400 481 OFFCURVE",
"400 334 CURVE SMOOTH"
);
}
);
};
layerId = "15808E89-C4EA-4701-A327-0721774450FF";
paths = (
{
closed = 1;
nodes = (
"509 543 OFFCURVE",
"761 503 OFFCURVE",
"761 616 CURVE SMOOTH",
"761 667 OFFCURVE",
"711 731 OFFCURVE",
"646 748 CURVE",
"611 667 OFFCURVE",
"525 620 OFFCURVE",
"359 620 CURVE",
"385 600 LINE"
);
},
{
closed = 1;
nodes = (
"328 86 OFFCURVE",
"208 56 OFFCURVE",
"208 97 CURVE SMOOTH",
"208 111 OFFCURVE",
"223 129 OFFCURVE",
"257 141 CURVE",
"207 165 LINE",
"111 131 OFFCURVE",
"42 68 OFFCURVE",
"42 -28 CURVE SMOOTH",
"42 -129 OFFCURVE",
"118 -194 OFFCURVE",
"357 -194 CURVE SMOOTH",
"457 -194 OFFCURVE",
"584 -183 OFFCURVE",
"636 -211 CURVE",
"676 -175 OFFCURVE",
"702 -119 OFFCURVE",
"702 -65 CURVE SMOOTH",
"702 34 OFFCURVE",
"612 86 OFFCURVE",
"446 86 CURVE SMOOTH"
);
},
{
closed = 1;
nodes = (
"668 461 OFFCURVE",
"628 528 OFFCURVE",
"546 567 CURVE",
"359 620 LINE",
"130 620 OFFCURVE",
"40 511 OFFCURVE",
"40 367 CURVE SMOOTH",
"40 214 OFFCURVE",
"139 120 OFFCURVE",
"349 120 CURVE SMOOTH",
"577 120 OFFCURVE",
"668 229 OFFCURVE",
"668 372 CURVE SMOOTH"
);
},
{
closed = 1;
nodes = (
"410 255 OFFCURVE",
"396 190 OFFCURVE",
"364 190 CURVE SMOOTH",
"329 190 OFFCURVE",
"298 262 OFFCURVE",
"298 407 CURVE SMOOTH",
"298 486 OFFCURVE",
"312 550 OFFCURVE",
"344 550 CURVE SMOOTH",
"379 550 OFFCURVE",
"410 479 OFFCURVE",
"410 334 CURVE SMOOTH"
);
}
);
width = 722;
},
{
associatedMasterId = "15808E89-C4EA-4701-A327-0721774450FF";
background = {
paths = (
{
closed = 1;
nodes = (
"610 602 OFFCURVE",
"523 601 OFFCURVE",
"450 589 CURVE",
"413 555 OFFCURVE",
"403 493 OFFCURVE",
"403 248 CURVE SMOOTH",
"403 59 OFFCURVE",
"405 -111 OFFCURVE",
"408 -200 CURVE",
"505 -220 OFFCURVE",
"610 -213 OFFCURVE",
"708 -187 CURVE",
"692 -54 OFFCURVE",
"691 320 OFFCURVE",
"696 590 CURVE"
);
},
{
closed = 1;
nodes = (
"417 574 OFFCURVE",
"349 620 OFFCURVE",
"267 620 CURVE",
"108 620 OFFCURVE",
"10 495 OFFCURVE",
"10 290 CURVE SMOOTH",
"10 98 OFFCURVE",
"88 -20 OFFCURVE",
"216 -20 CURVE",
"317 -20 OFFCURVE",
"399 54 OFFCURVE",
"416 163 CURVE",
"404 181 LINE",
"394 163 OFFCURVE",
"374 150 OFFCURVE",
"353 150 CURVE",
"319 150 OFFCURVE",
"304 197 OFFCURVE",
"304 312 CURVE SMOOTH",
"304 431 OFFCURVE",
"330 495 OFFCURVE",
"377 495 CURVE",
"393 495 OFFCURVE",
"410 487 OFFCURVE",
"423 472 CURVE",
"447 502 LINE"
);
}
);
};
guideLines = (
{
angle = 90;
position = "{403, 212}";
}
);
layerId = "B92161A2-1EC7-43A6-95B5-FBA5A9CD191E";
name = "Bold May 18 16, 12:09";
paths = (
{
closed = 1;
nodes = (
"417 574 OFFCURVE",
"349 620 OFFCURVE",
"267 620 CURVE",
"108 620 OFFCURVE",
"10 501 OFFCURVE",
"10 305 CURVE",
"10 122 OFFCURVE",
"88 10 OFFCURVE",
"216 10 CURVE",
"317 10 OFFCURVE",
"399 84 OFFCURVE",
"416 193 CURVE",
"404 211 LINE",
"394 193 OFFCURVE",
"374 180 OFFCURVE",
"353 180 CURVE",
"319 180 OFFCURVE",
"304 223 OFFCURVE",
"304 328 CURVE",
"304 437 OFFCURVE",
"330 495 OFFCURVE",
"377 495 CURVE",
"393 495 OFFCURVE",
"410 487 OFFCURVE",
"423 472 CURVE",
"447 502 LINE"
);
},
{
closed = 1;
nodes = (
"403 -29 LINE SMOOTH",
"403 -86 OFFCURVE",
"375 -112 OFFCURVE",
"320 -112 CURVE SMOOTH",
"256 -112 OFFCURVE",
"195 -75 OFFCURVE",
"143 -7 CURVE",
"87 -37 OFFCURVE",
"49 -123 OFFCURVE",
"61 -189 CURVE",
"147 -207 OFFCURVE",
"242 -220 OFFCURVE",
"336 -220 CURVE SMOOTH",
"559 -220 OFFCURVE",
"692 -111 OFFCURVE",
"692 74 CURVE SMOOTH",
"692 229 OFFCURVE",
"693 428 OFFCURVE",
"696 590 CURVE",
"610 602.588 OFFCURVE",
"523 601.539 OFFCURVE",
"450 588.951 CURVE",
"413 553.285 OFFCURVE",
"403 488.246 OFFCURVE",
"403 257 CURVE SMOOTH"
);
}
);
width = 729;
},
{
associatedMasterId = "15808E89-C4EA-4701-A327-0721774450FF";
background = {
paths = (
{
closed = 1;
nodes = (
"610 602 OFFCURVE",
"523 601 OFFCURVE",
"450 589 CURVE",
"413 555 OFFCURVE",
"403 493 OFFCURVE",
"403 248 CURVE SMOOTH",
"403 59 OFFCURVE",
"405 -111 OFFCURVE",
"408 -200 CURVE",
"505 -220 OFFCURVE",
"610 -213 OFFCURVE",
"708 -187 CURVE",
"692 -54 OFFCURVE",
"691 320 OFFCURVE",
"696 590 CURVE"
);
},
{
closed = 1;
nodes = (
"417 574 OFFCURVE",
"349 620 OFFCURVE",
"267 620 CURVE",
"108 620 OFFCURVE",
"10 495 OFFCURVE",
"10 290 CURVE SMOOTH",
"10 98 OFFCURVE",
"88 -20 OFFCURVE",
"216 -20 CURVE",
"317 -20 OFFCURVE",
"399 54 OFFCURVE",
"416 163 CURVE",
"404 181 LINE",
"394 163 OFFCURVE",
"374 150 OFFCURVE",
"353 150 CURVE",
"319 150 OFFCURVE",
"304 197 OFFCURVE",
"304 312 CURVE SMOOTH",
"304 431 OFFCURVE",
"330 495 OFFCURVE",
"377 495 CURVE",
"393 495 OFFCURVE",
"410 487 OFFCURVE",
"423 472 CURVE",
"447 502 LINE"
);
}
);
};
guideLines = (
{
angle = 90;
position = "{403, 212}";
}
);
layerId = "26F44398-0069-4BF7-9635-7E6328FEE7FB";
name = elementy;
paths = (
{
closed = 1;
nodes = (
"580 189 OFFCURVE",
"673 283 OFFCURVE",
"673 406 CURVE SMOOTH",
"673 538 OFFCURVE",
"614 620 OFFCURVE",
"358 620 CURVE SMOOTH",
"127 620 OFFCURVE",
"35 527 OFFCURVE",
"35 403 CURVE SMOOTH",
"35 271 OFFCURVE",
"136 189 OFFCURVE",
"350 189 CURVE SMOOTH"
);
},
{
closed = 1;
nodes = (
"304 524 OFFCURVE",
"319 544 OFFCURVE",
"352 544 CURVE SMOOTH",
"389 544 OFFCURVE",
"404 524 OFFCURVE",
"404 403 CURVE SMOOTH",
"404 285 OFFCURVE",
"389 265 OFFCURVE",
"356 265 CURVE SMOOTH",
"319 265 OFFCURVE",
"304 285 OFFCURVE",
"304 407 CURVE SMOOTH"
);
},
{
closed = 1;
nodes = (
"105 -115 LINE",
"605 -115 LINE",
"605 135 LINE",
"105 135 LINE"
);
},
{
closed = 1;
nodes = (
"105 -115 LINE",
"605 -115 LINE",
"605 135 LINE",
"105 135 LINE"
);
},
{
closed = 1;
nodes = (
"442.691 585.176 OFFCURVE",
"562.696 548.545 OFFCURVE",
"660.805 548.545 CURVE SMOOTH",
"762 549 OFFCURVE",
"828 586 OFFCURVE",
"828 657 CURVE SMOOTH",
"828 718 OFFCURVE",
"779 765 OFFCURVE",
"718.235 764.518 CURVE",
"662 645 OFFCURVE",
"487.309 620 OFFCURVE",
"360 620 CURVE",
"389.504 602.709 LINE"
);
}
);
width = 729;
},
{
associatedMasterId = "15808E89-C4EA-4701-A327-0721774450FF";
background = {
paths = (
{
closed = 1;
nodes = (
"105 -95 LINE",
"714 -95 LINE",
"714 155 LINE",
"105 155 LINE"
);
}
);
};
guideLines = (
{
position = "{-1, -220}";
},
{
locked = 1;
position = "{475, 145}";
}
);
layerId = "8C31EFE6-55C7-4FD0-A1AF-DA23E0B39E0F";
name = "Bold May 18 16, 12:27";
paths = (
{
closed = 1;
nodes = (
"304 524 OFFCURVE",
"319 544 OFFCURVE",
"352 544 CURVE SMOOTH",
"389 544 OFFCURVE",
"404 524 OFFCURVE",
"404 403 CURVE SMOOTH",
"404 285 OFFCURVE",
"389 265 OFFCURVE",
"356 265 CURVE SMOOTH",
"319 265 OFFCURVE",
"304 285 OFFCURVE",
"304 407 CURVE SMOOTH"
);
},
{
closed = 1;
nodes = (
"722 265 OFFCURVE",
"279 81 OFFCURVE",
"279 178 CURVE SMOOTH",
"279 191 OFFCURVE",
"293 208 OFFCURVE",
"319 228 CURVE",
"271 255 LINE",
"182 210 OFFCURVE",
"136 138 OFFCURVE",
"136 69 CURVE SMOOTH",
"136 -105 OFFCURVE",
"342 -95 OFFCURVE",
"475 -95 CURVE SMOOTH",
"540 -95 OFFCURVE",
"587 -97 OFFCURVE",
"587 -117 CURVE SMOOTH",
"587 -138 OFFCURVE",
"534 -146 OFFCURVE",
"430 -146 CURVE",
"312 -84 LINE",
"291 -71 LINE",
"309 -220 LINE",
"557 -220 OFFCURVE",
"722 -185 OFFCURVE",
"722 -32 CURVE SMOOTH"
);
},
{
closed = 1;
nodes = (
"580 189 OFFCURVE",
"673 283 OFFCURVE",
"673 406 CURVE",
"673 479 OFFCURVE",
"640 548 OFFCURVE",
"562 580 CURVE",
"358 620 LINE",
"127 620 OFFCURVE",
"35 527 OFFCURVE",
"35 403 CURVE",
"35 271 OFFCURVE",
"136 189 OFFCURVE",
"350 189 CURVE"
);
},
{
closed = 1;
nodes = (
"446 579 OFFCURVE",
"557 549 OFFCURVE",
"654 549 CURVE SMOOTH",
"762 549 OFFCURVE",
"828 593 OFFCURVE",
"828 664 CURVE SMOOTH",
"828 725 OFFCURVE",
"779 765 OFFCURVE",
"718 765 CURVE",
"675 673 OFFCURVE",
"567 620 OFFCURVE",
"360 620 CURVE",
"390 603 LINE"
);
}
);
width = 729;
},
{
associatedMasterId = "15808E89-C4EA-4701-A327-0721774450FF";
background = {
paths = (
{
closed = 1;
nodes = (
"282 524 OFFCURVE",
"297 544 OFFCURVE",
"330 544 CURVE SMOOTH",
"367 544 OFFCURVE",
"382 524 OFFCURVE",
"382 403 CURVE SMOOTH",
"382 285 OFFCURVE",
"367 265 OFFCURVE",
"334 265 CURVE SMOOTH",
"297 265 OFFCURVE",
"282 285 OFFCURVE",
"282 407 CURVE SMOOTH"
);
},
{
closed = 1;
nodes = (
"544 189 OFFCURVE",
"631 283 OFFCURVE",
"631 406 CURVE SMOOTH",
"631 487 OFFCURVE",
"592 552 OFFCURVE",
"539 596 CURVE",
"325 620 LINE",
"116 620 OFFCURVE",
"33 527 OFFCURVE",
"33 403 CURVE SMOOTH",
"33 271 OFFCURVE",
"128 189 OFFCURVE",
"328 189 CURVE SMOOTH"
);
}
);
};
guideLines = (
{
position = "{-1, -220}";
},
{
position = "{475, 167}";
},
{
position = "{376, -67}";
}
);
layerId = "E363D422-3BF7-4761-84EB-60A6858808EE";
name = "Bold May 18 16, 12:42";
paths = (
{
closed = 1;
nodes = (
"672 299 OFFCURVE",
"239 112 OFFCURVE",
"239 191 CURVE SMOOTH",
"239 206 OFFCURVE",
"252 220 OFFCURVE",
"279 228 CURVE",
"231 255 LINE",
"140 218 OFFCURVE",
"96 151 OFFCURVE",
"96 72 CURVE SMOOTH",
"96 -186 OFFCURVE",
"524 -20 OFFCURVE",
"524 -89 CURVE SMOOTH",
"524 -118 OFFCURVE",
"475 -163 OFFCURVE",
"358 -163 CURVE SMOOTH",
"272 -163 OFFCURVE",
"228 -132 OFFCURVE",
"228 -83 CURVE SMOOTH",
"228 -62 OFFCURVE",
"243 -41 OFFCURVE",
"282 -22 CURVE",
"211 -35 LINE",
"-32 -71 OFFCURVE",
"28 -255 OFFCURVE",
"299 -255 CURVE SMOOTH",
"545 -255 OFFCURVE",
"672 -123 OFFCURVE",
"672 18 CURVE SMOOTH"
);
},
{
closed = 1;
nodes = (
"551 579 LINE",
"632 544 OFFCURVE",
"780 554 OFFCURVE",
"780 657 CURVE SMOOTH",
"780 713 OFFCURVE",
"736 748 OFFCURVE",
"683 748 CURVE",
"644 667 OFFCURVE",
"549 620 OFFCURVE",
"355 620 CURVE"
);
},
{
closed = 1;
nodes = (
"557 209 OFFCURVE",
"643 299 OFFCURVE",
"643 416 CURVE",
"643 542 OFFCURVE",
"589 620 OFFCURVE",
"353 620 CURVE",
"140 620 OFFCURVE",
"55 531 OFFCURVE",
"55 413 CURVE",
"55 287 OFFCURVE",
"148 209 OFFCURVE",
"345 209 CURVE"
);
},
{
closed = 1;
nodes = (
"304 525 OFFCURVE",
"318 544 OFFCURVE",
"347 544 CURVE",
"381 544 OFFCURVE",
"394 525 OFFCURVE",
"394 413 CURVE",
"394 304 OFFCURVE",
"381 285 OFFCURVE",
"351 285 CURVE",
"318 285 OFFCURVE",
"304 304 OFFCURVE",
"304 417 CURVE"
);
}
);
width = 729;
},
{
associatedMasterId = "15808E89-C4EA-4701-A327-0721774450FF";
background = {
paths = (
{
closed = 1;
nodes = (
"435 583 OFFCURVE",
"532 558 OFFCURVE",
"619 558 CURVE",
"714 558 OFFCURVE",
"772 596 OFFCURVE",
"772 659 CURVE",
"772 713 OFFCURVE",
"728 748 OFFCURVE",
"675 748 CURVE",
"636 667 OFFCURVE",
"541 620 OFFCURVE",
"358 620 CURVE",
"385 605 LINE"
);
}
);
};
guideLines = (
{
position = "{-1, -220}";
},
{
position = "{475, 167}";
},
{
position = "{376, -67}";
}
);
layerId = "2CDA8FD1-EE02-40B7-BE4F-55EAD72F32AF";
name = "Bold May 18 16, 12:50";
paths = (
{
closed = 1;
nodes = (
"672 219 OFFCURVE",
"219 50 OFFCURVE",
"219 125 CURVE SMOOTH",
"219 136 OFFCURVE",
"233 151 OFFCURVE",
"259 168 CURVE",
"211 195 LINE",
"122 152 OFFCURVE",
"76 82 OFFCURVE",
"76 16 CURVE SMOOTH",
"76 -252 OFFCURVE",
"517 -94 OFFCURVE",
"517 -167 CURVE",
"517 -188 OFFCURVE",
"672 -188 OFFCURVE",
"672 -42 CURVE SMOOTH"
);
},
{
closed = 1;
nodes = (
"304 521 OFFCURVE",
"319 544 OFFCURVE",
"352 544 CURVE SMOOTH",
"389 544 OFFCURVE",
"404 521 OFFCURVE",
"404 383 CURVE SMOOTH",
"404 248 OFFCURVE",
"389 225 OFFCURVE",
"356 225 CURVE SMOOTH",
"319 225 OFFCURVE",
"304 248 OFFCURVE",
"304 387 CURVE SMOOTH"
);
},
{
closed = 1;
nodes = (
"127 620 OFFCURVE",
"35 518 OFFCURVE",
"35 383 CURVE SMOOTH",
"35 239 OFFCURVE",
"136 149 OFFCURVE",
"350 149 CURVE SMOOTH",
"580 149 OFFCURVE",
"673 251.993 OFFCURVE",
"673 386 CURVE SMOOTH",
"673 475 OFFCURVE",
"631 544 OFFCURVE",
"553 583 CURVE",
"358 620 LINE"
);
},
{
closed = 1;
nodes = (
"435 583 OFFCURVE",
"532 558 OFFCURVE",
"619 558 CURVE SMOOTH",
"714 558 OFFCURVE",
"772 596 OFFCURVE",
"772 659 CURVE SMOOTH",
"772 713 OFFCURVE",
"728 748 OFFCURVE",
"675 748 CURVE",
"636 667 OFFCURVE",
"541 620 OFFCURVE",
"358 620 CURVE",
"385 605 LINE"
);
}
);
width = 729;
},
{
associatedMasterId = "15808E89-C4EA-4701-A327-0721774450FF";
background = {
paths = (
{
closed = 1;
nodes = (
"666 58 OFFCURVE",
"555 82 OFFCURVE",
"442 82 CURVE SMOOTH",
"325 82 OFFCURVE",
"206 57 OFFCURVE",
"206 95 CURVE SMOOTH",
"206 106 OFFCURVE",
"220 121 OFFCURVE",
"246 138 CURVE",
"198 165 LINE",
"109 121 OFFCURVE",
"63 49 OFFCURVE",
"63 -19 CURVE SMOOTH",
"63 -170 OFFCURVE",
"195 -190 OFFCURVE",
"333 -190 CURVE SMOOTH",
"449 -190 OFFCURVE",
"568 -176 OFFCURVE",
"618 -211 CURVE",
"649 -172 OFFCURVE",
"666 -126 OFFCURVE",
"666 -74 CURVE SMOOTH"
);
},
{
closed = 1;
nodes = (
"296 519 OFFCURVE",
"311 544 OFFCURVE",
"344 544 CURVE SMOOTH",
"381 544 OFFCURVE",
"396 519 OFFCURVE",
"396 367 CURVE SMOOTH",
"396 218 OFFCURVE",
"381 193 OFFCURVE",
"348 193 CURVE SMOOTH",
"311 193 OFFCURVE",
"296 218 OFFCURVE",
"296 371 CURVE SMOOTH"
);
},
{
closed = 1;
nodes = (
"123 620 OFFCURVE",
"32 511 OFFCURVE",
"32 367 CURVE SMOOTH",
"32 213 OFFCURVE",
"131 117 OFFCURVE",
"342 117 CURVE SMOOTH",
"568 117 OFFCURVE",
"660 227 OFFCURVE",
"660 370 CURVE SMOOTH",
"660 459 OFFCURVE",
"620 528 OFFCURVE",
"545 567 CURVE",
"350 620 LINE"
);
},
{
closed = 1;
nodes = (
"500 543 OFFCURVE",
"665 517 OFFCURVE",
"752 568 CURVE",
"752 668 OFFCURVE",
"702 731 OFFCURVE",
"637 748 CURVE",
"602 667 OFFCURVE",
"516 620 OFFCURVE",
"350 620 CURVE",
"376 600 LINE"
);
}
);
};
guideLines = (
{
position = "{623, -151}";
},
{
position = "{467, 167}";
},
{
position = "{368, -67}";
}
);
layerId = "589F76A7-1F4E-4BFD-9AE4-AEFE13AB29B8";
name = "Bold Jun 18 16, 09:59";
paths = (
{
closed = 1;
nodes = (
"666 58 OFFCURVE",
"555 82 OFFCURVE",
"442 82 CURVE SMOOTH",
"329 82 OFFCURVE",
"215 57 OFFCURVE",
"215 95 CURVE SMOOTH",
"215 108 OFFCURVE",
"229 127 OFFCURVE",
"254 141 CURVE",
"198 165 LINE",
"109 121 OFFCURVE",
"63 59 OFFCURVE",
"63 -26 CURVE SMOOTH",
"63 -170 OFFCURVE",
"195 -190 OFFCURVE",
"333 -190 CURVE SMOOTH",
"449 -190 OFFCURVE",
"568 -176 OFFCURVE",
"618 -211 CURVE",
"649 -172 OFFCURVE",
"666 -126 OFFCURVE",
"666 -74 CURVE SMOOTH"
);
},
{
closed = 1;
nodes = (
"296 513 OFFCURVE",
"311 549 OFFCURVE",
"344 549 CURVE SMOOTH",
"381 549 OFFCURVE",
"396 513 OFFCURVE",
"396 367 CURVE SMOOTH",
"396 224 OFFCURVE",
"381 188 OFFCURVE",
"348 188 CURVE SMOOTH",
"311 188 OFFCURVE",
"296 224 OFFCURVE",
"296 371 CURVE SMOOTH"
);
},
{
closed = 1;
nodes = (
"123 620 OFFCURVE",
"32 511 OFFCURVE",
"32 367 CURVE SMOOTH",
"32 213 OFFCURVE",
"131 117 OFFCURVE",
"342 117 CURVE SMOOTH",
"568 117 OFFCURVE",
"660 227 OFFCURVE",
"660 370 CURVE SMOOTH",
"660 459 OFFCURVE",
"620 528 OFFCURVE",
"537 567 CURVE",
"350 620 LINE"
);
},
{
closed = 1;
nodes = (
"500 543 OFFCURVE",
"665 517 OFFCURVE",
"752 568 CURVE",
"752 668 OFFCURVE",
"702 731 OFFCURVE",
"637 748 CURVE",
"602 667 OFFCURVE",
"516 620 OFFCURVE",
"350 620 CURVE",
"376 600 LINE"
);
}
);
width = 724;
}
);
unicode = 0067;
},
{
glyphname = h;
lastChange = "2016-08-06 13:12:27 +0000";
layers = (
{
background = {
paths = (
{
closed = 1;
nodes = (
"233 602 OFFCURVE",
"136 603 OFFCURVE",
"43 582 CURVE",
"37 361 OFFCURVE",
"41 104 OFFCURVE",
"46 0 CURVE",
"143 -20 OFFCURVE",
"248 -13 OFFCURVE",
"336 11 CURVE",
"330 111 OFFCURVE",
"329 389 OFFCURVE",
"334 590 CURVE"
);
},
{
closed = 1;
nodes = (
"532 -18 OFFCURVE",
"646 -13 OFFCURVE",
"737 11 CURVE",
"721 96 OFFCURVE",
"721 290 OFFCURVE",
"721 388 CURVE SMOOTH",
"721 549 OFFCURVE",
"659 620 OFFCURVE",
"544 620 CURVE SMOOTH",
"431 620 OFFCURVE",
"334 546 OFFCURVE",
"317 419 CURVE",
"327 412 LINE",
"342 438 OFFCURVE",
"363 450 OFFCURVE",
"382 450 CURVE SMOOTH",
"408 450 OFFCURVE",
"431 427 OFFCURVE",
"431 383 CURVE SMOOTH",
"431 287 OFFCURVE",
"431 110 OFFCURVE",
"437 0 CURVE"
);
}
);
};
components = (
{
name = luk;
transform = "{1, 0, 0, 1, -5, 0}";
}
);
guideLines = (
{
angle = 180;
position = "{545, 620}";
}
);
layerId = "15808E89-C4EA-4701-A327-0721774450FF";
paths = (
{
closed = 1;
nodes = (
"235 750 OFFCURVE",
"138 750 OFFCURVE",
"45 729 CURVE",
"39 452 OFFCURVE",
"40 130 OFFCURVE",
"46 0 CURVE",
"143 -20 OFFCURVE",
"248 -13 OFFCURVE",
"336 11 CURVE",
"330 136 OFFCURVE",
"329 462 OFFCURVE",
"336 737 CURVE"
);
}
);
width = 763;
},
{
associatedMasterId = "15808E89-C4EA-4701-A327-0721774450FF";
background = {
components = (
{
name = brzuszek;
transform = "{-1, 0, 0, -1, 735, 600}";
}
);
};
layerId = "682157CB-0E6E-4700-98F4-D76C4E41FA30";
name = "Bold May 8 16, 13:18";
paths = (
{
closed = 1;
nodes = (
"236 750 OFFCURVE",
"139 750 OFFCURVE",
"46 729 CURVE",
"40 452 OFFCURVE",
"41 130 OFFCURVE",
"47 0 CURVE",
"144 -20 OFFCURVE",
"249 -13 OFFCURVE",
"337 11 CURVE",
"331 136 OFFCURVE",
"330 462 OFFCURVE",
"337 737 CURVE"
);
},
{
closed = 1;
nodes = (
"533 -21 OFFCURVE",
"653 -18 OFFCURVE",
"738 13 CURVE",
"723 88 OFFCURVE",
"722 258 OFFCURVE",
"722 344 CURVE SMOOTH",
"722 523 OFFCURVE",
"658 620 OFFCURVE",
"525 620 CURVE SMOOTH",
"434 620 OFFCURVE",
"338 564 OFFCURVE",
"299 475 CURVE",
"318 399 LINE",
"337 413 OFFCURVE",
"358 420 OFFCURVE",
"377 420 CURVE SMOOTH",
"413 420 OFFCURVE",
"432 396 OFFCURVE",
"432 360 CURVE SMOOTH",
"432 214 OFFCURVE",
"434 66 OFFCURVE",
"438 0 CURVE"
);
}
);
width = 765;
}
);
leftMetricsKey = l;
rightMetricsKey = n;
unicode = 0068;
},
{
glyphname = i;
lastChange = "2016-08-06 13:12:27 +0000";
layers = (
{
associatedMasterId = "15808E89-C4EA-4701-A327-0721774450FF";
background = {
paths = (
{
closed = 1;
nodes = (
"274 421 OFFCURVE",
"226 396 OFFCURVE",
"173 396 CURVE SMOOTH",
"120 396 OFFCURVE",
"73 420 OFFCURVE",
"37 459 CURVE SMOOTH",
"31 465 OFFCURVE",
"23 462 OFFCURVE",
"23 459 CURVE SMOOTH",
"21 265 OFFCURVE",
"22 86 OFFCURVE",
"27 0 CURVE",
"127 -20 OFFCURVE",
"236 -13 OFFCURVE",
"327 11 CURVE",
"320 124 OFFCURVE",
"321 298 OFFCURVE",
"323 461 CURVE SMOOTH",
"323 464 OFFCURVE",
"316 467 OFFCURVE",
"311 461 CURVE SMOOTH"
);
}
);
};
layerId = "2F5FBD38-2A33-4CB5-BFE3-49F57BCF5AF2";
name = "Bold May 14 16, 15:37";
paths = (
{
closed = 1;
nodes = (
"4 513 OFFCURVE",
"60 446 OFFCURVE",
"171 446 CURVE SMOOTH",
"279 446 OFFCURVE",
"341 512 OFFCURVE",
"341 617 CURVE SMOOTH",
"341 717 OFFCURVE",
"285 784 OFFCURVE",
"174 784 CURVE SMOOTH",
"66 784 OFFCURVE",
"4 718 OFFCURVE",
"4 613 CURVE SMOOTH"
);
},
{
closed = 1;
nodes = (
"23 241 OFFCURVE",
"22 86 OFFCURVE",
"27 0 CURVE",
"127 -20 OFFCURVE",
"236 -13 OFFCURVE",
"327 11 CURVE",
"320 122 OFFCURVE",
"323 272 OFFCURVE",
"323 436 CURVE SMOOTH",
"323 440 OFFCURVE",
"320 441 OFFCURVE",
"317 438 CURVE SMOOTH",
"282 403 OFFCURVE",
"231 385 OFFCURVE",
"171 385 CURVE SMOOTH",
"113 385 OFFCURVE",
"63 401 OFFCURVE",
"29 435 CURVE SMOOTH",
"26 438 OFFCURVE",
"23 437 OFFCURVE",
"23 432 CURVE SMOOTH"
);
}
);
width = 350;
},
{
associatedMasterId = "15808E89-C4EA-4701-A327-0721774450FF";
background = {
paths = (
{
closed = 1;
nodes = (
"292 421 OFFCURVE",
"244 396 OFFCURVE",
"191 396 CURVE SMOOTH",
"138 396 OFFCURVE",
"91 420 OFFCURVE",
"55 459 CURVE SMOOTH",
"49 465 OFFCURVE",
"41 462 OFFCURVE",
"41 459 CURVE SMOOTH",
"39 265 OFFCURVE",
"40 86 OFFCURVE",
"45 0 CURVE",
"145 -20 OFFCURVE",
"254 -13 OFFCURVE",
"345 11 CURVE",
"338 124 OFFCURVE",
"339 298 OFFCURVE",
"341 461 CURVE SMOOTH",
"341 464 OFFCURVE",
"334 467 OFFCURVE",
"329 461 CURVE SMOOTH"
);
}
);
};
layerId = "137750A0-D5D5-43A5-9090-5ED5ACC840A3";
name = "Bold May 14 16, 20:26";
paths = (
{
closed = 1;
nodes = (
"38 694 OFFCURVE",
"90 636 OFFCURVE",
"195 636 CURVE SMOOTH",
"296 636 OFFCURVE",
"355 693 OFFCURVE",
"355 783 CURVE SMOOTH",
"355 869 OFFCURVE",
"303 927 OFFCURVE",
"198 927 CURVE SMOOTH",
"97 927 OFFCURVE",
"38 870 OFFCURVE",
"38 780 CURVE SMOOTH"
);
},
{
closed = 1;
nodes = (
"238 602 OFFCURVE",
"141 603 OFFCURVE",
"48 582 CURVE",
"42 361 OFFCURVE",
"46 104 OFFCURVE",
"51 0 CURVE",
"148 -20 OFFCURVE",
"253 -13 OFFCURVE",
"341 11 CURVE",
"335 111 OFFCURVE",
"334 389 OFFCURVE",
"339 590 CURVE"
);
}
);
width = 377;
},
{
associatedMasterId = "15808E89-C4EA-4701-A327-0721774450FF";
background = {
paths = (
{
closed = 1;
nodes = (
"356 421 OFFCURVE",
"308 396 OFFCURVE",
"255 396 CURVE SMOOTH",
"202 396 OFFCURVE",
"155 420 OFFCURVE",
"119 459 CURVE SMOOTH",
"113 465 OFFCURVE",
"105 462 OFFCURVE",
"105 459 CURVE SMOOTH",
"103 265 OFFCURVE",
"104 86 OFFCURVE",
"109 0 CURVE",
"209 -20 OFFCURVE",
"318 -13 OFFCURVE",
"409 11 CURVE",
"402 124 OFFCURVE",
"403 298 OFFCURVE",
"405 461 CURVE SMOOTH",
"405 464 OFFCURVE",
"398 467 OFFCURVE",
"393 461 CURVE SMOOTH"
);
}
);
};
layerId = "ECD3B18B-9C74-47B8-8C49-4E123D70ABD9";
name = "Bold Jul 8 16, 16:43";
paths = (
{
closed = 1;
nodes = (
"86 572 OFFCURVE",
"142 510 OFFCURVE",
"253 510 CURVE SMOOTH",
"361 510 OFFCURVE",
"423 570 OFFCURVE",
"423 667 CURVE SMOOTH",
"423 759 OFFCURVE",
"367 821 OFFCURVE",
"256 821 CURVE SMOOTH",
"148 821 OFFCURVE",
"86 760 OFFCURVE",
"86 664 CURVE SMOOTH"
);
},
{
closed = 1;
nodes = (
"104 451 LINE",
"101 269 OFFCURVE",
"105 83 OFFCURVE",
"109 0 CURVE",
"206 -20 OFFCURVE",
"311 -13 OFFCURVE",
"399 11 CURVE",
"394 91 OFFCURVE",
"393 285 OFFCURVE",
"396 471 CURVE"
);
},
{
closed = 1;
nodes = (
"103 393 OFFCURVE",
"184 392 OFFCURVE",
"274 392 CURVE",
"396 471 LINE",
"255 472 OFFCURVE",
"128 472 OFFCURVE",
"21 474 CURVE",
"17 445 OFFCURVE",
"19 418 OFFCURVE",
"29 393 CURVE"
);
}
);
width = 473;
},
{
background = {
paths = (
{
closed = 1;
nodes = (
"298 421 OFFCURVE",
"250 396 OFFCURVE",
"197 396 CURVE SMOOTH",
"144 396 OFFCURVE",
"97 420 OFFCURVE",
"61 459 CURVE SMOOTH",
"55 465 OFFCURVE",
"47 462 OFFCURVE",
"47 459 CURVE SMOOTH",
"45 265 OFFCURVE",
"46 86 OFFCURVE",
"51 0 CURVE",
"151 -20 OFFCURVE",
"260 -13 OFFCURVE",
"351 11 CURVE",
"344 124 OFFCURVE",
"345 298 OFFCURVE",
"347 461 CURVE SMOOTH",
"347 464 OFFCURVE",
"340 467 OFFCURVE",
"335 461 CURVE SMOOTH"
);
}
);
};
layerId = "15808E89-C4EA-4701-A327-0721774450FF";
paths = (
{
closed = 1;
nodes = (
"28 572 OFFCURVE",
"84 510 OFFCURVE",
"195 510 CURVE SMOOTH",
"303 510 OFFCURVE",
"365 570 OFFCURVE",
"365 667 CURVE SMOOTH",
"365 759 OFFCURVE",
"309 821 OFFCURVE",
"198 821 CURVE SMOOTH",
"90 821 OFFCURVE",
"28 760 OFFCURVE",
"28 664 CURVE SMOOTH"
);
},
{
closed = 1;
nodes = (
"236 491 OFFCURVE",
"139 492 OFFCURVE",
"46 471 CURVE",
"43 281 OFFCURVE",
"47 87 OFFCURVE",
"51 0 CURVE",
"148 -20 OFFCURVE",
"253 -13 OFFCURVE",
"341 11 CURVE",
"336 94 OFFCURVE",
"335 297 OFFCURVE",
"337 479 CURVE"
);
}
);
vertOrigin = -21;
width = 377;
}
);
unicode = 0069;
},
{
glyphname = j;
lastChange = "2016-08-06 13:12:27 +0000";
layers = (
{
layerId = "15808E89-C4EA-4701-A327-0721774450FF";
paths = (
{
closed = 1;
nodes = (
"28 572 OFFCURVE",
"84 510 OFFCURVE",
"195 510 CURVE SMOOTH",
"303 510 OFFCURVE",
"365 570 OFFCURVE",
"365 667 CURVE SMOOTH",
"365 759 OFFCURVE",
"309 821 OFFCURVE",
"198 821 CURVE SMOOTH",
"90 821 OFFCURVE",
"28 760 OFFCURVE",
"28 664 CURVE SMOOTH"
);
},
{
closed = 1;
nodes = (
"236 491 OFFCURVE",
"139 492 OFFCURVE",
"46 471 CURVE",
"43 208 OFFCURVE",
"47 -67 OFFCURVE",
"51 -188 CURVE",
"148 -208 OFFCURVE",
"253 -201 OFFCURVE",
"351 -175 CURVE",
"337 -61 OFFCURVE",
"335 231 OFFCURVE",
"337 479 CURVE"
);
}
);
width = 377;
}
);
leftMetricsKey = i;
rightMetricsKey = i;
unicode = 006A;
},
{
glyphname = k;
lastChange = "2016-08-06 13:12:27 +0000";
layers = (
{
background = {
paths = (
{
closed = 1;
nodes = (
"346 145 OFFCURVE",
"408 -18 OFFCURVE",
"550 -19 CURVE SMOOTH",
"709 -20 OFFCURVE",
"764 181 OFFCURVE",
"690 294 CURVE",
"583 232 OFFCURVE",
"433 240 OFFCURVE",
"398 290 CURVE",
"344 286 LINE"
);
},
{
closed = 1;
nodes = (
"292 743 OFFCURVE",
"248 746 OFFCURVE",
"205 746 CURVE SMOOTH",
"150 746 OFFCURVE",
"97 741 OFFCURVE",
"45 729 CURVE",
"39 452 OFFCURVE",
"40 130 OFFCURVE",
"46 0 CURVE",
"143 -20 OFFCURVE",
"248 -13 OFFCURVE",
"336 11 CURVE",
"330 136 OFFCURVE",
"329 462 OFFCURVE",
"336 737 CURVE"
);
},
{
closed = 1;
nodes = (
"543 268 OFFCURVE",
"708 390 OFFCURVE",
"662 602 CURVE",
"604 626 OFFCURVE",
"494 606 OFFCURVE",
"442 568 CURVE",
"473 432 OFFCURVE",
"433 309 OFFCURVE",
"317 309 CURVE",
"316 266 LINE"
);
}
);
};
layerId = "15808E89-C4EA-4701-A327-0721774450FF";
paths = (
{
closed = 1;
nodes = (
"346 145 OFFCURVE",
"408 -18 OFFCURVE",
"550 -19 CURVE SMOOTH",
"709 -20 OFFCURVE",
"764 181 OFFCURVE",
"690 294 CURVE",
"583 232 OFFCURVE",
"433 240 OFFCURVE",
"398 290 CURVE",
"344 286 LINE"
);
},
{
closed = 1;
nodes = (
"292 743 OFFCURVE",
"248 746 OFFCURVE",
"205 746 CURVE SMOOTH",
"150 746 OFFCURVE",
"97 741 OFFCURVE",
"45 729 CURVE",
"39 452 OFFCURVE",
"40 130 OFFCURVE",
"46 0 CURVE",
"143 -20 OFFCURVE",
"248 -13 OFFCURVE",
"336 11 CURVE",
"330 136 OFFCURVE",
"329 462 OFFCURVE",
"336 737 CURVE"
);
},
{
closed = 1;
nodes = (
"558 268 OFFCURVE",
"734 389 OFFCURVE",
"685 600 CURVE",
"621 623 OFFCURVE",
"499 604 OFFCURVE",
"442 568 CURVE",
"473 432 OFFCURVE",
"433 309 OFFCURVE",
"317 309 CURVE",
"316 266 LINE"
);
}
);
width = 724;
},
{
associatedMasterId = "15808E89-C4EA-4701-A327-0721774450FF";
background = {
paths = (
{
closed = 1;
nodes = (
"546 290 OFFCURVE",
"642 412 OFFCURVE",
"685 569 CURVE",
"626 608 OFFCURVE",
"565 618 OFFCURVE",
"512 609 CURVE",
"475 458 OFFCURVE",
"442 390 OFFCURVE",
"316 290 CURVE",
"316 244 LINE"
);
}
);
};
layerId = "8FBD366B-1868-448A-9F57-35D311A137F4";
name = "Bold May 18 16, 14:06";
paths = (
{
closed = 1;
nodes = (
"548 268 OFFCURVE",
"682 424 OFFCURVE",
"683 528 CURVE SMOOTH",
"683 581 OFFCURVE",
"650 620 OFFCURVE",
"577 620 CURVE SMOOTH",
"543 620 OFFCURVE",
"503 612 OFFCURVE",
"461 600 CURVE",
"462 463 OFFCURVE",
"403 331 OFFCURVE",
"317 314 CURVE",
"316 266 LINE"
);
},
{
closed = 1;
nodes = (
"346 145 OFFCURVE",
"408 -18 OFFCURVE",
"550 -19 CURVE SMOOTH",
"709 -20 OFFCURVE",
"764 181 OFFCURVE",
"690 294 CURVE",
"607 244 OFFCURVE",
"453 229 OFFCURVE",
"412 290 CURVE",
"344 286 LINE"
);
},
{
closed = 1;
nodes = (
"292 743 OFFCURVE",
"248 746 OFFCURVE",
"205 746 CURVE SMOOTH",
"150 746 OFFCURVE",
"97 741 OFFCURVE",
"45 729 CURVE",
"39 452 OFFCURVE",
"40 130 OFFCURVE",
"46 0 CURVE",
"143 -20 OFFCURVE",
"248 -13 OFFCURVE",
"336 11 CURVE",
"330 136 OFFCURVE",
"329 462 OFFCURVE",
"336 737 CURVE"
);
}
);
width = 724;
}
);
leftMetricsKey = l;
unicode = 006B;
},
{
glyphname = l;
lastChange = "2016-08-06 13:12:27 +0000";
layers = (
{
background = {
paths = (
{
closed = 1;
nodes = (
"235 750 OFFCURVE",
"138 750 OFFCURVE",
"45 729 CURVE",
"39 452 OFFCURVE",
"40 130 OFFCURVE",
"46 0 CURVE",
"143 -20 OFFCURVE",
"248 -13 OFFCURVE",
"336 11 CURVE",
"330 136 OFFCURVE",
"329 462 OFFCURVE",
"336 737 CURVE"
);
}
);
};
layerId = "15808E89-C4EA-4701-A327-0721774450FF";
paths = (
{
closed = 1;
nodes = (
"292 743 OFFCURVE",
"248 746 OFFCURVE",
"205 746 CURVE SMOOTH",
"150 746 OFFCURVE",
"97 741 OFFCURVE",
"45 729 CURVE",
"39 452 OFFCURVE",
"40 130 OFFCURVE",
"46 0 CURVE",
"143 -20 OFFCURVE",
"248 -13 OFFCURVE",
"336 11 CURVE",
"330 136 OFFCURVE",
"329 462 OFFCURVE",
"336 737 CURVE"
);
}
);
width = 372;
}
);
unicode = 006C;
},
{
glyphname = m;
lastChange = "2016-08-06 13:12:27 +0000";
layers = (
{
background = {
paths = (
{
closed = 1;
nodes = (
"537 -18 OFFCURVE",
"651 -13 OFFCURVE",
"742 11 CURVE",
"726 96 OFFCURVE",
"726 290 OFFCURVE",
"726 388 CURVE SMOOTH",
"726 526 OFFCURVE",
"646 620 OFFCURVE",
"537 620 CURVE SMOOTH",
"439 620 OFFCURVE",
"339 544 OFFCURVE",
"322 409 CURVE",
"336 406 LINE",
"351 423 OFFCURVE",
"369 430 OFFCURVE",
"387 430 CURVE SMOOTH",
"415 430 OFFCURVE",
"436 409 OFFCURVE",
"436 375 CURVE SMOOTH",
"436 230 OFFCURVE",
"438 71 OFFCURVE",
"442 0 CURVE"
);
},
{
closed = 1;
nodes = (
"928 -18 OFFCURVE",
"1042 -13 OFFCURVE",
"1133 11 CURVE",
"1117 96 OFFCURVE",
"1117 290 OFFCURVE",
"1117 388 CURVE SMOOTH",
"1117 526 OFFCURVE",
"1037 620 OFFCURVE",
"928 620 CURVE SMOOTH",
"830 620 OFFCURVE",
"730 544 OFFCURVE",
"710 414 CURVE",
"722 397 LINE",
"739 422 OFFCURVE",
"758 430 OFFCURVE",
"778 430 CURVE SMOOTH",
"806 430 OFFCURVE",
"827 409 OFFCURVE",
"827 375 CURVE SMOOTH",
"827 230 OFFCURVE",
"829 71 OFFCURVE",
"833 0 CURVE"
);
}
);
};
components = (
{
name = luk;
},
{
name = luk;
transform = "{1, 0, 0, 1, 391, 0}";
}
);
guideLines = (
{
position = "{390, 286}";
showMeasurement = 1;
}
);
layerId = "15808E89-C4EA-4701-A327-0721774450FF";
paths = (
{
closed = 1;
nodes = (
"238 602 OFFCURVE",
"141 603 OFFCURVE",
"48 582 CURVE",
"42 361 OFFCURVE",
"46 104 OFFCURVE",
"51 0 CURVE",
"148 -20 OFFCURVE",
"253 -13 OFFCURVE",
"341 11 CURVE",
"335 111 OFFCURVE",
"334 389 OFFCURVE",
"339 590 CURVE"
);
}
);
width = 1159;
}
);
leftMetricsKey = n;
rightMetricsKey = n;
unicode = 006D;
},
{
glyphname = n;
lastChange = "2016-08-06 13:12:27 +0000";
layers = (
{
background = {
components = (
{
name = brzuszek;
transform = "{-1, 0, 0, -1, 756, 600}";
}
);
paths = (
{
closed = 1;
nodes = (
"238 602 OFFCURVE",
"141 603 OFFCURVE",
"48 582 CURVE",
"43 285 OFFCURVE",
"47 -60 OFFCURVE",
"51 -200 CURVE",
"148 -220 OFFCURVE",
"253 -213 OFFCURVE",
"351 -187 CURVE",
"335 -54 OFFCURVE",
"334 320 OFFCURVE",
"339 590 CURVE"
);
}
);
};
components = (
{
name = luk;
}
);
guideLines = (
{
locked = 1;
position = "{592, 620}";
}
);
layerId = "15808E89-C4EA-4701-A327-0721774450FF";
paths = (
{
closed = 1;
nodes = (
"238 602 OFFCURVE",
"141 603 OFFCURVE",
"48 582 CURVE",
"42 361 OFFCURVE",
"46 104 OFFCURVE",
"51 0 CURVE",
"148 -20 OFFCURVE",
"253 -13 OFFCURVE",
"341 11 CURVE",
"335 111 OFFCURVE",
"334 389 OFFCURVE",
"339 590 CURVE"
);
}
);
vertOrigin = 180;
width = 768;
},
{
associatedMasterId = "15808E89-C4EA-4701-A327-0721774450FF";
background = {
components = (
{
name = brzuszek;
transform = "{-1, 0, 0, -1, 756, 600}";
}
);
paths = (
{
closed = 1;
nodes = (
"238 602 OFFCURVE",
"141 603 OFFCURVE",
"48 582 CURVE",
"43 285 OFFCURVE",
"47 -60 OFFCURVE",
"51 -200 CURVE",
"148 -220 OFFCURVE",
"253 -213 OFFCURVE",
"351 -187 CURVE",
"335 -54 OFFCURVE",
"334 320 OFFCURVE",
"339 590 CURVE"
);
}
);
};
components = (
{
name = luk;
}
);
guideLines = (
{
locked = 1;
position = "{592, 620}";
}
);
layerId = "3E8A571D-5BA6-4357-948D-2DE2B99C7029";
name = "Bold Jun 17 16, 17:57";
paths = (
{
closed = 1;
nodes = (
"238 602 OFFCURVE",
"141 603 OFFCURVE",
"48 582 CURVE",
"42 361 OFFCURVE",
"46 104 OFFCURVE",
"51 0 CURVE",
"148 -20 OFFCURVE",
"253 -13 OFFCURVE",
"341 11 CURVE",
"335 111 OFFCURVE",
"334 389 OFFCURVE",
"339 590 CURVE"
);
}
);
width = 768;
},
{
associatedMasterId = "15808E89-C4EA-4701-A327-0721774450FF";
background = {
components = (
{
name = brzuszek;
transform = "{-1, 0, 0, -1, 756, 600}";
}
);
paths = (
{
closed = 1;
nodes = (
"238 602 OFFCURVE",
"141 603 OFFCURVE",
"48 582 CURVE",
"43 285 OFFCURVE",
"47 -60 OFFCURVE",
"51 -200 CURVE",
"148 -220 OFFCURVE",
"253 -213 OFFCURVE",
"351 -187 CURVE",
"335 -54 OFFCURVE",
"334 320 OFFCURVE",
"339 590 CURVE"
);
}
);
};
guideLines = (
{
locked = 1;
position = "{592, 620}";
}
);
layerId = "03F1E508-CC9C-478B-B915-C43AB841C3EF";
name = "Bold Jun 18 16, 08:56";
paths = (
{
closed = 1;
nodes = (
"238 602 OFFCURVE",
"141 603 OFFCURVE",
"48 582 CURVE",
"42 361 OFFCURVE",
"46 104 OFFCURVE",
"51 0 CURVE",
"148 -20 OFFCURVE",
"253 -13 OFFCURVE",
"341 11 CURVE",
"335 111 OFFCURVE",
"334 389 OFFCURVE",
"339 590 CURVE"
);
},
{
closed = 1;
nodes = (
"537 -18 OFFCURVE",
"651 -13 OFFCURVE",
"742 11 CURVE",
"726 96 OFFCURVE",
"726 290 OFFCURVE",
"726 388 CURVE SMOOTH",
"726 544 OFFCURVE",
"668 620 OFFCURVE",
"551 620 CURVE SMOOTH",
"434 620 OFFCURVE",
"338 541 OFFCURVE",
"322 419 CURVE",
"332 402 LINE",
"347 428 OFFCURVE",
"368 440 OFFCURVE",
"387 440 CURVE SMOOTH",
"413 440 OFFCURVE",
"436 421 OFFCURVE",
"436 383 CURVE SMOOTH",
"436 287 OFFCURVE",
"436 110 OFFCURVE",
"442 0 CURVE"
);
}
);
width = 768;
}
);
unicode = 006E;
},
{
glyphname = o;
lastChange = "2016-08-06 13:12:27 +0000";
layers = (
{
associatedMasterId = "15808E89-C4EA-4701-A327-0721774450FF";
background = {
paths = (
{
closed = 1;
nodes = (
"110 328 LINE",
"623 328 LINE",
"623 396 LINE",
"110 396 LINE"
);
},
{
closed = 1;
nodes = (
"623 328 LINE",
"652 532 OFFCURVE",
"555 620 OFFCURVE",
"343 620 CURVE",
"125 620 OFFCURVE",
"10 482 OFFCURVE",
"10 298 CURVE",
"10 113 OFFCURVE",
"130 -20 OFFCURVE",
"334 -20 CURVE",
"474 -20 OFFCURVE",
"572 44 OFFCURVE",
"624 122 CURVE",
"624 143 OFFCURVE",
"615 169 OFFCURVE",
"604 181 CURVE",
"405 124 OFFCURVE",
"267 238 OFFCURVE",
"267 444 CURVE",
"267 522 OFFCURVE",
"287 549 OFFCURVE",
"321 549 CURVE",
"344 549 OFFCURVE",
"364 536 OFFCURVE",
"364 474 CURVE",
"364 450 OFFCURVE",
"361 418 OFFCURVE",
"354 377 CURVE"
);
}
);
};
guideLines = (
{
angle = 180;
position = "{351, -21}";
},
{
angle = 180;
position = "{348, 620}";
}
);
layerId = "D944C7BF-7399-43AF-8D73-862B221B5631";
name = "Bold May 18 16, 12:05";
paths = (
{
closed = 1;
nodes = (
"698 498 OFFCURVE",
"589 620 OFFCURVE",
"359 620 CURVE",
"109 620 OFFCURVE",
"10 481 OFFCURVE",
"10 297 CURVE",
"10 101 OFFCURVE",
"119 -20 OFFCURVE",
"349 -20 CURVE",
"598 -20 OFFCURVE",
"698 119 OFFCURVE",
"698 302 CURVE"
);
},
{
closed = 1;
nodes = (
"296 523 OFFCURVE",
"313.981 544 OFFCURVE",
"332.06 544 CURVE",
"380.633 544 OFFCURVE",
"412 392.4 OFFCURVE",
"412 165 CURVE",
"412 77 OFFCURVE",
"394.019 56 OFFCURVE",
"374.417 56 CURVE",
"300.587 56 OFFCURVE",
"296 353.936 OFFCURVE",
"296 435 CURVE"
);
},
{
closed = 0;
nodes = (
"-1191 289 LINE"
);
}
);
width = 708;
},
{
background = {
paths = (
{
closed = 1;
nodes = (
"15 94 OFFCURVE",
"131 -20 OFFCURVE",
"354 -20 CURVE SMOOTH",
"603 -20 OFFCURVE",
"703 119 OFFCURVE",
"703 302 CURVE SMOOTH",
"703 506 OFFCURVE",
"587 620 OFFCURVE",
"364 620 CURVE SMOOTH",
"114 620 OFFCURVE",
"15 481 OFFCURVE",
"15 298 CURVE SMOOTH"
);
},
{
closed = 1;
nodes = (
"321 66 OFFCURVE",
"302 272 OFFCURVE",
"302 398 CURVE SMOOTH",
"302 490 OFFCURVE",
"315 535 OFFCURVE",
"342 535 CURVE SMOOTH",
"384 535 OFFCURVE",
"416 427 OFFCURVE",
"416 206 CURVE SMOOTH",
"416 112 OFFCURVE",
"404 66 OFFCURVE",
"376 66 CURVE SMOOTH"
);
}
);
};
layerId = "15808E89-C4EA-4701-A327-0721774450FF";
paths = (
{
closed = 1;
nodes = (
"15 98 OFFCURVE",
"135 -20 OFFCURVE",
"354 -20 CURVE SMOOTH",
"597 -20 OFFCURVE",
"703 127 OFFCURVE",
"703 302 CURVE SMOOTH",
"703 502 OFFCURVE",
"583 620 OFFCURVE",
"364 620 CURVE SMOOTH",
"120 620 OFFCURVE",
"15 473 OFFCURVE",
"15 298 CURVE SMOOTH"
);
},
{
closed = 1;
nodes = (
"321 66 OFFCURVE",
"302 272 OFFCURVE",
"302 398 CURVE SMOOTH",
"302 490 OFFCURVE",
"315 535 OFFCURVE",
"342 535 CURVE SMOOTH",
"384 535 OFFCURVE",
"416 427 OFFCURVE",
"416 206 CURVE SMOOTH",
"416 112 OFFCURVE",
"404 66 OFFCURVE",
"376 66 CURVE SMOOTH"
);
}
);
width = 718;
}
);
unicode = 006F;
},
{
glyphname = p;
lastChange = "2016-08-06 13:12:27 +0000";
layers = (
{
background = {
paths = (
{
closed = 1;
nodes = (
"238 602 OFFCURVE",
"141 603 OFFCURVE",
"48 582 CURVE",
"43 285 OFFCURVE",
"47 -60 OFFCURVE",
"51 -200 CURVE",
"148 -220 OFFCURVE",
"253 -213 OFFCURVE",
"351 -187 CURVE",
"335 -54 OFFCURVE",
"334 320 OFFCURVE",
"339 590 CURVE"
);
},
{
closed = 1;
nodes = (
"324 26 OFFCURVE",
"392 -20 OFFCURVE",
"474 -20 CURVE",
"633 -20 OFFCURVE",
"730 105 OFFCURVE",
"730 308 CURVE",
"730 502 OFFCURVE",
"653 620 OFFCURVE",
"525 620 CURVE",
"424 620 OFFCURVE",
"342 546 OFFCURVE",
"325 437 CURVE",
"337 419 LINE",
"347 437 OFFCURVE",
"367 450 OFFCURVE",
"388 450 CURVE",
"422 450 OFFCURVE",
"436 403 OFFCURVE",
"436 286 CURVE",
"436 169 OFFCURVE",
"411 105 OFFCURVE",
"364 105 CURVE",
"348 105 OFFCURVE",
"331 113 OFFCURVE",
"318 128 CURVE",
"294 98 LINE"
);
}
);
};
components = (
{
name = brzuszek;
transform = "{-1, 0, 0, -1, 756, 600}";
}
);
layerId = "15808E89-C4EA-4701-A327-0721774450FF";
paths = (
{
closed = 1;
nodes = (
"238 602 OFFCURVE",
"141 603 OFFCURVE",
"48 582 CURVE",
"43 290 OFFCURVE",
"47 -50 OFFCURVE",
"51 -188 CURVE",
"148 -208 OFFCURVE",
"253 -201 OFFCURVE",
"351 -175 CURVE",
"335 -44 OFFCURVE",
"334 324 OFFCURVE",
"339 590 CURVE"
);
}
);
width = 759;
}
);
rightMetricsKey = o;
unicode = 0070;
},
{
glyphname = q;
lastChange = "2016-08-06 13:12:27 +0000";
layers = (
{
components = (
{
name = brzuszek;
transform = "{1, 0, 0, 1, 3, 0}";
}
);
guideLines = (
{
position = "{391, 248}";
}
);
layerId = "15808E89-C4EA-4701-A327-0721774450FF";
paths = (
{
closed = 1;
nodes = (
"628 602 OFFCURVE",
"541 601 OFFCURVE",
"468 589 CURVE",
"431 555 OFFCURVE",
"421 493 OFFCURVE",
"421 248 CURVE SMOOTH",
"421 64 OFFCURVE",
"423 -101 OFFCURVE",
"426 -188 CURVE",
"523 -208 OFFCURVE",
"628 -201 OFFCURVE",
"726 -175 CURVE",
"710 -44 OFFCURVE",
"709 324 OFFCURVE",
"714 590 CURVE"
);
}
);
width = 747;
}
);
leftMetricsKey = o;
rightMetricsKey = d;
unicode = 0071;
},
{
glyphname = r;
lastChange = "2016-08-06 13:12:27 +0000";
layers = (
{
background = {
paths = (
{
closed = 1;
nodes = (
"238 602 OFFCURVE",
"141 603 OFFCURVE",
"48 582 CURVE",
"42 361 OFFCURVE",
"46 104 OFFCURVE",
"51 0 CURVE",
"148 -20 OFFCURVE",
"253 -13 OFFCURVE",
"341 11 CURVE",
"335 111 OFFCURVE",
"334 389 OFFCURVE",
"339 590 CURVE"
);
},
{
closed = 1;
nodes = (
"576 409 OFFCURVE",
"595 536 OFFCURVE",
"563 600 CURVE",
"544 613 OFFCURVE",
"523 620 OFFCURVE",
"501 620 CURVE SMOOTH",
"433 620 OFFCURVE",
"357 537 OFFCURVE",
"331 385 CURVE",
"332 355 LINE",
"394 396 OFFCURVE",
"483 390 OFFCURVE",
"539 355 CURVE"
);
}
);
};
layerId = "15808E89-C4EA-4701-A327-0721774450FF";
paths = (
{
closed = 1;
nodes = (
"238 602 OFFCURVE",
"141 603 OFFCURVE",
"48 582 CURVE",
"42 361 OFFCURVE",
"46 104 OFFCURVE",
"51 0 CURVE",
"148 -20 OFFCURVE",
"253 -13 OFFCURVE",
"341 11 CURVE",
"335 111 OFFCURVE",
"334 342 OFFCURVE",
"339 590 CURVE"
);
},
{
closed = 1;
nodes = (
"606 390 OFFCURVE",
"613 533 OFFCURVE",
"588 591 CURVE",
"566.676 610.431 OFFCURVE",
"539.9 620 OFFCURVE",
"514 620 CURVE SMOOTH",
"430 620 OFFCURVE",
"357 525 OFFCURVE",
"331 338 CURVE",
"332 308 LINE",
"394 349 OFFCURVE",
"509 353 OFFCURVE",
"578 320 CURVE"
);
}
);
width = 612;
},
{
associatedMasterId = "15808E89-C4EA-4701-A327-0721774450FF";
background = {
paths = (
{
closed = 1;
nodes = (
"238 602 OFFCURVE",
"141 603 OFFCURVE",
"48 582 CURVE",
"42 361 OFFCURVE",
"46 104 OFFCURVE",
"51 0 CURVE",
"148 -20 OFFCURVE",
"253 -13 OFFCURVE",
"341 11 CURVE",
"335 111 OFFCURVE",
"334 389 OFFCURVE",
"339 590 CURVE"
);
},
{
closed = 1;
nodes = (
"537 -18 OFFCURVE",
"651 -13 OFFCURVE",
"742 11 CURVE",
"726 96 OFFCURVE",
"726 290 OFFCURVE",
"726 388 CURVE SMOOTH",
"726 549 OFFCURVE",
"664 620 OFFCURVE",
"549 620 CURVE SMOOTH",
"436 620 OFFCURVE",
"339 546 OFFCURVE",
"322 419 CURVE",
"332 402 LINE",
"347 428 OFFCURVE",
"368 440 OFFCURVE",
"387 440 CURVE SMOOTH",
"413 440 OFFCURVE",
"436 421 OFFCURVE",
"436 383 CURVE SMOOTH",
"436 287 OFFCURVE",
"436 110 OFFCURVE",
"442 0 CURVE"
);
}
);
};
layerId = "E81FC39A-F703-45BC-87DA-7BB2431035E5";
name = "Bold May 18 16, 14:04";
paths = (
{
closed = 1;
nodes = (
"238 602 OFFCURVE",
"141 603 OFFCURVE",
"48 582 CURVE",
"42 361 OFFCURVE",
"46 104 OFFCURVE",
"51 0 CURVE",
"148 -20 OFFCURVE",
"253 -13 OFFCURVE",
"341 11 CURVE",
"335 111 OFFCURVE",
"334 389 OFFCURVE",
"339 590 CURVE"
);
},
{
closed = 1;
nodes = (
"576 413 OFFCURVE",
"587 538 OFFCURVE",
"563 600 CURVE",
"544 612 OFFCURVE",
"523 620 OFFCURVE",
"499 620 CURVE SMOOTH",
"421 620 OFFCURVE",
"340 531 OFFCURVE",
"331 385 CURVE",
"332 355 LINE",
"394 375 OFFCURVE",
"488 377 OFFCURVE",
"550 359 CURVE"
);
}
);
width = 560;
}
);
unicode = 0072;
},
{
glyphname = s;
lastChange = "2016-08-06 13:12:27 +0000";
layers = (
{
associatedMasterId = "15808E89-C4EA-4701-A327-0721774450FF";
background = {
paths = (
{
closed = 1;
nodes = (
"251 136 OFFCURVE",
"393 154 OFFCURVE",
"394 127 CURVE SMOOTH",
"395 116 OFFCURVE",
"369 110 OFFCURVE",
"332 110 CURVE",
"260 110 OFFCURVE",
"142 147 OFFCURVE",
"90 188 CURVE",
"62 152 OFFCURVE",
"49 106 OFFCURVE",
"53 51 CURVE",
"118 6 OFFCURVE",
"204 -21 OFFCURVE",
"314 -21 CURVE",
"493 -21 OFFCURVE",
"585 49 OFFCURVE",
"585 194 CURVE SMOOTH",
"585 295 OFFCURVE",
"549 379 OFFCURVE",
"454 422 CURVE",
"358 465 OFFCURVE",
"245 449 OFFCURVE",
"244 479 CURVE SMOOTH",
"242 512 OFFCURVE",
"446 486 OFFCURVE",
"512 425 CURVE",
"555 457 OFFCURVE",
"572 497 OFFCURVE",
"570 540 CURVE",
"491 590 OFFCURVE",
"400 617 OFFCURVE",
"310 617 CURVE",
"168 617 OFFCURVE",
"53 556 OFFCURVE",
"53 401 CURVE SMOOTH",
"53 319 OFFCURVE",
"80 247 OFFCURVE",
"150 201 CURVE"
);
}
);
};
guideLines = (
{
angle = -14.1574;
position = "{260, 194}";
},
{
angle = -14.1574;
position = "{398, 400}";
}
);
layerId = "2242BF7D-ABB9-47E6-A7E0-F74BD0EC176E";
name = "Bold May 12 16, 01:41";
paths = (
{
closed = 1;
nodes = (
"461 72 OFFCURVE",
"111 166 OFFCURVE",
"49 293 CURVE",
"11 242 OFFCURVE",
"-3 145 OFFCURVE",
"26 52 CURVE",
"96 6 OFFCURVE",
"189 -21 OFFCURVE",
"308 -21 CURVE SMOOTH",
"501 -21 OFFCURVE",
"604 53 OFFCURVE",
"604 197 CURVE SMOOTH",
"604 358 OFFCURVE",
"171 330 OFFCURVE",
"171 415 CURVE SMOOTH",
"171 487 OFFCURVE",
"474 450 OFFCURVE",
"545 325 CURVE",
"573 355 OFFCURVE",
"600 468 OFFCURVE",
"586 553 CURVE",
"504 595 OFFCURVE",
"409 617 OFFCURVE",
"317 617 CURVE SMOOTH",
"131 617 OFFCURVE",
"34 525 OFFCURVE",
"34 433 CURVE SMOOTH",
"34 237 OFFCURVE",
"461 300 OFFCURVE",
"461 203 CURVE SMOOTH"
);
}
);
width = 620;
},
{
associatedMasterId = "15808E89-C4EA-4701-A327-0721774450FF";
background = {
paths = (
{
closed = 1;
nodes = (
"251 136 OFFCURVE",
"393 154 OFFCURVE",
"394 127 CURVE SMOOTH",
"395 116 OFFCURVE",
"369 110 OFFCURVE",
"332 110 CURVE",
"260 110 OFFCURVE",
"142 147 OFFCURVE",
"90 188 CURVE",
"62 152 OFFCURVE",
"49 106 OFFCURVE",
"53 51 CURVE",
"118 6 OFFCURVE",
"204 -21 OFFCURVE",
"314 -21 CURVE",
"493 -21 OFFCURVE",
"585 49 OFFCURVE",
"585 194 CURVE SMOOTH",
"585 295 OFFCURVE",
"549 379 OFFCURVE",
"454 422 CURVE",
"358 465 OFFCURVE",
"245 449 OFFCURVE",
"244 479 CURVE SMOOTH",
"242 512 OFFCURVE",
"446 486 OFFCURVE",
"512 425 CURVE",
"555 457 OFFCURVE",
"572 497 OFFCURVE",
"570 540 CURVE",
"491 590 OFFCURVE",
"400 617 OFFCURVE",
"310 617 CURVE",
"168 617 OFFCURVE",
"53 556 OFFCURVE",
"53 401 CURVE SMOOTH",
"53 319 OFFCURVE",
"80 247 OFFCURVE",
"150 201 CURVE"
);
}
);
};
guideLines = (
{
angle = -9.2498;
position = "{255, 183}";
},
{
angle = -9.2498;
position = "{346, 430}";
}
);
layerId = "922739EB-59EE-40C5-8C34-779C2CAF21A5";
name = "Bold May 12 16, 02:04";
paths = (
{
closed = 1;
nodes = (
"411 76 OFFCURVE",
"373 52 OFFCURVE",
"323 52 CURVE SMOOTH",
"255 52 OFFCURVE",
"164 83 OFFCURVE",
"102 164 CURVE",
"66 146 OFFCURVE",
"42 117 OFFCURVE",
"29 77 CURVE",
"101 6 OFFCURVE",
"192 -21 OFFCURVE",
"308 -21 CURVE SMOOTH",
"507 -21 OFFCURVE",
"604 59 OFFCURVE",
"604 210 CURVE SMOOTH",
"604 507 OFFCURVE",
"235 372 OFFCURVE",
"235 496 CURVE SMOOTH",
"235 522 OFFCURVE",
"278 543 OFFCURVE",
"331 543 CURVE SMOOTH",
"398 543 OFFCURVE",
"458 515 OFFCURVE",
"513 457 CURVE",
"541 474 OFFCURVE",
"562 498 OFFCURVE",
"579 530 CURVE",
"510 594 OFFCURVE",
"426 617 OFFCURVE",
"330 617 CURVE SMOOTH",
"154 617 OFFCURVE",
"34 538 OFFCURVE",
"34 397 CURVE SMOOTH",
"34 101 OFFCURVE",
"411 233 OFFCURVE",
"411 112 CURVE SMOOTH"
);
}
);
width = 620;
},
{
associatedMasterId = "15808E89-C4EA-4701-A327-0721774450FF";
background = {
paths = (
{
closed = 1;
nodes = (
"411 80 OFFCURVE",
"380 52 OFFCURVE",
"307 52 CURVE SMOOTH",
"214 52 OFFCURVE",
"144 102 OFFCURVE",
"109 175 CURVE",
"79 158 OFFCURVE",
"46 124 OFFCURVE",
"29 77 CURVE",
"100 6 OFFCURVE",
"189 -21 OFFCURVE",
"303 -21 CURVE SMOOTH",
"499 -21 OFFCURVE",
"594 59 OFFCURVE",
"594 210 CURVE SMOOTH",
"594 505 OFFCURVE",
"235 374 OFFCURVE",
"235 496 CURVE SMOOTH",
"235 523 OFFCURVE",
"265 543 OFFCURVE",
"326 543 CURVE SMOOTH",
"407 543 OFFCURVE",
"472 507 OFFCURVE",
"516 442 CURVE",
"536 458 OFFCURVE",
"560 489 OFFCURVE",
"579 530 CURVE",
"516 590 OFFCURVE",
"422 618 OFFCURVE",
"331 618 CURVE SMOOTH",
"196 618 OFFCURVE",
"44 558 OFFCURVE",
"44 397 CURVE SMOOTH",
"44 102 OFFCURVE",
"411 230 OFFCURVE",
"411 114 CURVE SMOOTH"
);
}
);
};
guideLines = (
{
angle = -3.7295;
position = "{348, 479}";
},
{
angle = -3.7295;
position = "{321, 153}";
}
);
layerId = "DB1BF7A6-8842-4D11-A5B2-AE5FEF5D1C6D";
name = "Bold May 14 16, 01:46";
paths = (
{
closed = 1;
nodes = (
"478 77 OFFCURVE",
"449 55 OFFCURVE",
"357 55 CURVE SMOOTH",
"265 55 OFFCURVE",
"150 99 OFFCURVE",
"100 172 CURVE",
"60 156 OFFCURVE",
"27 109 OFFCURVE",
"40 40 CURVE",
"125 0 OFFCURVE",
"227 -20 OFFCURVE",
"325 -20 CURVE SMOOTH",
"513 -20 OFFCURVE",
"684 68 OFFCURVE",
"684 251 CURVE SMOOTH",
"684 571 OFFCURVE",
"255 434 OFFCURVE",
"255 514 CURVE SMOOTH",
"255 531 OFFCURVE",
"276 545 OFFCURVE",
"368 545 CURVE SMOOTH",
"456 546 OFFCURVE",
"557 524 OFFCURVE",
"599 460 CURVE",
"640 475 OFFCURVE",
"657 500 OFFCURVE",
"673 544 CURVE",
"609 589 OFFCURVE",
"511 620 OFFCURVE",
"388 620 CURVE SMOOTH",
"182 620 OFFCURVE",
"44 517 OFFCURVE",
"44 364 CURVE SMOOTH",
"44 52 OFFCURVE",
"478 201 OFFCURVE",
"478 103 CURVE SMOOTH"
);
}
);
width = 680;
},
{
associatedMasterId = "15808E89-C4EA-4701-A327-0721774450FF";
background = {
paths = (
{
closed = 1;
nodes = (
"70 198 OFFCURVE",
"28 159 OFFCURVE",
"23 125 CURVE",
"64 30 OFFCURVE",
"143 -20 OFFCURVE",
"271 -20 CURVE SMOOTH",
"448 -20 OFFCURVE",
"561 76 OFFCURVE",
"561 198 CURVE SMOOTH",
"561 357 OFFCURVE",
"322 455 OFFCURVE",
"322 521 CURVE SMOOTH",
"322 577 OFFCURVE",
"381 588 OFFCURVE",
"407 464 CURVE",
"471 464 OFFCURVE",
"512 492 OFFCURVE",
"512 536 CURVE",
"477 591 OFFCURVE",
"417 620 OFFCURVE",
"333 620 CURVE SMOOTH",
"180 619 OFFCURVE",
"44 551 OFFCURVE",
"44 414 CURVE SMOOTH",
"44 262 OFFCURVE",
"249 171 OFFCURVE",
"249 91 CURVE SMOOTH",
"249 71 OFFCURVE",
"238 60 OFFCURVE",
"218 60 CURVE SMOOTH",
"177 60 OFFCURVE",
"152 135 OFFCURVE",
"127 216 CURVE"
);
}
);
};
layerId = "98067C96-80BA-4E42-8BE8-F2FE49260CAC";
name = "Bold May 14 16, 02:13";
paths = (
{
closed = 1;
nodes = (
"70 200 OFFCURVE",
"27 165 OFFCURVE",
"3 125 CURVE",
"44 30 OFFCURVE",
"126 -20 OFFCURVE",
"259 -20 CURVE",
"443 -20 OFFCURVE",
"561 76 OFFCURVE",
"561 198 CURVE",
"561 357 OFFCURVE",
"322 455 OFFCURVE",
"322 539 CURVE",
"322 555 OFFCURVE",
"331 564 OFFCURVE",
"343 564 CURVE",
"364 564 OFFCURVE",
"397 535 OFFCURVE",
"407 464 CURVE",
"465 464 OFFCURVE",
"512 487 OFFCURVE",
"519 530 CURVE",
"484 585 OFFCURVE",
"423 620 OFFCURVE",
"338 620 CURVE",
"182 619 OFFCURVE",
"44 549 OFFCURVE",
"44 408 CURVE",
"44 251 OFFCURVE",
"263 158 OFFCURVE",
"263 72 CURVE",
"263 55 OFFCURVE",
"254 45 OFFCURVE",
"236 45 CURVE",
"196 45 OFFCURVE",
"154 91 OFFCURVE",
"127 216 CURVE"
);
}
);
width = 586;
},
{
associatedMasterId = "15808E89-C4EA-4701-A327-0721774450FF";
background = {
paths = (
{
closed = 1;
nodes = (
"381 80 OFFCURVE",
"350 52 OFFCURVE",
"277 52 CURVE SMOOTH",
"184 52 OFFCURVE",
"114 102 OFFCURVE",
"79 175 CURVE",
"49 158 OFFCURVE",
"16 124 OFFCURVE",
"-1 77 CURVE",
"70 6 OFFCURVE",
"159 -21 OFFCURVE",
"273 -21 CURVE SMOOTH",
"469 -21 OFFCURVE",
"564 59 OFFCURVE",
"564 210 CURVE SMOOTH",
"564 505 OFFCURVE",
"205 374 OFFCURVE",
"205 496 CURVE SMOOTH",
"205 523 OFFCURVE",
"235 543 OFFCURVE",
"296 543 CURVE SMOOTH",
"377 543 OFFCURVE",
"442 507 OFFCURVE",
"486 442 CURVE",
"506 458 OFFCURVE",
"530 489 OFFCURVE",
"549 530 CURVE",
"486 590 OFFCURVE",
"392 618 OFFCURVE",
"301 618 CURVE SMOOTH",
"166 618 OFFCURVE",
"14 558 OFFCURVE",
"14 397 CURVE SMOOTH",
"14 102 OFFCURVE",
"381 230 OFFCURVE",
"381 114 CURVE SMOOTH"
);
}
);
};
guideLines = (
{
angle = -3.7295;
position = "{318, 479}";
},
{
angle = -3.7295;
position = "{291, 153}";
}
);
layerId = "9E554A47-744A-40CC-B1AB-8543D4AFFAD6";
name = "Bold May 14 16, 02:20";
paths = (
{
closed = 1;
nodes = (
"423 82.67 OFFCURVE",
"398.189 61.136 OFFCURVE",
"320.762 60.586 CURVE",
"241.378 60.022 OFFCURVE",
"136.01 91.536 OFFCURVE",
"82 172 CURVE",
"29 144 OFFCURVE",
"-4 50 OFFCURVE",
"5 -28 CURVE",
"66 -31 OFFCURVE",
"124 14 OFFCURVE",
"155 52 CURVE",
"178 3 OFFCURVE",
"221 -20 OFFCURVE",
"302 -20 CURVE SMOOTH",
"461 -20 OFFCURVE",
"619 67 OFFCURVE",
"619 254 CURVE",
"619 563 OFFCURVE",
"229 428 OFFCURVE",
"229 508 CURVE",
"229 524.376 OFFCURVE",
"256.275 539.987 OFFCURVE",
"312.502 540.072 CURVE",
"389.595 540.19 OFFCURVE",
"496.484 510.984 OFFCURVE",
"526 449 CURVE",
"579 465 OFFCURVE",
"627 516 OFFCURVE",
"638 598 CURVE",
"589 611 OFFCURVE",
"524 600 OFFCURVE",
"470 541 CURVE",
"458 585 OFFCURVE",
"416 620 OFFCURVE",
"316 620 CURVE SMOOTH",
"155 620 OFFCURVE",
"28 517 OFFCURVE",
"28 357 CURVE",
"28 52 OFFCURVE",
"423 201 OFFCURVE",
"423 103 CURVE"
);
}
);
width = 646;
},
{
associatedMasterId = "15808E89-C4EA-4701-A327-0721774450FF";
background = {
paths = (
{
closed = 1;
nodes = (
"411 80 OFFCURVE",
"380 52 OFFCURVE",
"307 52 CURVE SMOOTH",
"214 52 OFFCURVE",
"144 102 OFFCURVE",
"109 175 CURVE",
"79 158 OFFCURVE",
"46 124 OFFCURVE",
"29 77 CURVE",
"100 6 OFFCURVE",
"189 -21 OFFCURVE",
"303 -21 CURVE SMOOTH",
"499 -21 OFFCURVE",
"594 59 OFFCURVE",
"594 210 CURVE SMOOTH",
"594 505 OFFCURVE",
"235 374 OFFCURVE",
"235 496 CURVE SMOOTH",
"235 523 OFFCURVE",
"265 543 OFFCURVE",
"326 543 CURVE SMOOTH",
"407 543 OFFCURVE",
"472 507 OFFCURVE",
"516 442 CURVE",
"536 458 OFFCURVE",
"560 489 OFFCURVE",
"579 530 CURVE",
"516 590 OFFCURVE",
"422 618 OFFCURVE",
"331 618 CURVE SMOOTH",
"196 618 OFFCURVE",
"44 558 OFFCURVE",
"44 397 CURVE SMOOTH",
"44 102 OFFCURVE",
"411 230 OFFCURVE",
"411 114 CURVE SMOOTH"
);
}
);
};
guideLines = (
{
angle = -3.7295;
position = "{348, 475}";
},
{
angle = -3.7295;
position = "{328, 147}";
}
);
layerId = "D3FADCF7-5A76-44F5-B0ED-6FF412C1BADF";
name = "Bold May 14 16, 15:36";
paths = (
{
closed = 1;
nodes = (
"474 79.953 OFFCURVE",
"433.661 68.08 OFFCURVE",
"378.944 68.08 CURVE SMOOTH",
"289.639 68.08 OFFCURVE",
"162.034 99.707 OFFCURVE",
"109 166 CURVE",
"70 150 OFFCURVE",
"38 104.602 OFFCURVE",
"51 37.954 CURVE",
"133 -0.682 OFFCURVE",
"231 -20 OFFCURVE",
"326 -20 CURVE SMOOTH",
"508 -20 OFFCURVE",
"673 62 OFFCURVE",
"673 245 CURVE SMOOTH",
"673 549 OFFCURVE",
"258 428 OFFCURVE",
"258 496 CURVE SMOOTH",
"258 515.794 OFFCURVE",
"277.164 529 OFFCURVE",
"350 529 CURVE SMOOTH",
"453 530 OFFCURVE",
"537 504 OFFCURVE",
"591 460 CURVE",
"625 471 OFFCURVE",
"654 508 OFFCURVE",
"662 544 CURVE",
"594.35 593.906 OFFCURVE",
"493.251 621.471 OFFCURVE",
"392.818 621.471 CURVE SMOOTH",
"222.45 621.471 OFFCURVE",
"54 542.149 OFFCURVE",
"54 358 CURVE SMOOTH",
"54 53 OFFCURVE",
"474 187 OFFCURVE",
"474 103 CURVE SMOOTH"
);
}
);
width = 680;
},
{
associatedMasterId = "15808E89-C4EA-4701-A327-0721774450FF";
background = {
paths = (
{
closed = 1;
nodes = (
"369 80 OFFCURVE",
"338 52 OFFCURVE",
"265 52 CURVE SMOOTH",
"172 52 OFFCURVE",
"102 102 OFFCURVE",
"67 175 CURVE",
"37 158 OFFCURVE",
"4 124 OFFCURVE",
"-13 77 CURVE",
"58 6 OFFCURVE",
"147 -21 OFFCURVE",
"261 -21 CURVE SMOOTH",
"457 -21 OFFCURVE",
"552 59 OFFCURVE",
"552 210 CURVE SMOOTH",
"552 505 OFFCURVE",
"193 374 OFFCURVE",
"193 496 CURVE SMOOTH",
"193 523 OFFCURVE",
"223 543 OFFCURVE",
"284 543 CURVE SMOOTH",
"365 543 OFFCURVE",
"430 507 OFFCURVE",
"474 442 CURVE",
"494 458 OFFCURVE",
"518 489 OFFCURVE",
"537 530 CURVE",
"474 590 OFFCURVE",
"380 618 OFFCURVE",
"289 618 CURVE SMOOTH",
"154 618 OFFCURVE",
"2 558 OFFCURVE",
"2 397 CURVE SMOOTH",
"2 102 OFFCURVE",
"369 230 OFFCURVE",
"369 114 CURVE SMOOTH"
);
}
);
};
guideLines = (
{
angle = -3.7295;
position = "{306, 479}";
},
{
angle = -3.7295;
position = "{279, 153}";
}
);
layerId = "ADDC539E-8884-4D10-A6A9-51834C6A3EF4";
name = "Bold May 14 16, 15:36";
paths = (
{
closed = 1;
nodes = (
"411 76 OFFCURVE",
"370 61 OFFCURVE",
"316 61 CURVE",
"234 61 OFFCURVE",
"123 94 OFFCURVE",
"70 172 CURVE",
"28 155 OFFCURVE",
"2 99 OFFCURVE",
"9 52 CURVE",
"72 0 OFFCURVE",
"185 -20 OFFCURVE",
"276 -20 CURVE",
"449 -20 OFFCURVE",
"607 67 OFFCURVE",
"607 254 CURVE",
"607 563 OFFCURVE",
"217 428 OFFCURVE",
"217 508 CURVE",
"217 532 OFFCURVE",
"253 543 OFFCURVE",
"301 543 CURVE",
"377 543 OFFCURVE",
"484 512 OFFCURVE",
"514 449 CURVE",
"561 454 OFFCURVE",
"597 496 OFFCURVE",
"597 544 CURVE",
"536 589 OFFCURVE",
"445 620 OFFCURVE",
"332 620 CURVE",
"143 620 OFFCURVE",
"16 517 OFFCURVE",
"16 357 CURVE",
"16 52 OFFCURVE",
"411 201 OFFCURVE",
"411 103 CURVE"
);
}
);
width = 619;
},
{
background = {
paths = (
{
closed = 1;
nodes = (
"61 208 OFFCURVE",
"13 148 OFFCURVE",
"13.241 94.368 CURVE SMOOTH",
"13.667 26.246 OFFCURVE",
"120.157 -20 OFFCURVE",
"255 -20 CURVE SMOOTH",
"422 -20 OFFCURVE",
"566 41.55 OFFCURVE",
"566 167.316 CURVE SMOOTH",
"566 314.492 OFFCURVE",
"267.236 469 OFFCURVE",
"267.236 541.204 CURVE SMOOTH",
"267.236 550.202 OFFCURVE",
"273.893 559 OFFCURVE",
"292.927 559 CURVE SMOOTH",
"326.169 559 OFFCURVE",
"400 504 OFFCURVE",
"437 393 CURVE",
"481 410 OFFCURVE",
"532 467 OFFCURVE",
"533.199 516.08 CURVE SMOOTH",
"534.473 563.655 OFFCURVE",
"475.065 620 OFFCURVE",
"304 620 CURVE SMOOTH",
"128 620 OFFCURVE",
"24 551 OFFCURVE",
"24 434 CURVE SMOOTH",
"24 280 OFFCURVE",
"299 158 OFFCURVE",
"299 71 CURVE SMOOTH",
"299 58.002 OFFCURVE",
"287.994 48 OFFCURVE",
"269.924 48 CURVE SMOOTH",
"235.166 48 OFFCURVE",
"177 90 OFFCURVE",
"113 227 CURVE"
);
}
);
};
layerId = "15808E89-C4EA-4701-A327-0721774450FF";
paths = (
{
closed = 1;
nodes = (
"61 211 OFFCURVE",
"13 159 OFFCURVE",
"13 107 CURVE SMOOTH",
"13 29 OFFCURVE",
"120 -20 OFFCURVE",
"255 -20 CURVE SMOOTH",
"422 -20 OFFCURVE",
"566 42 OFFCURVE",
"566 167 CURVE SMOOTH",
"566 314 OFFCURVE",
"267 469 OFFCURVE",
"267 539 CURVE SMOOTH",
"267 550 OFFCURVE",
"274 559 OFFCURVE",
"288 559 CURVE SMOOTH",
"324 559 OFFCURVE",
"395 500 OFFCURVE",
"437 393 CURVE",
"481 407 OFFCURVE",
"533 455 OFFCURVE",
"533 506 CURVE SMOOTH",
"533 560 OFFCURVE",
"475 620 OFFCURVE",
"304 620 CURVE SMOOTH",
"128 620 OFFCURVE",
"24 551 OFFCURVE",
"24 448 CURVE SMOOTH",
"24 280 OFFCURVE",
"299 158 OFFCURVE",
"299 75 CURVE SMOOTH",
"299 58 OFFCURVE",
"288 48 OFFCURVE",
"270 48 CURVE SMOOTH",
"235 48 OFFCURVE",
"177 90 OFFCURVE",
"113 227 CURVE"
);
}
);
width = 566;
},
{
associatedMasterId = "15808E89-C4EA-4701-A327-0721774450FF";
background = {
paths = (
{
closed = 1;
nodes = (
"670 498 OFFCURVE",
"571 620 OFFCURVE",
"331 620 CURVE SMOOTH",
"71 620 OFFCURVE",
"-18 481 OFFCURVE",
"-18 297 CURVE SMOOTH",
"-18 101 OFFCURVE",
"81 -20 OFFCURVE",
"321 -20 CURVE SMOOTH",
"580 -20 OFFCURVE",
"670 119 OFFCURVE",
"670 302 CURVE SMOOTH"
);
},
{
closed = 1;
nodes = (
"276 510 OFFCURVE",
"291 546 OFFCURVE",
"324 546 CURVE SMOOTH",
"361 546 OFFCURVE",
"376 510 OFFCURVE",
"376 297 CURVE SMOOTH",
"376 90 OFFCURVE",
"361 54 OFFCURVE",
"328 54 CURVE SMOOTH",
"291 54 OFFCURVE",
"276 90 OFFCURVE",
"276 303 CURVE SMOOTH"
);
}
);
};
guideLines = (
{
angle = -3.7295;
position = "{318, 479}";
},
{
angle = -3.7295;
position = "{291, 153}";
}
);
layerId = "6F4CEA83-0BC5-40EE-BC7B-A008A5EDFD33";
name = "Bold May 14 16, 15:38";
paths = (
{
closed = 1;
nodes = (
"423 87 OFFCURVE",
"377 65 OFFCURVE",
"309 65 CURVE",
"212 65 OFFCURVE",
"120 108 OFFCURVE",
"82 172 CURVE",
"40 155 OFFCURVE",
"14 99 OFFCURVE",
"21 52 CURVE",
"74.578 7.777 OFFCURVE",
"177.583 -20 OFFCURVE",
"288 -20 CURVE",
"487.451 -20 OFFCURVE",
"619 88.896 OFFCURVE",
"619 254 CURVE",
"619 558.852 OFFCURVE",
"229 405.089 OFFCURVE",
"229 493.991 CURVE",
"230 523 OFFCURVE",
"274 543 OFFCURVE",
"334 543 CURVE",
"426 543 OFFCURVE",
"506 504 OFFCURVE",
"526 449 CURVE",
"573 454 OFFCURVE",
"609 496 OFFCURVE",
"609 544 CURVE",
"542.565 593.01 OFFCURVE",
"448.454 620 OFFCURVE",
"344 620 CURVE",
"156.079 620 OFFCURVE",
"28 517.861 OFFCURVE",
"28 368 CURVE",
"28 51 OFFCURVE",
"423 221 OFFCURVE",
"423 121.441 CURVE"
);
}
);
width = 644;
},
{
associatedMasterId = "15808E89-C4EA-4701-A327-0721774450FF";
background = {
paths = (
{
closed = 1;
nodes = (
"680 498 OFFCURVE",
"581 620 OFFCURVE",
"341 620 CURVE SMOOTH",
"81 620 OFFCURVE",
"-8 481 OFFCURVE",
"-8 297 CURVE SMOOTH",
"-8 101 OFFCURVE",
"91 -20 OFFCURVE",
"331 -20 CURVE SMOOTH",
"590 -20 OFFCURVE",
"680 119 OFFCURVE",
"680 302 CURVE SMOOTH"
);
},
{
closed = 1;
nodes = (
"286 510 OFFCURVE",
"301 546 OFFCURVE",
"334 546 CURVE SMOOTH",
"371 546 OFFCURVE",
"386 510 OFFCURVE",
"386 297 CURVE SMOOTH",
"386 90 OFFCURVE",
"371 54 OFFCURVE",
"338 54 CURVE SMOOTH",
"301 54 OFFCURVE",
"286 90 OFFCURVE",
"286 303 CURVE SMOOTH"
);
}
);
};
guideLines = (
{
angle = -1.7115;
position = "{366, 459}";
},
{
angle = -1.7115;
position = "{286, 160}";
}
);
layerId = "329E8FDF-7147-4201-A618-AC60F4941C1F";
name = "Bold May 14 16, 16:06";
paths = (
{
closed = 1;
nodes = (
"433 94 OFFCURVE",
"397 65 OFFCURVE",
"324 65 CURVE",
"225 65 OFFCURVE",
"134 117 OFFCURVE",
"96 181 CURVE",
"67 158 OFFCURVE",
"31 92 OFFCURVE",
"31 56 CURVE",
"85 10 OFFCURVE",
"188 -20 OFFCURVE",
"298 -20 CURVE",
"526.758 -20 OFFCURVE",
"629 106.439 OFFCURVE",
"629 254 CURVE",
"629 559 OFFCURVE",
"239 405 OFFCURVE",
"239 494 CURVE",
"239 523 OFFCURVE",
"281 543 OFFCURVE",
"345 543 CURVE",
"431 543 OFFCURVE",
"510 507 OFFCURVE",
"547 454 CURVE",
"580 469 OFFCURVE",
"611 519 OFFCURVE",
"611 558 CURVE",
"544 601 OFFCURVE",
"449 620 OFFCURVE",
"362 620 CURVE",
"122.621 620 OFFCURVE",
"38 497.033 OFFCURVE",
"38 368 CURVE",
"38 53 OFFCURVE",
"433 219 OFFCURVE",
"433 121 CURVE"
);
}
);
width = 664;
},
{
associatedMasterId = "15808E89-C4EA-4701-A327-0721774450FF";
background = {
paths = (
{
closed = 1;
nodes = (
"680 498 OFFCURVE",
"581 620 OFFCURVE",
"341 620 CURVE SMOOTH",
"81 620 OFFCURVE",
"-8 481 OFFCURVE",
"-8 297 CURVE SMOOTH",
"-8 101 OFFCURVE",
"91 -20 OFFCURVE",
"331 -20 CURVE SMOOTH",
"590 -20 OFFCURVE",
"680 119 OFFCURVE",
"680 302 CURVE SMOOTH"
);
},
{
closed = 1;
nodes = (
"286 510 OFFCURVE",
"301 546 OFFCURVE",
"334 546 CURVE SMOOTH",
"371 546 OFFCURVE",
"386 510 OFFCURVE",
"386 297 CURVE SMOOTH",
"386 90 OFFCURVE",
"371 54 OFFCURVE",
"338 54 CURVE SMOOTH",
"301 54 OFFCURVE",
"286 90 OFFCURVE",
"286 303 CURVE SMOOTH"
);
}
);
};
guideLines = (
{
angle = -1.7115;
position = "{366, 469}";
},
{
angle = -1.7115;
position = "{286, 150}";
}
);
layerId = "5EAEFDF9-2EFE-4288-AD8F-B353A6A330EB";
name = "Bold May 14 16, 16:12";
paths = (
{
closed = 1;
nodes = (
"433 82 OFFCURVE",
"390 65 OFFCURVE",
"334 65 CURVE",
"253 65 OFFCURVE",
"144 100 OFFCURVE",
"96 181 CURVE",
"67 158 OFFCURVE",
"31 92 OFFCURVE",
"31 56 CURVE",
"85 10 OFFCURVE",
"188 -20 OFFCURVE",
"298 -20 CURVE",
"527 -20 OFFCURVE",
"629 98.655 OFFCURVE",
"629 254 CURVE",
"629 555.824 OFFCURVE",
"239 419.983 OFFCURVE",
"239 504 CURVE",
"239 530 OFFCURVE",
"280 544 OFFCURVE",
"332 544 CURVE",
"406 544 OFFCURVE",
"504 516 OFFCURVE",
"547 454 CURVE",
"580 469 OFFCURVE",
"611 519 OFFCURVE",
"611 558 CURVE",
"544 601 OFFCURVE",
"449 620 OFFCURVE",
"362 620 CURVE",
"125.775 620 OFFCURVE",
"38 507.342 OFFCURVE",
"38 368 CURVE",
"38 51.771 OFFCURVE",
"433 205.287 OFFCURVE",
"433 111 CURVE"
);
}
);
width = 664;
},
{
associatedMasterId = "15808E89-C4EA-4701-A327-0721774450FF";
background = {
paths = (
{
closed = 1;
nodes = (
"680 498 OFFCURVE",
"581 620 OFFCURVE",
"341 620 CURVE SMOOTH",
"81 620 OFFCURVE",
"-8 481 OFFCURVE",
"-8 297 CURVE SMOOTH",
"-8 101 OFFCURVE",
"91 -20 OFFCURVE",
"331 -20 CURVE SMOOTH",
"590 -20 OFFCURVE",
"680 119 OFFCURVE",
"680 302 CURVE SMOOTH"
);
},
{
closed = 1;
nodes = (
"286 510 OFFCURVE",
"301 546 OFFCURVE",
"334 546 CURVE SMOOTH",
"371 546 OFFCURVE",
"386 510 OFFCURVE",
"386 297 CURVE SMOOTH",
"386 90 OFFCURVE",
"371 54 OFFCURVE",
"338 54 CURVE SMOOTH",
"301 54 OFFCURVE",
"286 90 OFFCURVE",
"286 303 CURVE SMOOTH"
);
}
);
};
guideLines = (
{
angle = -1.7115;
position = "{76, 586}";
},
{
angle = -1.7115;
position = "{59, 379}";
}
);
layerId = "B8CE86B1-3B1C-40A3-81CC-116E153478F0";
name = "Bold May 14 16, 16:14";
paths = (
{
closed = 1;
nodes = (
"420 81.251 OFFCURVE",
"379.803 65.123 OFFCURVE",
"326.665 65.123 CURVE",
"247.435 65.123 OFFCURVE",
"139.432 100.978 OFFCURVE",
"93 181 CURVE",
"65 158 OFFCURVE",
"30 92 OFFCURVE",
"30 56 CURVE",
"88.597 7.688 OFFCURVE",
"182.859 -19.734 OFFCURVE",
"278.51 -19.734 CURVE",
"442.22 -19.734 OFFCURVE",
"610 60.595 OFFCURVE",
"610 254 CURVE",
"610 556 OFFCURVE",
"232 420 OFFCURVE",
"232 504 CURVE",
"232 530.424 OFFCURVE",
"269.548 543.909 OFFCURVE",
"318.846 543.909 CURVE",
"391.62 543.909 OFFCURVE",
"490 514.524 OFFCURVE",
"531 454 CURVE",
"563 469 OFFCURVE",
"593 519 OFFCURVE",
"593 558 CURVE",
"528.768 597.474 OFFCURVE",
"439.904 619.854 OFFCURVE",
"352.051 619.854 CURVE",
"192.866 619.854 OFFCURVE",
"37 546.38 OFFCURVE",
"37 368 CURVE",
"37 52 OFFCURVE",
"420 205 OFFCURVE",
"420 111 CURVE"
);
}
);
width = 644;
},
{
associatedMasterId = "15808E89-C4EA-4701-A327-0721774450FF";
layerId = "7E2B7F0D-6531-4AE0-AA36-31455880F601";
name = "Bold May 14 16, 18:35";
paths = (
{
closed = 1;
nodes = (
"46 178 OFFCURVE",
"5 104 OFFCURVE",
"14 46 CURVE",
"90 -1 OFFCURVE",
"175 -20 OFFCURVE",
"255 -20 CURVE SMOOTH",
"422 -20 OFFCURVE",
"566 66 OFFCURVE",
"566 181 CURVE SMOOTH",
"566 348 OFFCURVE",
"282 459 OFFCURVE",
"284 546 CURVE SMOOTH",
"284 555 OFFCURVE",
"290 559 OFFCURVE",
"299 559 CURVE SMOOTH",
"332 559 OFFCURVE",
"407 498 OFFCURVE",
"437 408 CURVE",
"498 438 OFFCURVE",
"539 495 OFFCURVE",
"535 561 CURVE",
"451 607 OFFCURVE",
"374 620 OFFCURVE",
"304 620 CURVE SMOOTH",
"125 619 OFFCURVE",
"21 534 OFFCURVE",
"21 428 CURVE SMOOTH",
"21 256 OFFCURVE",
"284 173 OFFCURVE",
"282 71 CURVE SMOOTH",
"282 58 OFFCURVE",
"272 48 OFFCURVE",
"255 48 CURVE SMOOTH",
"224 48 OFFCURVE",
"171 85 OFFCURVE",
"113 207 CURVE"
);
}
);
width = 644;
}
);
unicode = 0073;
},
{
glyphname = t;
lastChange = "2016-08-06 13:12:27 +0000";
layers = (
{
background = {
paths = (
{
closed = 1;
nodes = (
"267 617 OFFCURVE",
"153 612 OFFCURVE",
"62 588 CURVE",
"78 503 OFFCURVE",
"78 309 OFFCURVE",
"78 211 CURVE SMOOTH",
"78 50 OFFCURVE",
"140 -21 OFFCURVE",
"255 -21 CURVE SMOOTH",
"368 -21 OFFCURVE",
"465 53 OFFCURVE",
"482 180 CURVE",
"472 197 LINE",
"457 171 OFFCURVE",
"436 159 OFFCURVE",
"417 159 CURVE SMOOTH",
"391 159 OFFCURVE",
"368 178 OFFCURVE",
"368 216 CURVE SMOOTH",
"368 312 OFFCURVE",
"368 489 OFFCURVE",
"362 599 CURVE"
);
}
);
};
layerId = "15808E89-C4EA-4701-A327-0721774450FF";
paths = (
{
closed = 1;
nodes = (
"366 357 OFFCURVE",
"367 558 OFFCURVE",
"372 737 CURVE",
"306 750 OFFCURVE",
"219 750 OFFCURVE",
"154 729 CURVE",
"130 679 OFFCURVE",
"104 597 OFFCURVE",
"87 519 CURVE",
"78 504 LINE",
"78 241 LINE SMOOTH",
"78 75 OFFCURVE",
"156 -21 OFFCURVE",
"310 -21 CURVE SMOOTH",
"424 -21 OFFCURVE",
"499 31 OFFCURVE",
"538 92 CURVE",
"534 110 OFFCURVE",
"515 128 OFFCURVE",
"498 135 CURVE",
"477 115 OFFCURVE",
"455 106 OFFCURVE",
"432 106 CURVE SMOOTH",
"391 106 OFFCURVE",
"369 135 OFFCURVE",
"368 203 CURVE SMOOTH"
);
},
{
closed = 1;
nodes = (
"158 479 OFFCURVE",
"325 491 OFFCURVE",
"519 483 CURVE",
"527 512 OFFCURVE",
"526 539 OFFCURVE",
"519 565 CURVE",
"324 558 OFFCURVE",
"153 561 OFFCURVE",
"14 548 CURVE",
"10 519 OFFCURVE",
"12 492 OFFCURVE",
"22 467 CURVE"
);
}
);
width = 556;
},
{
associatedMasterId = "15808E89-C4EA-4701-A327-0721774450FF";
background = {
paths = (
{
closed = 1;
nodes = (
"231 617 OFFCURVE",
"117 612 OFFCURVE",
"26 588 CURVE",
"42 503 OFFCURVE",
"42 309 OFFCURVE",
"42 211 CURVE SMOOTH",
"42 50 OFFCURVE",
"104 -21 OFFCURVE",
"219 -21 CURVE SMOOTH",
"332 -21 OFFCURVE",
"429 53 OFFCURVE",
"446 180 CURVE",
"436 197 LINE",
"421 171 OFFCURVE",
"400 159 OFFCURVE",
"381 159 CURVE SMOOTH",
"355 159 OFFCURVE",
"332 178 OFFCURVE",
"332 216 CURVE SMOOTH",
"332 312 OFFCURVE",
"332 489 OFFCURVE",
"326 599 CURVE"
);
}
);
};
layerId = "933EDA12-3A26-4F6B-B9E2-F3771EF910AD";
name = "Bold Jun 17 16, 16:39";
paths = (
{
closed = 1;
nodes = (
"330 362 OFFCURVE",
"331 560 OFFCURVE",
"336 737 CURVE",
"292 743 OFFCURVE",
"248 746 OFFCURVE",
"205 746 CURVE SMOOTH",
"150 746 OFFCURVE",
"97 741 OFFCURVE",
"45 729 CURVE",
"41 547 OFFCURVE",
"40 345 OFFCURVE",
"42 192 CURVE SMOOTH",
"42 66 OFFCURVE",
"114 -21 OFFCURVE",
"266 -21 CURVE SMOOTH",
"384 -21 OFFCURVE",
"463 31 OFFCURVE",
"502 92 CURVE",
"498 114 OFFCURVE",
"484 132 OFFCURVE",
"462 142 CURVE",
"441 122 OFFCURVE",
"419 113 OFFCURVE",
"396 113 CURVE SMOOTH",
"355 113 OFFCURVE",
"333 142 OFFCURVE",
"332 210 CURVE SMOOTH"
);
}
);
width = 600;
}
);
unicode = 0074;
},
{
glyphname = v;
lastChange = "2016-08-06 13:12:27 +0000";
layers = (
{
associatedMasterId = "15808E89-C4EA-4701-A327-0721774450FF";
background = {
paths = (
{
closed = 1;
nodes = (
"148 213 OFFCURVE",
"112 447 OFFCURVE",
"129 600 CURVE",
"73 608 OFFCURVE",
"20 604 OFFCURVE",
"-32 586 CURVE",
"-9 388 OFFCURVE",
"52 193 OFFCURVE",
"158 0 CURVE",
"247 -13 OFFCURVE",
"335 -16 OFFCURVE",
"422 -13 CURVE",
"495 167 OFFCURVE",
"556 359 OFFCURVE",
"607 561 CURVE",
"512 598 OFFCURVE",
"413 614 OFFCURVE",
"313 608 CURVE",
"273 413 OFFCURVE",
"228 238 OFFCURVE",
"176 72 CURVE",
"208 69 LINE"
);
}
);
};
layerId = "2DC37AE0-895A-4737-B6CD-1B78D22F529B";
name = "Bold Jun 17 16, 17:59";
paths = (
{
closed = 1;
nodes = (
"409 72 LINE",
"351 238 OFFCURVE",
"302 412 OFFCURVE",
"265 608 CURVE",
"165 614 OFFCURVE",
"66 598 OFFCURVE",
"-29 561 CURVE",
"19 358 OFFCURVE",
"86 167 OFFCURVE",
"166 -13 CURVE",
"249 -16 OFFCURVE",
"333 -13 OFFCURVE",
"418 0 CURVE",
"525 193 OFFCURVE",
"587 388 OFFCURVE",
"610 586 CURVE",
"558 604 OFFCURVE",
"505 608 OFFCURVE",
"449 600 CURVE",
"465 415 OFFCURVE",
"430 213 OFFCURVE",
"370 69 CURVE"
);
}
);
width = 591;
},
{
layerId = "15808E89-C4EA-4701-A327-0721774450FF";
paths = (
{
closed = 1;
nodes = (
"397 41 LINE",
"359 277 OFFCURVE",
"301 532 OFFCURVE",
"272 600 CURVE",
"163 603 OFFCURVE",
"61 595 OFFCURVE",
"-29 576 CURVE",
"156 -13 LINE",
"239 -16 OFFCURVE",
"322 -13 OFFCURVE",
"407 0 CURVE",
"597 602 LINE",
"543 606 OFFCURVE",
"499 603 OFFCURVE",
"461 591 CURVE",
"447 543 OFFCURVE",
"406 275 OFFCURVE",
"375 41 CURVE"
);
}
);
width = 591;
},
{
associatedMasterId = "15808E89-C4EA-4701-A327-0721774450FF";
layerId = "0EE766EB-8A41-40C2-81A1-E42E51D67DBF";
name = "Bold Jul 9 16, 17:37";
paths = (
{
closed = 1;
nodes = (
"397 41 LINE",
"359 277 OFFCURVE",
"301 532 OFFCURVE",
"272 600 CURVE",
"163 603 OFFCURVE",
"61 595 OFFCURVE",
"-29 576 CURVE",
"156 -13 LINE",
"239 -16 OFFCURVE",
"322 -13 OFFCURVE",
"407 0 CURVE",
"597 602 LINE",
"543 606 OFFCURVE",
"499 603 OFFCURVE",
"461 591 CURVE",
"447 543 OFFCURVE",
"406 275 OFFCURVE",
"375 41 CURVE"
);
}
);
width = 591;
}
);
unicode = 0076;
},
{
glyphname = w;
lastChange = "2016-08-06 13:12:27 +0000";
layers = (
{
background = {
paths = (
{
closed = 1;
nodes = (
"382 117 LINE",
"359 316 OFFCURVE",
"325 540 OFFCURVE",
"307 600 CURVE",
"195 603 OFFCURVE",
"90 595 OFFCURVE",
"-3 576 CURVE",
"153 -13 LINE",
"244 -16 OFFCURVE",
"334 -13 OFFCURVE",
"427 0 CURVE",
"556 540 LINE",
"423 576 LINE",
"412 508 OFFCURVE",
"387 293 OFFCURVE",
"370 117 CURVE"
);
},
{
closed = 1;
nodes = (
"808 117 LINE",
"785 316 OFFCURVE",
"750 540 OFFCURVE",
"733 600 CURVE",
"621 603 OFFCURVE",
"516 595 OFFCURVE",
"423 576 CURVE",
"442 540 LINE",
"579 -13 LINE",
"670 -16 OFFCURVE",
"760 -13 OFFCURVE",
"853 0 CURVE",
"1008 602 LINE",
"946 606 OFFCURVE",
"896 603 OFFCURVE",
"852 591 CURVE",
"843 547 OFFCURVE",
"815 309 OFFCURVE",
"796 117 CURVE"
);
}
);
};
layerId = "15808E89-C4EA-4701-A327-0721774450FF";
paths = (
{
closed = 1;
nodes = (
"393 41 LINE",
"365 277 OFFCURVE",
"323 532 OFFCURVE",
"302 600 CURVE",
"193 603 OFFCURVE",
"91 595 OFFCURVE",
"1 576 CURVE",
"156 -13 LINE",
"239 -16 OFFCURVE",
"322 -13 OFFCURVE",
"407 0 CURVE",
"551 542 LINE",
"429 576 LINE",
"419 502 OFFCURVE",
"397 257 OFFCURVE",
"379 41 CURVE"
);
},
{
closed = 1;
nodes = (
"821 41 LINE",
"793 277 OFFCURVE",
"751 532 OFFCURVE",
"730 600 CURVE",
"621 603 OFFCURVE",
"519 595 OFFCURVE",
"429 576 CURVE",
"584 -13 LINE",
"667 -16 OFFCURVE",
"750 -13 OFFCURVE",
"835 0 CURVE",
"995 602 LINE",
"941 606 OFFCURVE",
"897 603 OFFCURVE",
"859 591 CURVE",
"851 543 OFFCURVE",
"826 275 OFFCURVE",
"807 41 CURVE"
);
}
);
width = 1010;
},
{
associatedMasterId = "15808E89-C4EA-4701-A327-0721774450FF";
background = {
paths = (
{
closed = 1;
nodes = (
"898 117 LINE",
"793 603 LINE",
"680 603 OFFCURVE",
"582 596 OFFCURVE",
"489 576 CURVE",
"667 -13 LINE",
"758 -16 OFFCURVE",
"848 -13 OFFCURVE",
"941 0 CURVE",
"1118 602 LINE",
"987 600 LINE",
"882 117 LINE"
);
}
);
};
layerId = "5BDCE42D-58DE-4A1E-8E2B-892F958B9738";
name = "Bold Jun 17 16, 17:59 Jun 17 16, 18:00";
paths = (
{
closed = 1;
nodes = (
"827 72 LINE",
"777 238 OFFCURVE",
"735 412 OFFCURVE",
"703 608 CURVE",
"603 614 OFFCURVE",
"504 598 OFFCURVE",
"409 561 CURVE",
"457 358 OFFCURVE",
"524 167 OFFCURVE",
"604 -13 CURVE",
"676 -16 OFFCURVE",
"750 -13 OFFCURVE",
"823 0 CURVE",
"924 193 OFFCURVE",
"983 388 OFFCURVE",
"1005 586 CURVE",
"953 604 OFFCURVE",
"900 608 OFFCURVE",
"844 600 CURVE",
"856 415 OFFCURVE",
"830 213 OFFCURVE",
"785 69 CURVE"
);
},
{
closed = 1;
nodes = (
"389 72 LINE",
"339 238 OFFCURVE",
"297 412 OFFCURVE",
"265 608 CURVE",
"165 614 OFFCURVE",
"66 598 OFFCURVE",
"-29 561 CURVE",
"19 358 OFFCURVE",
"86 167 OFFCURVE",
"166 -13 CURVE",
"238 -16 OFFCURVE",
"312 -13 OFFCURVE",
"385 0 CURVE",
"486 193 OFFCURVE",
"545 388 OFFCURVE",
"567 586 CURVE",
"409 561 LINE",
"415 387 OFFCURVE",
"389 203 OFFCURVE",
"347 69 CURVE"
);
}
);
width = 1010;
},
{
associatedMasterId = "15808E89-C4EA-4701-A327-0721774450FF";
background = {
paths = (
{
closed = 1;
nodes = (
"898 117 LINE",
"793 603 LINE",
"680 603 OFFCURVE",
"582 596 OFFCURVE",
"489 576 CURVE",
"667 -13 LINE",
"758 -16 OFFCURVE",
"848 -13 OFFCURVE",
"941 0 CURVE",
"1118 602 LINE",
"987 600 LINE",
"882 117 LINE"
);
}
);
};
layerId = "076D4FB6-78CC-4C46-B287-DC278852413D";
name = "Bold Jun 18 16, 09:33";
paths = (
{
closed = 1;
nodes = (
"382 117 LINE",
"359 316 OFFCURVE",
"325 540 OFFCURVE",
"307 600 CURVE",
"195 603 OFFCURVE",
"90 595 OFFCURVE",
"-3 576 CURVE",
"153 -13 LINE",
"244 -16 OFFCURVE",
"334 -13 OFFCURVE",
"427 0 CURVE",
"556 540 LINE",
"423 576 LINE",
"412 508 OFFCURVE",
"387 293 OFFCURVE",
"370 117 CURVE"
);
},
{
closed = 1;
nodes = (
"808 117 LINE",
"785 316 OFFCURVE",
"750 540 OFFCURVE",
"733 600 CURVE",
"621 603 OFFCURVE",
"516 595 OFFCURVE",
"423 576 CURVE",
"442 540 LINE",
"579 -13 LINE",
"670 -16 OFFCURVE",
"760 -13 OFFCURVE",
"853 0 CURVE",
"1008 602 LINE",
"946 606 OFFCURVE",
"896 603 OFFCURVE",
"852 591 CURVE",
"843 547 OFFCURVE",
"815 309 OFFCURVE",
"796 117 CURVE"
);
}
);
width = 1010;
}
);
unicode = 0077;
},
{
glyphname = x;
lastChange = "2016-08-06 13:12:27 +0000";
layers = (
{
layerId = "15808E89-C4EA-4701-A327-0721774450FF";
paths = (
{
closed = 1;
nodes = (
"441 287 LINE",
"397 419 OFFCURVE",
"331 562 OFFCURVE",
"297 600 CURVE",
"181 603 OFFCURVE",
"73 595 OFFCURVE",
"-23 576 CURVE",
"198 267 LINE",
"390 280 LINE",
"627 602 LINE",
"565 606 OFFCURVE",
"515 603 OFFCURVE",
"471 591 CURVE",
"453 568 OFFCURVE",
"397 440 OFFCURVE",
"356 327 CURVE"
);
},
{
closed = 1;
nodes = (
"193 316 LINE",
"237 184 OFFCURVE",
"303 41 OFFCURVE",
"337 3 CURVE",
"453 0 OFFCURVE",
"561 8 OFFCURVE",
"657 27 CURVE",
"427 348 LINE",
"239 323 LINE",
"2 1 LINE",
"64 -3 OFFCURVE",
"114 0 OFFCURVE",
"158 12 CURVE",
"176 35 OFFCURVE",
"232 163 OFFCURVE",
"273 276 CURVE"
);
}
);
width = 645;
}
);
unicode = 0078;
},
{
glyphname = y;
lastChange = "2016-08-06 13:12:27 +0000";
layers = (
{
associatedMasterId = "15808E89-C4EA-4701-A327-0721774450FF";
guideLines = (
{
angle = 72.4835;
position = "{522, 301}";
}
);
layerId = "651A9468-76F5-46D5-A561-34A732CF3491";
name = "Bold Jul 11 16, 15:57";
paths = (
{
closed = 1;
nodes = (
"231 -53 OFFCURVE",
"141 -130 OFFCURVE",
"105 -179 CURVE",
"171 -211 OFFCURVE",
"264 -222 OFFCURVE",
"344 -200 CURVE",
"407 0 LINE",
"367 4 LINE"
);
},
{
closed = 1;
nodes = (
"397 41 LINE",
"359 277 OFFCURVE",
"301 532 OFFCURVE",
"272 600 CURVE",
"163 603 OFFCURVE",
"61 595 OFFCURVE",
"-29 576 CURVE",
"156 -13 LINE",
"239 -16 OFFCURVE",
"322 -13 OFFCURVE",
"407 0 CURVE",
"597 602 LINE",
"543 606 OFFCURVE",
"499 603 OFFCURVE",
"461 591 CURVE",
"447 543 OFFCURVE",
"406 275 OFFCURVE",
"375 41 CURVE"
);
}
);
width = 591;
},
{
background = {
paths = (
{
closed = 1;
nodes = (
"363 41 LINE",
"318 -46 OFFCURVE",
"168 -54 OFFCURVE",
"42 -21 CURVE",
"3 -123 OFFCURVE",
"47 -221 OFFCURVE",
"190 -220 CURVE SMOOTH",
"314 -219 OFFCURVE",
"361 -146 OFFCURVE",
"407 0 CURVE SMOOTH",
"597 602 LINE",
"543 606 OFFCURVE",
"499 603 OFFCURVE",
"461 591 CURVE",
"447 543 OFFCURVE",
"406 275 OFFCURVE",
"375 41 CURVE"
);
}
);
};
guideLines = (
{
angle = 102.814;
position = "{410, 442}";
}
);
layerId = "15808E89-C4EA-4701-A327-0721774450FF";
paths = (
{
closed = 1;
nodes = (
"272 600 LINE",
"163 603 OFFCURVE",
"61 595 OFFCURVE",
"-29 576 CURVE",
"164 23 LINE",
"248 16 OFFCURVE",
"332 21 OFFCURVE",
"417 41 CURVE"
);
},
{
closed = 1;
nodes = (
"574 581 OFFCURVE",
"519 622 OFFCURVE",
"397.674 587.23 CURVE",
"436.256 496.232 OFFCURVE",
"453.272 175.164 OFFCURVE",
"410 51 CURVE",
"373 44 LINE",
"334 -10 OFFCURVE",
"159 -15 OFFCURVE",
"11 7 CURVE",
"-28 -109 OFFCURVE",
"52 -221 OFFCURVE",
"173 -220 CURVE",
"295 -218.992 OFFCURVE",
"383.982 -115.045 OFFCURVE",
"450 47 CURVE SMOOTH",
"515 208 OFFCURVE",
"574 432 OFFCURVE",
"574 507 CURVE SMOOTH"
);
}
);
width = 591;
}
);
rightMetricsKey = v;
unicode = 0079;
},
{
glyphname = z;
lastChange = "2016-08-22 14:22:59 +0000";
layers = (
{
layerId = "15808E89-C4EA-4701-A327-0721774450FF";
paths = (
{
closed = 1;
nodes = (
"574 600 LINE",
"390 605 OFFCURVE",
"205 606 OFFCURVE",
"18 600 CURVE",
"11 555 OFFCURVE",
"22 481 OFFCURVE",
"41 442 CURVE",
"390 545 LINE"
);
},
{
closed = 1;
nodes = (
"133 0 LINE",
"603 0 LINE",
"620 40 OFFCURVE",
"626 113 OFFCURVE",
"611 154 CURVE",
"176 56 LINE"
);
},
{
closed = 1;
nodes = (
"208 424 OFFCURVE",
"108 247 OFFCURVE",
"16 64 CURVE",
"21 44 OFFCURVE",
"34 16 OFFCURVE",
"49 0 CURVE",
"312 0 LINE",
"416 175 OFFCURVE",
"515 353 OFFCURVE",
"607 536 CURVE",
"603 561 OFFCURVE",
"591 583 OFFCURVE",
"574 600 CURVE",
"311 600 LINE"
);
}
);
width = 628;
}
);
unicode = 007A;
},
{
glyphname = i.ss01;
lastChange = "2016-08-06 13:12:27 +0000";
layers = (
{
layerId = "15808E89-C4EA-4701-A327-0721774450FF";
paths = (
{
closed = 1;
nodes = (
"86 572 OFFCURVE",
"142 510 OFFCURVE",
"253 510 CURVE SMOOTH",
"361 510 OFFCURVE",
"423 570 OFFCURVE",
"423 667 CURVE SMOOTH",
"423 759 OFFCURVE",
"367 821 OFFCURVE",
"256 821 CURVE SMOOTH",
"148 821 OFFCURVE",
"86 760 OFFCURVE",
"86 664 CURVE SMOOTH"
);
},
{
closed = 1;
nodes = (
"104 451 LINE",
"101 269 OFFCURVE",
"105 83 OFFCURVE",
"109 0 CURVE",
"206 -20 OFFCURVE",
"311 -13 OFFCURVE",
"399 11 CURVE",
"394 91 OFFCURVE",
"393 285 OFFCURVE",
"396 471 CURVE"
);
},
{
closed = 1;
nodes = (
"103 393 OFFCURVE",
"184 392 OFFCURVE",
"274 392 CURVE",
"396 471 LINE",
"255 472 OFFCURVE",
"128 472 OFFCURVE",
"21 474 CURVE",
"17 445 OFFCURVE",
"19 418 OFFCURVE",
"29 393 CURVE"
);
}
);
width = 473;
}
);
},
{
glyphname = zero;
lastChange = "2016-08-06 09:52:48 +0000";
layers = (
{
layerId = "15808E89-C4EA-4701-A327-0721774450FF";
paths = (
{
closed = 1;
nodes = (
"320 604 OFFCURVE",
"334 699 OFFCURVE",
"362 699 CURVE SMOOTH",
"393 699 OFFCURVE",
"408 572 OFFCURVE",
"408 343 CURVE SMOOTH",
"408 129 OFFCURVE",
"394 35 OFFCURVE",
"366 35 CURVE SMOOTH",
"335 35 OFFCURVE",
"320 160 OFFCURVE",
"320 390 CURVE SMOOTH"
);
},
{
closed = 1;
nodes = (
"157 754 OFFCURVE",
"50 589 OFFCURVE",
"50 358 CURVE SMOOTH",
"50 137 OFFCURVE",
"166 -10 OFFCURVE",
"360 -10 CURVE SMOOTH",
"571 -10 OFFCURVE",
"678 150 OFFCURVE",
"678 374 CURVE SMOOTH",
"678 602 OFFCURVE",
"562 754 OFFCURVE",
"368 754 CURVE SMOOTH"
);
}
);
width = 728;
}
);
unicode = 0030;
},
{
glyphname = one;
lastChange = "2016-08-06 09:52:48 +0000";
layers = (
{
layerId = "15808E89-C4EA-4701-A327-0721774450FF";
paths = (
{
closed = 1;
nodes = (
"416 742 OFFCURVE",
"372 745 OFFCURVE",
"328 745 CURVE SMOOTH",
"290 745 OFFCURVE",
"253 743 OFFCURVE",
"223 738 CURVE",
"185 666 LINE",
"159 539 OFFCURVE",
"158 485 OFFCURVE",
"155 415 CURVE SMOOTH",
"150 269 OFFCURVE",
"151 128 OFFCURVE",
"153 41 CURVE",
"447 41 LINE",
"442 180 OFFCURVE",
"442 464 OFFCURVE",
"448 737 CURVE"
);
},
{
closed = 1;
nodes = (
"177 -3 OFFCURVE",
"359 5 OFFCURVE",
"573 0 CURVE",
"581 29 OFFCURVE",
"580 56 OFFCURVE",
"573 82 CURVE",
"359 75 OFFCURVE",
"172 78 OFFCURVE",
"19 65 CURVE",
"15 38 OFFCURVE",
"17 13 OFFCURVE",
"27 -10 CURVE"
);
},
{
closed = 1;
nodes = (
"223 738 LINE",
"184 657 OFFCURVE",
"85 630 OFFCURVE",
"-1 644 CURVE",
"-17 587 OFFCURVE",
"14 520 OFFCURVE",
"71 520 CURVE SMOOTH",
"136 520 OFFCURVE",
"214 608 OFFCURVE",
"246 704 CURVE"
);
}
);
width = 570;
},
{
associatedMasterId = "15808E89-C4EA-4701-A327-0721774450FF";
layerId = "0BA3B6B4-476A-4681-81D8-9C743E398991";
name = "Bold Aug 5 16, 01:20";
paths = (
{
closed = 1;
nodes = (
"418 743 OFFCURVE",
"373 746 OFFCURVE",
"328 746 CURVE SMOOTH",
"269 746 OFFCURVE",
"211 740 OFFCURVE",
"159 729 CURVE",
"154 454 OFFCURVE",
"154 179 OFFCURVE",
"158 41 CURVE",
"459 41 LINE",
"454 180 OFFCURVE",
"454 464 OFFCURVE",
"460 737 CURVE"
);
},
{
closed = 1;
nodes = (
"197 -4 OFFCURVE",
"364 8 OFFCURVE",
"558 0 CURVE",
"566 29 OFFCURVE",
"565 56 OFFCURVE",
"558 82 CURVE",
"363 75 OFFCURVE",
"192 78 OFFCURVE",
"53 65 CURVE",
"49 36 OFFCURVE",
"51 9 OFFCURVE",
"61 -16 CURVE"
);
},
{
closed = 1;
nodes = (
"211 730 LINE",
"211 608 OFFCURVE",
"83 598 OFFCURVE",
"19 668 CURVE",
"-24 565 OFFCURVE",
"13 463 OFFCURVE",
"93 463 CURVE SMOOTH",
"188 463 OFFCURVE",
"225 606 OFFCURVE",
"225 730 CURVE"
);
}
);
width = 600;
},
{
associatedMasterId = "15808E89-C4EA-4701-A327-0721774450FF";
layerId = "524F77DC-EB58-4889-949C-EB55DDA0A5EA";
name = "Bold Aug 5 16, 01:25";
paths = (
{
closed = 1;
nodes = (
"418 743 OFFCURVE",
"373 746 OFFCURVE",
"328 746 CURVE SMOOTH",
"288 746 OFFCURVE",
"249 743 OFFCURVE",
"228 738 CURVE",
"221 666 LINE",
"185 537 OFFCURVE",
"163 485 OFFCURVE",
"160 415 CURVE SMOOTH",
"155 269 OFFCURVE",
"156 128 OFFCURVE",
"158 41 CURVE",
"459 41 LINE",
"454 180 OFFCURVE",
"454 464 OFFCURVE",
"460 737 CURVE"
);
},
{
closed = 1;
nodes = (
"197 -4 OFFCURVE",
"364 8 OFFCURVE",
"558 0 CURVE",
"566 29 OFFCURVE",
"565 56 OFFCURVE",
"558 82 CURVE",
"363 75 OFFCURVE",
"192 78 OFFCURVE",
"53 65 CURVE",
"49 36 OFFCURVE",
"51 9 OFFCURVE",
"61 -16 CURVE"
);
},
{
closed = 1;
nodes = (
"228 738 LINE",
"210 616 OFFCURVE",
"83 606 OFFCURVE",
"19 676 CURVE",
"-32 580 OFFCURVE",
"13 458 OFFCURVE",
"90 458 CURVE SMOOTH",
"183 458 OFFCURVE",
"219 608 OFFCURVE",
"236 738 CURVE"
);
}
);
width = 600;
},
{
associatedMasterId = "15808E89-C4EA-4701-A327-0721774450FF";
layerId = "88D21C11-FA50-422D-AE0F-7DCF6F333B50";
name = "Bold Aug 5 16, 22:04";
paths = (
{
closed = 1;
nodes = (
"418 743 OFFCURVE",
"373 746 OFFCURVE",
"328 746 CURVE SMOOTH",
"288 746 OFFCURVE",
"249 743 OFFCURVE",
"228 738 CURVE",
"190 666 LINE",
"164 539 OFFCURVE",
"163 485 OFFCURVE",
"160 415 CURVE SMOOTH",
"155 269 OFFCURVE",
"156 128 OFFCURVE",
"158 41 CURVE",
"459 41 LINE",
"454 180 OFFCURVE",
"454 464 OFFCURVE",
"460 737 CURVE"
);
},
{
closed = 1;
nodes = (
"197 -4 OFFCURVE",
"364 8 OFFCURVE",
"558 0 CURVE",
"566 29 OFFCURVE",
"565 56 OFFCURVE",
"558 82 CURVE",
"363 75 OFFCURVE",
"192 78 OFFCURVE",
"53 65 CURVE",
"49 36 OFFCURVE",
"51 9 OFFCURVE",
"61 -16 CURVE"
);
},
{
closed = 1;
nodes = (
"228 738 LINE",
"189 657 OFFCURVE",
"90 630 OFFCURVE",
"4 644 CURVE",
"-12 587 OFFCURVE",
"18 521 OFFCURVE",
"65 507 CURVE",
"160 557 OFFCURVE",
"219 608 OFFCURVE",
"251 704 CURVE"
);
}
);
width = 600;
}
);
unicode = 0031;
},
{
glyphname = two;
lastChange = "2016-08-06 09:52:48 +0000";
layers = (
{
background = {
paths = (
{
closed = 1;
nodes = (
"100 54 LINE",
"73 292 OFFCURVE",
"575 244 OFFCURVE",
"567 547 CURVE SMOOTH",
"567 669 OFFCURVE",
"479 754 OFFCURVE",
"279 754 CURVE SMOOTH",
"110 754 OFFCURVE",
"4 676 OFFCURVE",
"4 573 CURVE SMOOTH",
"4 467 OFFCURVE",
"116 407 OFFCURVE",
"246 461 CURVE",
"200 572 OFFCURVE",
"202 686 OFFCURVE",
"255 686 CURVE SMOOTH",
"280 686 OFFCURVE",
"294 656 OFFCURVE",
"294 563 CURVE SMOOTH",
"294 347 OFFCURVE",
"19 286 OFFCURVE",
"19 62 CURVE SMOOTH",
"19 40 OFFCURVE",
"22 20 OFFCURVE",
"31 0 CURVE",
"538 0 LINE",
"563 35 OFFCURVE",
"572 93 OFFCURVE",
"572 151 CURVE SMOOTH",
"572 271 OFFCURVE",
"517 329 OFFCURVE",
"453 286 CURVE",
"482 216 OFFCURVE",
"505 140 OFFCURVE",
"493 64 CURVE",
"558 179 LINE",
"368 173 OFFCURVE",
"186 136 OFFCURVE",
"51 91 CURVE"
);
}
);
};
layerId = "15808E89-C4EA-4701-A327-0721774450FF";
paths = (
{
closed = 1;
nodes = (
"72 292 OFFCURVE",
"595 244 OFFCURVE",
"587 547 CURVE",
"587 669 OFFCURVE",
"499 754 OFFCURVE",
"299 754 CURVE",
"124 754 OFFCURVE",
"14 676 OFFCURVE",
"14 573 CURVE",
"14 467 OFFCURVE",
"126 407 OFFCURVE",
"256 461 CURVE",
"210 572 OFFCURVE",
"212 686 OFFCURVE",
"265 686 CURVE",
"290 686 OFFCURVE",
"304 656 OFFCURVE",
"304 563 CURVE",
"304 347 OFFCURVE",
"19 286 OFFCURVE",
"19 62 CURVE",
"19 40 OFFCURVE",
"22 20 OFFCURVE",
"31 0 CURVE",
"558 0 LINE",
"583 35 OFFCURVE",
"592 93 OFFCURVE",
"592 151 CURVE",
"592 271 OFFCURVE",
"537 329 OFFCURVE",
"473 286 CURVE",
"502 216 OFFCURVE",
"525 140 OFFCURVE",
"513 64 CURVE",
"578 179 LINE",
"391 175 OFFCURVE",
"200 154 OFFCURVE",
"58 127 CURVE",
"100 54 LINE"
);
}
);
width = 614;
},
{
associatedMasterId = "15808E89-C4EA-4701-A327-0721774450FF";
layerId = "BEE15549-F03C-4254-9197-B6745D468E48";
name = "Bold Aug 6 16, 10:03";
paths = (
{
closed = 1;
nodes = (
"98 31 LINE",
"280 108 OFFCURVE",
"557 352.994 OFFCURVE",
"557 555.091 CURVE SMOOTH",
"557 669 OFFCURVE",
"469 754 OFFCURVE",
"269 754 CURVE SMOOTH",
"100 754 OFFCURVE",
"-6 676 OFFCURVE",
"-6 584 CURVE SMOOTH",
"-6 474 OFFCURVE",
"106 417 OFFCURVE",
"242 468 CURVE",
"190 570 OFFCURVE",
"192 674 OFFCURVE",
"245 674 CURVE SMOOTH",
"270 674 OFFCURVE",
"284 647.177 OFFCURVE",
"284 563.491 CURVE SMOOTH",
"284 360 OFFCURVE",
"194 185 OFFCURVE",
"37 9 CURVE"
);
},
{
closed = 1;
nodes = (
"580 38 OFFCURVE",
"589 109 OFFCURVE",
"578 153 CURVE",
"358 153 OFFCURVE",
"232 113 OFFCURVE",
"37 9 CURVE",
"37 0 LINE",
"554 0 LINE"
);
}
);
width = 600;
},
{
associatedMasterId = "15808E89-C4EA-4701-A327-0721774450FF";
background = {
paths = (
{
closed = 1;
nodes = (
"100 54 LINE",
"73 292 OFFCURVE",
"575 244 OFFCURVE",
"567 547 CURVE SMOOTH",
"567 669 OFFCURVE",
"479 754 OFFCURVE",
"279 754 CURVE SMOOTH",
"110 754 OFFCURVE",
"4 676 OFFCURVE",
"4 573 CURVE SMOOTH",
"4 467 OFFCURVE",
"116 407 OFFCURVE",
"246 461 CURVE",
"200 572 OFFCURVE",
"202 686 OFFCURVE",
"255 686 CURVE SMOOTH",
"280 686 OFFCURVE",
"294 656 OFFCURVE",
"294 563 CURVE SMOOTH",
"294 347 OFFCURVE",
"19 286 OFFCURVE",
"19 62 CURVE SMOOTH",
"19 40 OFFCURVE",
"22 20 OFFCURVE",
"31 0 CURVE",
"538 0 LINE",
"563 35 OFFCURVE",
"572 93 OFFCURVE",
"572 151 CURVE SMOOTH",
"572 271 OFFCURVE",
"517 329 OFFCURVE",
"453 286 CURVE",
"482 216 OFFCURVE",
"505 140 OFFCURVE",
"493 64 CURVE",
"558 179 LINE",
"368 173 OFFCURVE",
"186 136 OFFCURVE",
"51 91 CURVE"
);
}
);
};
layerId = "A4917622-53AE-417A-A938-07A7882814BC";
name = "Bold Aug 6 16, 11:29";
paths = (
{
closed = 1;
nodes = (
"19 62 LINE",
"19 40 OFFCURVE",
"22 20 OFFCURVE",
"31 0 CURVE",
"558 0 LINE",
"583 35 OFFCURVE",
"592 93 OFFCURVE",
"592 151 CURVE",
"592 271 OFFCURVE",
"537 329 OFFCURVE",
"473 286 CURVE",
"502 216 OFFCURVE",
"525 140 OFFCURVE",
"513 64 CURVE",
"578 179 LINE",
"388 173 OFFCURVE",
"194.517 136 OFFCURVE",
"51 91 CURVE",
"100 54 LINE"
);
}
);
width = 614;
}
);
unicode = 0032;
},
{
glyphname = three;
lastChange = "2016-08-06 09:52:48 +0000";
layers = (
{
guideLines = (
{
angle = 180;
position = "{276, 686}";
}
);
layerId = "15808E89-C4EA-4701-A327-0721774450FF";
paths = (
{
closed = 1;
nodes = (
"331 376 OFFCURVE",
"357 686 OFFCURVE",
"269 686 CURVE SMOOTH",
"217 686 OFFCURVE",
"215 576 OFFCURVE",
"267 468 CURVE",
"131 417 OFFCURVE",
"19 474 OFFCURVE",
"19 584 CURVE SMOOTH",
"19 676 OFFCURVE",
"125 754 OFFCURVE",
"294 754 CURVE SMOOTH",
"494 754 OFFCURVE",
"582 669 OFFCURVE",
"582 566 CURVE SMOOTH",
"582 411 OFFCURVE",
"386 317 OFFCURVE",
"269 317 CURVE SMOOTH",
"218 317 OFFCURVE",
"200 336 OFFCURVE",
"203 364 CURVE"
);
},
{
closed = 1;
nodes = (
"435 368 OFFCURVE",
"590 282 OFFCURVE",
"590 155 CURVE SMOOTH",
"590 62 OFFCURVE",
"505 -10 OFFCURVE",
"300 -10 CURVE SMOOTH",
"88 -10 OFFCURVE",
"-6 67 OFFCURVE",
"-6 166 CURVE SMOOTH",
"-5 271 OFFCURVE",
"99 330 OFFCURVE",
"229 276 CURVE",
"170 130 OFFCURVE",
"210 48 OFFCURVE",
"272 48 CURVE SMOOTH",
"311 48 OFFCURVE",
"334 80 OFFCURVE",
"334 172 CURVE SMOOTH",
"334 237 OFFCURVE",
"321 322 OFFCURVE",
"294 343 CURVE",
"314 344 LINE"
);
}
);
width = 600;
}
);
unicode = 0033;
},
{
glyphname = four;
lastChange = "2016-08-06 09:52:48 +0000";
layers = (
{
guideLines = (
{
angle = 21.0068;
position = "{312, 744}";
}
);
layerId = "15808E89-C4EA-4701-A327-0721774450FF";
paths = (
{
closed = 1;
nodes = (
"2 219 LINE",
"214 248 OFFCURVE",
"484 379 OFFCURVE",
"484 607 CURVE SMOOTH",
"484 712 OFFCURVE",
"383 798 OFFCURVE",
"202 728 CURVE",
"250 582 OFFCURVE",
"158 265 OFFCURVE",
"2 248 CURVE"
);
},
{
closed = 1;
nodes = (
"179 180 OFFCURVE",
"385 188 OFFCURVE",
"626 183 CURVE",
"634 212 OFFCURVE",
"633 239 OFFCURVE",
"626 265 CURVE",
"439 260 OFFCURVE",
"267 248 OFFCURVE",
"107 239 CURVE",
"2 248 LINE",
"-2 221 OFFCURVE",
"0 196 OFFCURVE",
"10 173 CURVE"
);
},
{
closed = 1;
nodes = (
"446 370 OFFCURVE",
"333 375 OFFCURVE",
"239 355 CURVE",
"237 230 OFFCURVE",
"238 117 OFFCURVE",
"240 41 CURVE",
"514 41 LINE",
"510 110 OFFCURVE",
"507 212 OFFCURVE",
"510 331 CURVE"
);
},
{
closed = 1;
nodes = (
"194 -3 OFFCURVE",
"392 5 OFFCURVE",
"626 0 CURVE",
"634 29 OFFCURVE",
"633 56 OFFCURVE",
"626 82 CURVE",
"393 75 OFFCURVE",
"189 78 OFFCURVE",
"22 65 CURVE",
"18 38 OFFCURVE",
"20 13 OFFCURVE",
"30 -10 CURVE"
);
}
);
width = 643;
}
);
unicode = 0034;
},
{
glyphname = five;
lastChange = "2016-08-06 12:04:48 +0000";
layers = (
{
background = {
paths = (
{
closed = 1;
nodes = (
"181 417 OFFCURVE",
"243 417 CURVE SMOOTH",
"422 417 OFFCURVE",
"590 327 OFFCURVE",
"590 171 CURVE SMOOTH",
"590 62 OFFCURVE",
"505 -10 OFFCURVE",
"300 -10 CURVE SMOOTH",
"88 -10 OFFCURVE",
"-6 67 OFFCURVE",
"-6 166 CURVE SMOOTH",
"-5 271 OFFCURVE",
"99 330 OFFCURVE",
"229 276 CURVE",
"170 130 OFFCURVE",
"210 48 OFFCURVE",
"268 48 CURVE SMOOTH",
"311 48 OFFCURVE",
"334 94 OFFCURVE",
"334 175 CURVE SMOOTH",
"334 299 OFFCURVE",
"283 358 OFFCURVE",
"189 358 CURVE SMOOTH",
"157 358 OFFCURVE",
"119 351 OFFCURVE",
"77 337 CURVE",
"59 383 LINE",
"117 406 OFFCURVE"
);
},
{
closed = 1;
nodes = (
"364 521 OFFCURVE",
"445 521 CURVE SMOOTH",
"534 521 OFFCURVE",
"594 555 OFFCURVE",
"594 637 CURVE SMOOTH",
"594 673 OFFCURVE",
"581 709 OFFCURVE",
"559 736 CURVE",
"548 732 OFFCURVE",
"535 731 OFFCURVE",
"519 731 CURVE SMOOTH",
"430 731 OFFCURVE",
"337 765 OFFCURVE",
"230 765 CURVE SMOOTH",
"120 765 OFFCURVE",
"52 725 OFFCURVE",
"52 625 CURVE SMOOTH",
"52 557 OFFCURVE",
"100 517 OFFCURVE",
"167 481 CURVE",
"210 495 LINE",
"186 510 OFFCURVE",
"177 525 OFFCURVE",
"177 538 CURVE SMOOTH",
"177 555 OFFCURVE",
"189 560 OFFCURVE",
"206 560 CURVE SMOOTH",
"267 560 OFFCURVE"
);
}
);
};
layerId = "15808E89-C4EA-4701-A327-0721774450FF";
paths = (
{
closed = 1;
nodes = (
"117 413 OFFCURVE",
"181 427 OFFCURVE",
"243 427 CURVE SMOOTH",
"422 427 OFFCURVE",
"590 333 OFFCURVE",
"590 171 CURVE SMOOTH",
"590 62 OFFCURVE",
"505 -10 OFFCURVE",
"300 -10 CURVE SMOOTH",
"88 -10 OFFCURVE",
"-6 67 OFFCURVE",
"-6 166 CURVE SMOOTH",
"-5 271 OFFCURVE",
"99 330 OFFCURVE",
"229 276 CURVE",
"208.507 225.29 OFFCURVE",
"199.958 182.3 OFFCURVE",
"199.958 147.786 CURVE SMOOTH",
"199.958 82.93 OFFCURVE",
"230.145 48 OFFCURVE",
"268 48 CURVE SMOOTH",
"311 48 OFFCURVE",
"334 94 OFFCURVE",
"334 185.159 CURVE SMOOTH",
"334 308.759 OFFCURVE",
"291.716 358 OFFCURVE",
"209.987 358 CURVE SMOOTH",
"183.943 358 OFFCURVE",
"147.902 353 OFFCURVE",
"107.055 344 CURVE SMOOTH",
"79.423 343 OFFCURVE",
"63.806 358 OFFCURVE",
"59 383 CURVE"
);
},
{
closed = 1;
nodes = (
"98 560 OFFCURVE",
"108 496 OFFCURVE",
"119 382 CURVE",
"59 383 LINE",
"49 465 OFFCURVE",
"46 558 OFFCURVE",
"55 720 CURVE SMOOTH",
"138.524 737.401 OFFCURVE",
"207.498 742.943 OFFCURVE",
"265.799 742.943 CURVE SMOOTH",
"408.526 742.943 OFFCURVE",
"487.292 709.731 OFFCURVE",
"559 736 CURVE",
"581 709 OFFCURVE",
"594 673 OFFCURVE",
"594 637 CURVE SMOOTH",
"594 555 OFFCURVE",
"522 521 OFFCURVE",
"424 521 CURVE SMOOTH",
"320 521 OFFCURVE",
"206 560 OFFCURVE",
"140 560 CURVE SMOOTH"
);
}
);
width = 600;
}
);
unicode = 0035;
},
{
glyphname = six;
lastChange = "2016-08-06 09:52:48 +0000";
layers = (
{
background = {
paths = (
{
closed = 1;
nodes = (
"414 85 OFFCURVE",
"393 49 OFFCURVE",
"361 49 CURVE SMOOTH",
"326 49 OFFCURVE",
"303 156 OFFCURVE",
"303 368 CURVE SMOOTH",
"303 579 OFFCURVE",
"326 685 OFFCURVE",
"361 685 CURVE SMOOTH",
"393 685 OFFCURVE",
"414 649 OFFCURVE",
"413 448 CURVE",
"525 436 OFFCURVE",
"629 495 OFFCURVE",
"629 586 CURVE SMOOTH",
"629 660 OFFCURVE",
"542 744 OFFCURVE",
"347 744 CURVE SMOOTH",
"141 744 OFFCURVE",
"47 593 OFFCURVE",
"47 362 CURVE SMOOTH",
"47 137 OFFCURVE",
"141 -10 OFFCURVE",
"347 -10 CURVE SMOOTH",
"542 -10 OFFCURVE",
"629 74 OFFCURVE",
"629 148 CURVE SMOOTH",
"629 239 OFFCURVE",
"525 298 OFFCURVE",
"413 286 CURVE"
);
}
);
};
layerId = "15808E89-C4EA-4701-A327-0721774450FF";
paths = (
{
closed = 1;
nodes = (
"278 306 LINE",
"300 318 OFFCURVE",
"323 324 OFFCURVE",
"344 324 CURVE SMOOTH",
"393 324 OFFCURVE",
"415 271 OFFCURVE",
"415 185 CURVE SMOOTH",
"415 105 OFFCURVE",
"395 49 OFFCURVE",
"363 49 CURVE SMOOTH",
"321 49 OFFCURVE",
"307 156 OFFCURVE",
"307 368 CURVE SMOOTH",
"307 579 OFFCURVE",
"328 685 OFFCURVE",
"361 685 CURVE SMOOTH",
"393 685 OFFCURVE",
"414 649 OFFCURVE",
"413 448 CURVE",
"525 436 OFFCURVE",
"629 495 OFFCURVE",
"629 586 CURVE SMOOTH",
"629 660 OFFCURVE",
"542 744 OFFCURVE",
"368 744 CURVE SMOOTH",
"138 744 OFFCURVE",
"43 593 OFFCURVE",
"43 362 CURVE SMOOTH",
"43 137 OFFCURVE",
"138 -10 OFFCURVE",
"359 -10 CURVE SMOOTH",
"552 -10 OFFCURVE",
"644 101 OFFCURVE",
"644 207 CURVE SMOOTH",
"644 324 OFFCURVE",
"542 397 OFFCURVE",
"428 397 CURVE SMOOTH",
"375 397 OFFCURVE",
"318 381 OFFCURVE",
"268 346 CURVE"
);
}
);
width = 681;
}
);
unicode = 0036;
},
{
glyphname = seven;
lastChange = "2016-08-06 09:52:48 +0000";
layers = (
{
background = {
paths = (
{
closed = 1;
nodes = (
"453 746 OFFCURVE",
"247 738 OFFCURVE",
"6 743 CURVE",
"-2 714 OFFCURVE",
"-1 687 OFFCURVE",
"6 661 CURVE",
"193 666 OFFCURVE",
"365 678 OFFCURVE",
"525 687 CURVE",
"630 678 LINE",
"634 705 OFFCURVE",
"632 730 OFFCURVE",
"622 753 CURVE"
);
}
);
};
layerId = "15808E89-C4EA-4701-A327-0721774450FF";
paths = (
{
closed = 1;
nodes = (
"650 682 LINE",
"650 704 OFFCURVE",
"647 724 OFFCURVE",
"638 744 CURVE SMOOTH",
"91 744 LINE SMOOTH",
"66 709 OFFCURVE",
"57 651 OFFCURVE",
"57 593 CURVE SMOOTH",
"57 473 OFFCURVE",
"112 415 OFFCURVE",
"176 458 CURVE",
"147 528 OFFCURVE",
"124 604 OFFCURVE",
"136 680 CURVE",
"110 553 LINE",
"268 554 OFFCURVE",
"413 556 OFFCURVE",
"502 558 CURVE"
);
},
{
closed = 1;
nodes = (
"600 693 LINE",
"261 414 OFFCURVE",
"148 235 OFFCURVE",
"148 125 CURVE SMOOTH",
"148 40.364 OFFCURVE",
"213 -10 OFFCURVE",
"328 -10 CURVE SMOOTH",
"360 -10 OFFCURVE",
"395 -3 OFFCURVE",
"434 11 CURVE",
"387 143 OFFCURVE",
"453 549 OFFCURVE",
"650 682 CURVE"
);
}
);
width = 600;
}
);
unicode = 0037;
},
{
glyphname = eight;
lastChange = "2016-08-06 09:52:48 +0000";
layers = (
{
layerId = "15808E89-C4EA-4701-A327-0721774450FF";
paths = (
{
closed = 1;
nodes = (
"244 313 OFFCURVE",
"258 359 OFFCURVE",
"286 359 CURVE",
"317 359 OFFCURVE",
"332 297 OFFCURVE",
"332 185 CURVE",
"332 81 OFFCURVE",
"318 35 OFFCURVE",
"290 35 CURVE",
"259 35 OFFCURVE",
"244 96 OFFCURVE",
"244 208 CURVE"
);
},
{
closed = 1;
nodes = (
"94 414 OFFCURVE",
"-6 322 OFFCURVE",
"-6 194 CURVE",
"-6 72 OFFCURVE",
"103 -10 OFFCURVE",
"284 -10 CURVE",
"482 -10 OFFCURVE",
"582 79 OFFCURVE",
"582 203 CURVE",
"582 330 OFFCURVE",
"473 414 OFFCURVE",
"292 414 CURVE"
);
},
{
closed = 1;
nodes = (
"242 657 OFFCURVE",
"256 698 OFFCURVE",
"284 698 CURVE",
"315 698 OFFCURVE",
"330 644 OFFCURVE",
"330 546 CURVE",
"330 454 OFFCURVE",
"316 414 OFFCURVE",
"288 414 CURVE",
"257 414 OFFCURVE",
"242 467 OFFCURVE",
"242 566 CURVE"
);
},
{
closed = 1;
nodes = (
"113 753 OFFCURVE",
"22 670 OFFCURVE",
"22 554 CURVE",
"22 443 OFFCURVE",
"121 369 OFFCURVE",
"287 369 CURVE",
"468 369 OFFCURVE",
"559 449 OFFCURVE",
"559 562 CURVE",
"559 677 OFFCURVE",
"460 753 OFFCURVE",
"294 753 CURVE"
);
}
);
width = 600;
}
);
unicode = 0038;
},
{
glyphname = nine;
lastChange = "2016-08-06 09:52:48 +0000";
layers = (
{
background = {
paths = (
{
closed = 1;
nodes = (
"403 428 LINE",
"381 416 OFFCURVE",
"358 410 OFFCURVE",
"337 410 CURVE SMOOTH",
"288 410 OFFCURVE",
"266 463 OFFCURVE",
"266 549 CURVE SMOOTH",
"266 629 OFFCURVE",
"286 685 OFFCURVE",
"318 685 CURVE SMOOTH",
"360 685 OFFCURVE",
"374 578 OFFCURVE",
"374 366 CURVE SMOOTH",
"374 155 OFFCURVE",
"353 49 OFFCURVE",
"320 49 CURVE SMOOTH",
"288 49 OFFCURVE",
"267 85 OFFCURVE",
"268 286 CURVE",
"156 298 OFFCURVE",
"52 239 OFFCURVE",
"52 148 CURVE SMOOTH",
"52 74 OFFCURVE",
"139 -10 OFFCURVE",
"313 -10 CURVE SMOOTH",
"543 -10 OFFCURVE",
"638 141 OFFCURVE",
"638 372 CURVE SMOOTH",
"638 597 OFFCURVE",
"543 744 OFFCURVE",
"322 744 CURVE SMOOTH",
"129 744 OFFCURVE",
"37 633 OFFCURVE",
"37 527 CURVE SMOOTH",
"37 410 OFFCURVE",
"139 337 OFFCURVE",
"253 337 CURVE SMOOTH",
"306 337 OFFCURVE",
"363 353 OFFCURVE",
"413 388 CURVE"
);
}
);
};
layerId = "15808E89-C4EA-4701-A327-0721774450FF";
paths = (
{
closed = 1;
nodes = (
"402 412 LINE",
"384 384 OFFCURVE",
"363 372 OFFCURVE",
"343 372 CURVE SMOOTH",
"299 372 OFFCURVE",
"266 432 OFFCURVE",
"266 539 CURVE SMOOTH",
"266 621 OFFCURVE",
"286 685 OFFCURVE",
"318 685 CURVE SMOOTH",
"360 685 OFFCURVE",
"374 578 OFFCURVE",
"374 366 CURVE SMOOTH",
"374 155 OFFCURVE",
"353 49 OFFCURVE",
"320 49 CURVE SMOOTH",
"288 49 OFFCURVE",
"267 67 OFFCURVE",
"268 268 CURVE",
"156 280 OFFCURVE",
"52 224 OFFCURVE",
"52 139 CURVE SMOOTH",
"52 69 OFFCURVE",
"139 -10 OFFCURVE",
"313 -10 CURVE SMOOTH",
"543 -10 OFFCURVE",
"638 141 OFFCURVE",
"638 372 CURVE SMOOTH",
"638 597 OFFCURVE",
"543 744 OFFCURVE",
"322 744 CURVE SMOOTH",
"143 744 OFFCURVE",
"37 651 OFFCURVE",
"37 521 CURVE SMOOTH",
"37 384 OFFCURVE",
"155 305 OFFCURVE",
"264 305 CURVE SMOOTH",
"325 305 OFFCURVE",
"382 329 OFFCURVE",
"417 380 CURVE"
);
}
);
width = 681;
}
);
leftMetricsKey = "=|six";
rightMetricsKey = "=|six";
unicode = 0039;
},
{
glyphname = backslash;
lastChange = "2016-08-06 09:52:48 +0000";
layers = (
{
layerId = "15808E89-C4EA-4701-A327-0721774450FF";
paths = (
{
closed = 1;
nodes = (
"305 -200 LINE",
"351 -210 OFFCURVE",
"392 -198 OFFCURVE",
"426 -170 CURVE",
"156 774 LINE",
"110 784 OFFCURVE",
"69 772 OFFCURVE",
"35 744 CURVE"
);
}
);
width = 480;
}
);
unicode = 005C;
},
{
glyphname = colon;
lastChange = "2016-08-06 09:52:48 +0000";
layers = (
{
layerId = "15808E89-C4EA-4701-A327-0721774450FF";
paths = (
{
closed = 1;
nodes = (
"38 377 OFFCURVE",
"91 319 OFFCURVE",
"195 319 CURVE SMOOTH",
"297 319 OFFCURVE",
"355 375 OFFCURVE",
"355 466 CURVE SMOOTH",
"355 552 OFFCURVE",
"302 610 OFFCURVE",
"198 610 CURVE SMOOTH",
"96 610 OFFCURVE",
"38 553 OFFCURVE",
"38 463 CURVE SMOOTH"
);
},
{
closed = 1;
nodes = (
"38 47 OFFCURVE",
"91 -11 OFFCURVE",
"195 -11 CURVE SMOOTH",
"297 -11 OFFCURVE",
"355 45 OFFCURVE",
"355 136 CURVE SMOOTH",
"355 222 OFFCURVE",
"302 280 OFFCURVE",
"198 280 CURVE SMOOTH",
"96 280 OFFCURVE",
"38 223 OFFCURVE",
"38 133 CURVE SMOOTH"
);
}
);
width = 380;
}
);
unicode = 003A;
},
{
glyphname = comma;
lastChange = "2016-08-06 09:52:48 +0000";
layers = (
{
background = {
paths = (
{
closed = 1;
nodes = (
"28 56 OFFCURVE",
"68 27 OFFCURVE",
"103 12 CURVE SMOOTH",
"130 0 OFFCURVE",
"154 -11 OFFCURVE",
"154 -42 CURVE SMOOTH",
"154 -72 OFFCURVE",
"132 -118 OFFCURVE",
"80 -145 CURVE",
"83 -167 OFFCURVE",
"99 -187 OFFCURVE",
"114 -198 CURVE",
"255 -162 OFFCURVE",
"365 -7 OFFCURVE",
"365 146 CURVE SMOOTH",
"365 234 OFFCURVE",
"307 300 OFFCURVE",
"215 300 CURVE SMOOTH",
"117 300 OFFCURVE",
"28 228 OFFCURVE",
"28 127 CURVE SMOOTH"
);
}
);
};
layerId = "15808E89-C4EA-4701-A327-0721774450FF";
paths = (
{
closed = 1;
nodes = (
"28 48 OFFCURVE",
"72 27 OFFCURVE",
"108 11 CURVE SMOOTH",
"133 -1 OFFCURVE",
"154 -11 OFFCURVE",
"154 -37 CURVE SMOOTH",
"154 -68 OFFCURVE",
"123 -122 OFFCURVE",
"80 -145 CURVE",
"83 -167 OFFCURVE",
"99 -187 OFFCURVE",
"114 -198 CURVE",
"248 -164 OFFCURVE",
"365 -14 OFFCURVE",
"365 124 CURVE SMOOTH",
"365 228 OFFCURVE",
"303 300 OFFCURVE",
"202 300 CURVE SMOOTH",
"98 300 OFFCURVE",
"28 229 OFFCURVE",
"28 127 CURVE SMOOTH"
);
}
);
width = 380;
}
);
unicode = 002C;
},
{
glyphname = exclam;
lastChange = "2016-08-06 12:14:51 +0000";
layers = (
{
layerId = "15808E89-C4EA-4701-A327-0721774450FF";
paths = (
{
closed = 1;
nodes = (
"297 743 OFFCURVE",
"257 746 OFFCURVE",
"217 746 CURVE SMOOTH",
"158 746 OFFCURVE",
"100 740 OFFCURVE",
"48 729 CURVE",
"48 586 OFFCURVE",
"48 442 OFFCURVE",
"52 318 CURVE",
"273 264 OFFCURVE",
"350 316 OFFCURVE",
"352 519 CURVE SMOOTH",
"353 624 OFFCURVE",
"346 699 OFFCURVE",
"334 737 CURVE"
);
},
{
closed = 1;
nodes = (
"24 46 OFFCURVE",
"80 -10 OFFCURVE",
"191 -10 CURVE SMOOTH",
"299 -10 OFFCURVE",
"361 44 OFFCURVE",
"361 132 CURVE SMOOTH",
"361 215 OFFCURVE",
"305 271 OFFCURVE",
"194 271 CURVE SMOOTH",
"86 271 OFFCURVE",
"24 216 OFFCURVE",
"24 129 CURVE SMOOTH"
);
}
);
width = 385;
}
);
unicode = 0021;
},
{
glyphname = numbersign;
lastChange = "2016-08-06 09:52:48 +0000";
layers = (
{
layerId = "15808E89-C4EA-4701-A327-0721774450FF";
paths = (
{
closed = 1;
nodes = (
"414 5 LINE",
"443 -9 OFFCURVE",
"479 -13 OFFCURVE",
"519 -1 CURVE",
"675 583 LINE",
"646 597 OFFCURVE",
"610 601 OFFCURVE",
"570 589 CURVE"
);
},
{
closed = 1;
nodes = (
"654 113 LINE",
"671 133 OFFCURVE",
"683 185 OFFCURVE",
"677 208 CURVE",
"103 208 LINE",
"85 188 OFFCURVE",
"74 136 OFFCURVE",
"80 113 CURVE"
);
},
{
closed = 1;
nodes = (
"145 5 LINE",
"174 -9 OFFCURVE",
"210 -13 OFFCURVE",
"250 -1 CURVE",
"406 583 LINE",
"377 597 OFFCURVE",
"341 601 OFFCURVE",
"301 589 CURVE"
);
},
{
closed = 1;
nodes = (
"722 390 LINE",
"739 410 OFFCURVE",
"751 462 OFFCURVE",
"745 485 CURVE",
"171 485 LINE",
"154 465 OFFCURVE",
"142 413 OFFCURVE",
"148 390 CURVE"
);
}
);
width = 740;
}
);
unicode = 0023;
},
{
glyphname = period;
lastChange = "2016-08-06 09:52:48 +0000";
layers = (
{
layerId = "15808E89-C4EA-4701-A327-0721774450FF";
paths = (
{
closed = 1;
nodes = (
"28 51 OFFCURVE",
"84 -11 OFFCURVE",
"195 -11 CURVE SMOOTH",
"303 -11 OFFCURVE",
"365 49 OFFCURVE",
"365 146 CURVE SMOOTH",
"365 238 OFFCURVE",
"309 300 OFFCURVE",
"198 300 CURVE SMOOTH",
"90 300 OFFCURVE",
"28 239 OFFCURVE",
"28 143 CURVE SMOOTH"
);
}
);
width = 380;
}
);
unicode = 002E;
},
{
glyphname = question;
lastChange = "2016-08-06 09:52:48 +0000";
layers = (
{
background = {
paths = (
{
closed = 1;
nodes = (
"116 45 OFFCURVE",
"172 -11 OFFCURVE",
"283 -11 CURVE",
"391 -11 OFFCURVE",
"453 43 OFFCURVE",
"453 131 CURVE",
"453 214 OFFCURVE",
"397 270 OFFCURVE",
"286 270 CURVE",
"178 270 OFFCURVE",
"116 215 OFFCURVE",
"116 128 CURVE"
);
},
{
closed = 1;
nodes = (
"282 426 OFFCURVE",
"596 321 OFFCURVE",
"600 586 CURVE SMOOTH",
"603 762 OFFCURVE",
"438 826 OFFCURVE",
"272 826 CURVE SMOOTH",
"113 826 OFFCURVE",
"10 758 OFFCURVE",
"11 701 CURVE SMOOTH",
"10 658 OFFCURVE",
"58 621 OFFCURVE",
"165 615 CURVE",
"170 714 OFFCURVE",
"223 762 OFFCURVE",
"296 762 CURVE SMOOTH",
"355 762 OFFCURVE",
"397 741 OFFCURVE",
"397 720 CURVE SMOOTH",
"397 625 OFFCURVE",
"84 732 OFFCURVE",
"84 455 CURVE SMOOTH",
"84 277 OFFCURVE",
"213 206 OFFCURVE",
"343 206 CURVE",
"312 272 LINE",
"294 272 OFFCURVE",
"282 302 OFFCURVE",
"282 329 CURVE SMOOTH"
);
}
);
};
layerId = "15808E89-C4EA-4701-A327-0721774450FF";
paths = (
{
closed = 1;
nodes = (
"97 42 OFFCURVE",
"153 -10 OFFCURVE",
"264 -10 CURVE SMOOTH",
"372 -10 OFFCURVE",
"434 40 OFFCURVE",
"434 122 CURVE SMOOTH",
"434 199 OFFCURVE",
"378 251 OFFCURVE",
"267 251 CURVE SMOOTH",
"159 251 OFFCURVE",
"97 200 OFFCURVE",
"97 119 CURVE SMOOTH"
);
},
{
closed = 1;
nodes = (
"163 332 OFFCURVE",
"237 266 OFFCURVE",
"332 266 CURVE SMOOTH",
"448 266 OFFCURVE",
"557 365 OFFCURVE",
"557 513 CURVE SMOOTH",
"557 664 OFFCURVE",
"445 754 OFFCURVE",
"247 754 CURVE SMOOTH",
"76 754 OFFCURVE",
"-12 676 OFFCURVE",
"-12 584 CURVE SMOOTH",
"-12 474 OFFCURVE",
"100 417 OFFCURVE",
"236 468 CURVE",
"184 570 OFFCURVE",
"186 674 OFFCURVE",
"239 674 CURVE SMOOTH",
"264 674 OFFCURVE",
"278 647 OFFCURVE",
"278 597 CURVE SMOOTH",
"278 459 OFFCURVE",
"236 400 OFFCURVE",
"164 400 CURVE"
);
}
);
width = 565;
}
);
unicode = 003F;
},
{
glyphname = semicolon;
lastChange = "2016-08-06 09:52:48 +0000";
layers = (
{
background = {
paths = (
{
closed = 1;
nodes = (
"38 47 OFFCURVE",
"91 -11 OFFCURVE",
"195 -11 CURVE SMOOTH",
"297 -11 OFFCURVE",
"355 45 OFFCURVE",
"355 136 CURVE SMOOTH",
"355 222 OFFCURVE",
"302 280 OFFCURVE",
"198 280 CURVE SMOOTH",
"96 280 OFFCURVE",
"38 223 OFFCURVE",
"38 133 CURVE SMOOTH"
);
}
);
};
layerId = "15808E89-C4EA-4701-A327-0721774450FF";
paths = (
{
closed = 1;
nodes = (
"38 377 OFFCURVE",
"91 319 OFFCURVE",
"195 319 CURVE SMOOTH",
"297 319 OFFCURVE",
"355 375 OFFCURVE",
"355 466 CURVE SMOOTH",
"355 552 OFFCURVE",
"302 610 OFFCURVE",
"198 610 CURVE SMOOTH",
"96 610 OFFCURVE",
"38 553 OFFCURVE",
"38 463 CURVE SMOOTH"
);
},
{
closed = 1;
nodes = (
"38 59 OFFCURVE",
"78 31 OFFCURVE",
"113 17 CURVE SMOOTH",
"140 5 OFFCURVE",
"164 -6 OFFCURVE",
"164 -37 CURVE SMOOTH",
"164 -68 OFFCURVE",
"139 -117 OFFCURVE",
"80 -145 CURVE",
"83 -167 OFFCURVE",
"99 -187 OFFCURVE",
"114 -198 CURVE",
"249 -162 OFFCURVE",
"355 -7 OFFCURVE",
"355 124 CURVE SMOOTH",
"355 217 OFFCURVE",
"292 280 OFFCURVE",
"209 280 CURVE SMOOTH",
"109 280 OFFCURVE",
"38 216 OFFCURVE",
"38 127 CURVE SMOOTH"
);
}
);
width = 380;
}
);
unicode = 003B;
},
{
glyphname = slash;
lastChange = "2016-08-06 09:52:48 +0000";
layers = (
{
layerId = "15808E89-C4EA-4701-A327-0721774450FF";
paths = (
{
closed = 1;
nodes = (
"392 772 OFFCURVE",
"351 784 OFFCURVE",
"305 774 CURVE",
"35 -170 LINE",
"69 -198 OFFCURVE",
"110 -210 OFFCURVE",
"156 -200 CURVE",
"426 744 LINE"
);
}
);
width = 500;
}
);
unicode = 002F;
},
{
glyphname = braceleft;
lastChange = "2016-08-06 09:52:48 +0000";
layers = (
{
background = {
paths = (
{
closed = 1;
nodes = (
"480 -137 OFFCURVE",
"480 -125 OFFCURVE",
"473 -116 CURVE",
"403 -84 OFFCURVE",
"352 36 OFFCURVE",
"352 324 CURVE",
"60 304 LINE",
"60 30 OFFCURVE",
"246 -154 OFFCURVE",
"469 -149 CURVE"
);
},
{
closed = 1;
nodes = (
"246 782 OFFCURVE",
"60 590 OFFCURVE",
"60 304 CURVE",
"352 324 LINE",
"352 602 OFFCURVE",
"403 713 OFFCURVE",
"473 744 CURVE",
"480 753 OFFCURVE",
"480 765 OFFCURVE",
"469 777 CURVE"
);
}
);
};
layerId = "15808E89-C4EA-4701-A327-0721774450FF";
paths = (
{
closed = 1;
nodes = (
"356 259 OFFCURVE",
"268 313 OFFCURVE",
"100 315 CURVE",
"101 299 LINE",
"266 301 OFFCURVE",
"356 355 OFFCURVE",
"356 582 CURVE SMOOTH",
"356 669 OFFCURVE",
"397 704 OFFCURVE",
"430 714 CURVE",
"383 757 OFFCURVE",
"328 778 OFFCURVE",
"274 778 CURVE SMOOTH",
"172 778 OFFCURVE",
"79 698 OFFCURVE",
"86 562 CURVE SMOOTH",
"95 383 OFFCURVE",
"61 314 OFFCURVE",
"3 315 CURVE",
"-4 311 OFFCURVE",
"-2 305 OFFCURVE",
"3 301 CURVE",
"66 276 OFFCURVE",
"95 230 OFFCURVE",
"85 52 CURVE SMOOTH",
"78 -84 OFFCURVE",
"172 -164 OFFCURVE",
"274 -164 CURVE SMOOTH",
"328 -164 OFFCURVE",
"383 -143 OFFCURVE",
"430 -100 CURVE",
"397 -90 OFFCURVE",
"356 -55 OFFCURVE",
"356 32 CURVE SMOOTH"
);
}
);
width = 460;
},
{
associatedMasterId = "15808E89-C4EA-4701-A327-0721774450FF";
background = {
paths = (
{
closed = 1;
nodes = (
"450 -137 OFFCURVE",
"450 -125 OFFCURVE",
"443 -116 CURVE",
"373 -84 OFFCURVE",
"322 36 OFFCURVE",
"322 324 CURVE",
"30 304 LINE",
"30 30 OFFCURVE",
"216 -154 OFFCURVE",
"439 -149 CURVE"
);
},
{
closed = 1;
nodes = (
"216 782 OFFCURVE",
"30 590 OFFCURVE",
"30 304 CURVE",
"322 324 LINE",
"322 602 OFFCURVE",
"373 713 OFFCURVE",
"443 744 CURVE",
"450 753 OFFCURVE",
"450 765 OFFCURVE",
"439 777 CURVE"
);
}
);
};
layerId = "43F276B5-0994-4006-A18E-5656F452321D";
name = "Bold Aug 6 16, 01:06";
paths = (
{
closed = 1;
nodes = (
"275 879 OFFCURVE",
"54 791 OFFCURVE",
"54 592 CURVE",
"54 383 OFFCURVE",
"36 338 OFFCURVE",
"-27 337 CURVE",
"-27 277 LINE",
"69 299 LINE",
"249 300 OFFCURVE",
"346 360 OFFCURVE",
"346 612 CURVE",
"346 699 OFFCURVE",
"387 734 OFFCURVE",
"420 744 CURVE"
);
},
{
closed = 1;
nodes = (
"387 -120 OFFCURVE",
"346 -85 OFFCURVE",
"346 2 CURVE",
"346 254 OFFCURVE",
"250 313 OFFCURVE",
"69 315 CURVE",
"-27 337 LINE",
"-27 277 LINE",
"36 275 OFFCURVE",
"54 230 OFFCURVE",
"54 22 CURVE",
"54 -177 OFFCURVE",
"275 -265 OFFCURVE",
"420 -130 CURVE"
);
}
);
width = 600;
}
);
unicode = 007B;
},
{
glyphname = bracketleft;
lastChange = "2016-08-06 09:52:48 +0000";
layers = (
{
background = {
paths = (
{
closed = 1;
nodes = (
"340 146 OFFCURVE",
"335 226 OFFCURVE",
"335 307 CURVE SMOOTH",
"335 388 OFFCURVE",
"340 469 OFFCURVE",
"350 582 CURVE SMOOTH",
"358 669 OFFCURVE",
"391 704 OFFCURVE",
"424 714 CURVE",
"377 757 OFFCURVE",
"322 778 OFFCURVE",
"268 778 CURVE SMOOTH",
"166 778 OFFCURVE",
"98 697 OFFCURVE",
"80 562 CURVE SMOOTH",
"68 471 OFFCURVE",
"62 385 OFFCURVE",
"62 301 CURVE SMOOTH",
"62 218 OFFCURVE",
"68 137 OFFCURVE",
"79 52 CURVE SMOOTH",
"97 -83 OFFCURVE",
"166 -164 OFFCURVE",
"268 -164 CURVE SMOOTH",
"322 -164 OFFCURVE",
"377 -143 OFFCURVE",
"424 -100 CURVE",
"391 -90 OFFCURVE",
"358 -55 OFFCURVE",
"350 32 CURVE SMOOTH"
);
}
);
};
layerId = "15808E89-C4EA-4701-A327-0721774450FF";
paths = (
{
closed = 1;
nodes = (
"335 563 OFFCURVE",
"364 696 OFFCURVE",
"424 714 CURVE",
"379 756 OFFCURVE",
"324 778 OFFCURVE",
"268 778 CURVE SMOOTH",
"125 778 OFFCURVE",
"62 631 OFFCURVE",
"62 301 CURVE SMOOTH",
"62 -23 OFFCURVE",
"124 -164 OFFCURVE",
"268 -164 CURVE SMOOTH",
"324 -164 OFFCURVE",
"379 -142 OFFCURVE",
"424 -100 CURVE",
"364 -82 OFFCURVE",
"335 51 OFFCURVE",
"335 307 CURVE SMOOTH"
);
}
);
width = 470;
}
);
unicode = 005B;
},
{
glyphname = parenleft;
lastChange = "2016-08-06 09:52:48 +0000";
layers = (
{
associatedMasterId = "15808E89-C4EA-4701-A327-0721774450FF";
background = {
paths = (
{
closed = 1;
nodes = (
"388 749 LINE",
"164 749 OFFCURVE",
"30 585 OFFCURVE",
"30 356 CURVE SMOOTH",
"30 130 OFFCURVE",
"174 -21 OFFCURVE",
"380 -21 CURVE",
"386 25 LINE",
"355 25 OFFCURVE",
"320 153 OFFCURVE",
"320 388 CURVE SMOOTH",
"320 607 OFFCURVE",
"354 704 OFFCURVE",
"382 704 CURVE"
);
}
);
};
layerId = "7B4D494D-00FB-4648-B550-3EB02FC482F9";
name = "Bold Aug 6 16, 01:12";
paths = (
{
closed = 1;
nodes = (
"346 146 OFFCURVE",
"341 226 OFFCURVE",
"341 307 CURVE SMOOTH",
"341 388 OFFCURVE",
"346 469 OFFCURVE",
"356 582 CURVE SMOOTH",
"364 669 OFFCURVE",
"397 704 OFFCURVE",
"430 714 CURVE",
"383 757 OFFCURVE",
"328 778 OFFCURVE",
"274 778 CURVE SMOOTH",
"172 778 OFFCURVE",
"104 697 OFFCURVE",
"86 562 CURVE SMOOTH",
"74 471 OFFCURVE",
"68 385 OFFCURVE",
"68 301 CURVE SMOOTH",
"68 218 OFFCURVE",
"74 137 OFFCURVE",
"85 52 CURVE SMOOTH",
"103 -83 OFFCURVE",
"172 -164 OFFCURVE",
"274 -164 CURVE SMOOTH",
"328 -164 OFFCURVE",
"383 -143 OFFCURVE",
"430 -100 CURVE",
"397 -90 OFFCURVE",
"364 -55 OFFCURVE",
"356 32 CURVE SMOOTH"
);
}
);
width = 440;
},
{
background = {
paths = (
{
closed = 1;
nodes = (
"388 749 LINE",
"164 749 OFFCURVE",
"30 585 OFFCURVE",
"30 356 CURVE SMOOTH",
"30 130 OFFCURVE",
"174 -21 OFFCURVE",
"380 -21 CURVE",
"386 25 LINE",
"355 25 OFFCURVE",
"320 153 OFFCURVE",
"320 388 CURVE SMOOTH",
"320 607 OFFCURVE",
"354 704 OFFCURVE",
"382 704 CURVE"
);
}
);
};
layerId = "15808E89-C4EA-4701-A327-0721774450FF";
paths = (
{
closed = 1;
nodes = (
"322 602 OFFCURVE",
"373 713 OFFCURVE",
"443 744 CURVE",
"450 753 OFFCURVE",
"450 765 OFFCURVE",
"439 777 CURVE",
"216 782 OFFCURVE",
"30 590 OFFCURVE",
"30 304 CURVE SMOOTH",
"30 30 OFFCURVE",
"216 -154 OFFCURVE",
"439 -149 CURVE",
"450 -137 OFFCURVE",
"450 -125 OFFCURVE",
"443 -116 CURVE",
"373 -84 OFFCURVE",
"322 36 OFFCURVE",
"322 324 CURVE SMOOTH"
);
}
);
width = 440;
}
);
unicode = 0028;
},
{
glyphname = emdash;
lastChange = "2016-08-06 09:52:48 +0000";
layers = (
{
layerId = "15808E89-C4EA-4701-A327-0721774450FF";
paths = (
{
closed = 1;
nodes = (
"979 285 LINE",
"987 325 OFFCURVE",
"986 361 OFFCURVE",
"979 386 CURVE",
"20 386 LINE",
"12 346 OFFCURVE",
"15 316 OFFCURVE",
"23 285 CURVE"
);
}
);
width = 1000;
}
);
unicode = 2014;
},
{
glyphname = endash;
lastChange = "2016-08-06 09:52:48 +0000";
layers = (
{
layerId = "15808E89-C4EA-4701-A327-0721774450FF";
paths = (
{
closed = 1;
nodes = (
"479 285 LINE",
"487 325 OFFCURVE",
"486 361 OFFCURVE",
"479 386 CURVE",
"20 386 LINE",
"12 346 OFFCURVE",
"15 316 OFFCURVE",
"23 285 CURVE"
);
}
);
width = 500;
}
);
unicode = 2013;
},
{
glyphname = hyphen;
lastChange = "2016-08-06 09:52:48 +0000";
layers = (
{
layerId = "15808E89-C4EA-4701-A327-0721774450FF";
paths = (
{
closed = 1;
nodes = (
"379 252 LINE",
"387 297 OFFCURVE",
"386 338 OFFCURVE",
"379 366 CURVE",
"20 366 LINE",
"12 321 OFFCURVE",
"15 287 OFFCURVE",
"23 252 CURVE"
);
}
);
width = 400;
}
);
unicode = 002D;
},
{
glyphname = guillemetright;
lastChange = "2016-08-06 09:52:48 +0000";
layers = (
{
components = (
{
name = guilsinglright;
transform = "{1, 0, 0, 1, 358, 0}";
}
);
layerId = "15808E89-C4EA-4701-A327-0721774450FF";
paths = (
{
closed = 1;
nodes = (
"265 303 LINE",
"45 215 OFFCURVE",
"74 95 OFFCURVE",
"181 44 CURVE",
"267 152 OFFCURVE",
"381 249 OFFCURVE",
"444 290 CURVE SMOOTH",
"450 294 OFFCURVE",
"450 306 OFFCURVE",
"444 310 CURVE SMOOTH",
"381 351 OFFCURVE",
"267 448 OFFCURVE",
"181 556 CURVE",
"77 505 OFFCURVE",
"43 385 OFFCURVE",
"265 297 CURVE"
);
}
);
width = 838;
}
);
leftMetricsKey = guilsinglright;
rightMetricsKey = guilsinglright;
unicode = 00BB;
},
{
glyphname = guilsinglleft;
lastChange = "2016-08-06 09:52:48 +0000";
layers = (
{
layerId = "15808E89-C4EA-4701-A327-0721774450FF";
paths = (
{
closed = 1;
nodes = (
"256 297 LINE",
"422 385 OFFCURVE",
"401 505 OFFCURVE",
"317 556 CURVE",
"231 448 OFFCURVE",
"117 351 OFFCURVE",
"54 310 CURVE SMOOTH",
"48 306 OFFCURVE",
"48 294 OFFCURVE",
"54 290 CURVE SMOOTH",
"117 249 OFFCURVE",
"231 152 OFFCURVE",
"317 44 CURVE",
"399 95 OFFCURVE",
"424 215 OFFCURVE",
"256 303 CURVE"
);
}
);
width = 480;
}
);
unicode = 2039;
},
{
glyphname = quotesinglbase;
lastChange = "2016-08-06 09:52:48 +0000";
layers = (
{
layerId = "15808E89-C4EA-4701-A327-0721774450FF";
paths = (
{
closed = 1;
nodes = (
"58 -10.947 OFFCURVE",
"172.793 21.617 OFFCURVE",
"172.793 -43.353 CURVE SMOOTH",
"172.793 -81.935 OFFCURVE",
"138.041 -124.642 OFFCURVE",
"90 -145 CURVE",
"93 -167 OFFCURVE",
"109 -187 OFFCURVE",
"124 -198 CURVE",
"259 -163.883 OFFCURVE",
"355 -16.99 OFFCURVE",
"355 101.996 CURVE SMOOTH",
"355 195.295 OFFCURVE",
"295.975 255 OFFCURVE",
"210.437 255 CURVE SMOOTH",
"124.521 255 OFFCURVE",
"58 194.765 OFFCURVE",
"58 111 CURVE SMOOTH"
);
}
);
width = 410;
}
);
unicode = 201A;
},
{
glyphname = plus;
lastChange = "2016-08-06 12:06:00 +0000";
layers = (
{
components = (
{
name = minus;
}
);
layerId = "15808E89-C4EA-4701-A327-0721774450FF";
paths = (
{
closed = 1;
nodes = (
"189 118 LINE",
"237 110 OFFCURVE",
"280 111 OFFCURVE",
"310 118 CURVE",
"310 577 LINE",
"262 585 OFFCURVE",
"226 582 OFFCURVE",
"189 574 CURVE"
);
}
);
width = 500;
}
);
leftMetricsKey = minus;
rightMetricsKey = minus;
unicode = 002B;
},
{
glyphname = minus;
lastChange = "2016-08-06 09:52:48 +0000";
layers = (
{
layerId = "15808E89-C4EA-4701-A327-0721774450FF";
paths = (
{
closed = 1;
nodes = (
"479 295 LINE",
"487 337 OFFCURVE",
"486 376 OFFCURVE",
"479 401 CURVE",
"20 401 LINE",
"12 359 OFFCURVE",
"15 328 OFFCURVE",
"23 295 CURVE"
);
}
);
width = 500;
}
);
unicode = 2212;
},
{
glyphname = divide;
lastChange = "2016-08-06 12:06:13 +0000";
layers = (
{
background = {
paths = (
{
closed = 1;
nodes = (
"189 118 LINE",
"237 110 OFFCURVE",
"280 111 OFFCURVE",
"310 118 CURVE",
"310 577 LINE",
"262 585 OFFCURVE",
"226 582 OFFCURVE",
"189 574 CURVE"
);
}
);
};
components = (
{
name = minus;
},
{
name = period;
transform = "{0.4241, 0, 0, 0.4241, 167, 108}";
},
{
name = period;
transform = "{0.4241, 0, 0, 0.4241, 167, 468}";
}
);
layerId = "15808E89-C4EA-4701-A327-0721774450FF";
width = 500;
}
);
leftMetricsKey = minus;
rightMetricsKey = minus;
unicode = 00F7;
},
{
glyphname = at;
lastChange = "2016-08-06 09:52:48 +0000";
layers = (
{
guideLines = (
{
position = "{617, 22}";
}
);
layerId = "15808E89-C4EA-4701-A327-0721774450FF";
paths = (
{
closed = 1;
nodes = (
"483 458 OFFCURVE",
"440 479 OFFCURVE",
"395 479 CURVE SMOOTH",
"300 479 OFFCURVE",
"214 376 OFFCURVE",
"214 209 CURVE SMOOTH",
"214 104 OFFCURVE",
"260 33 OFFCURVE",
"330 33 CURVE SMOOTH",
"404 33 OFFCURVE",
"466 114 OFFCURVE",
"475 188 CURVE",
"463 207 LINE",
"459 174 OFFCURVE",
"444 155 OFFCURVE",
"431 155 CURVE SMOOTH",
"418 155 OFFCURVE",
"410 174 OFFCURVE",
"410 225 CURVE SMOOTH",
"410 330 OFFCURVE",
"443 395 OFFCURVE",
"474 395 CURVE SMOOTH",
"489 395 OFFCURVE",
"499 388 OFFCURVE",
"506 380 CURVE",
"514 419 LINE"
);
},
{
closed = 1;
nodes = (
"849 533 OFFCURVE",
"699 646 OFFCURVE",
"479 646 CURVE SMOOTH",
"207 646 OFFCURVE",
"51 473 OFFCURVE",
"51 227 CURVE SMOOTH",
"51 -5 OFFCURVE",
"200 -136 OFFCURVE",
"396 -136 CURVE SMOOTH",
"465 -136 OFFCURVE",
"539 -120 OFFCURVE",
"615 -87 CURVE",
"622 -67 OFFCURVE",
"615 -36 OFFCURVE",
"601 -23 CURVE",
"541 -46 OFFCURVE",
"483 -58 OFFCURVE",
"431 -58 CURVE SMOOTH",
"269 -58 OFFCURVE",
"152 49 OFFCURVE",
"152 238 CURVE SMOOTH",
"152 428 OFFCURVE",
"268 583 OFFCURVE",
"466 583 CURVE SMOOTH",
"663 583 OFFCURVE",
"763 478 OFFCURVE",
"763 337 CURVE SMOOTH",
"763 185 OFFCURVE",
"718 95 OFFCURVE",
"677 95 CURVE SMOOTH",
"653 95 OFFCURVE",
"644 122 OFFCURVE",
"651 185 CURVE SMOOTH",
"661 279 OFFCURVE",
"672 379 OFFCURVE",
"682 465 CURVE",
"625 473 OFFCURVE",
"567 473 OFFCURVE",
"517 464 CURVE",
"489 440 OFFCURVE",
"477 395 OFFCURVE",
"457 196 CURVE SMOOTH",
"446 86 OFFCURVE",
"489 33 OFFCURVE",
"602 33 CURVE SMOOTH",
"762 33 OFFCURVE",
"849 164 OFFCURVE",
"849 347 CURVE SMOOTH"
);
}
);
width = 920;
}
);
unicode = 0040;
},
{
glyphname = ampersand;
lastChange = "2016-08-22 14:04:49 +0000";
layers = (
{
background = {
paths = (
{
closed = 1;
nodes = (
"722 -12 OFFCURVE",
"777 20 OFFCURVE",
"777 78 CURVE SMOOTH",
"777 110 OFFCURVE",
"762 144 OFFCURVE",
"739 166 CURVE",
"706 148 OFFCURVE",
"627 155 OFFCURVE",
"564 155 CURVE SMOOTH",
"418 155 OFFCURVE",
"371 110 OFFCURVE",
"371 44 CURVE SMOOTH",
"371 -20 OFFCURVE",
"414 -48 OFFCURVE",
"474 -68 CURVE",
"505 -54 LINE",
"484 -45 OFFCURVE",
"474 -33 OFFCURVE",
"474 -22 CURVE SMOOTH",
"474 9 OFFCURVE",
"547 -12 OFFCURVE",
"620 -12 CURVE SMOOTH"
);
}
);
};
layerId = "15808E89-C4EA-4701-A327-0721774450FF";
paths = (
{
closed = 1;
nodes = (
"53 367 OFFCURVE",
"-23 292 OFFCURVE",
"-23 193 CURVE SMOOTH",
"-23 73 OFFCURVE",
"75 -10 OFFCURVE",
"198 -10 CURVE SMOOTH",
"310 -10 OFFCURVE",
"402 47 OFFCURVE",
"469 157 CURVE",
"406 188 LINE",
"379 124 OFFCURVE",
"334 94 OFFCURVE",
"293 94 CURVE SMOOTH",
"227 94 OFFCURVE",
"187 163 OFFCURVE",
"187 242 CURVE SMOOTH",
"187 292 OFFCURVE",
"209 324 OFFCURVE",
"243 331 CURVE",
"229 374 LINE"
);
},
{
closed = 1;
nodes = (
"134 384 OFFCURVE",
"263 172 OFFCURVE",
"379 78 CURVE SMOOTH",
"446 18 OFFCURVE",
"522.745 -10 OFFCURVE",
"600 -10 CURVE SMOOTH",
"715 -10 OFFCURVE",
"749 45 OFFCURVE",
"748 99 CURVE SMOOTH",
"747 122 OFFCURVE",
"738 144 OFFCURVE",
"723 162 CURVE",
"709 151 OFFCURVE",
"695 146 OFFCURVE",
"679 146 CURVE SMOOTH",
"640 146 OFFCURVE",
"600 175 OFFCURVE",
"556 217 CURVE SMOOTH",
"449 320 OFFCURVE",
"345 470 OFFCURVE",
"345 602 CURVE SMOOTH",
"345 651 OFFCURVE",
"357 669 OFFCURVE",
"370 669 CURVE SMOOTH",
"392 669 OFFCURVE",
"407 622 OFFCURVE",
"407 550 CURVE SMOOTH",
"407 479 OFFCURVE",
"389 456 OFFCURVE",
"355 450 CURVE",
"363 385 LINE",
"497 398 OFFCURVE",
"596 468 OFFCURVE",
"596 561 CURVE SMOOTH",
"596 675 OFFCURVE",
"498 748 OFFCURVE",
"354 748 CURVE SMOOTH",
"217 748 OFFCURVE",
"134 670 OFFCURVE",
"134 538 CURVE SMOOTH"
);
},
{
closed = 1;
nodes = (
"546 246 OFFCURVE",
"576 258 OFFCURVE",
"610 258 CURVE SMOOTH",
"640 258 OFFCURVE",
"673 249 OFFCURVE",
"701 230 CURVE",
"715 250 OFFCURVE",
"721 273 OFFCURVE",
"721 297 CURVE SMOOTH",
"721 366 OFFCURVE",
"676 425 OFFCURVE",
"611 425 CURVE SMOOTH",
"539 425 OFFCURVE",
"489 353 OFFCURVE",
"494 247 CURVE",
"531 223 LINE"
);
}
);
width = 755;
},
{
associatedMasterId = "15808E89-C4EA-4701-A327-0721774450FF";
background = {
paths = (
{
closed = 1;
nodes = (
"348 610 LINE",
"154 610 OFFCURVE",
"11 488 OFFCURVE",
"11 298 CURVE SMOOTH",
"11 104 OFFCURVE",
"127 -10 OFFCURVE",
"338 -10 CURVE",
"354 66 LINE",
"309 66 OFFCURVE",
"276 158 OFFCURVE",
"276 280 CURVE SMOOTH",
"276 481 OFFCURVE",
"298 538 OFFCURVE",
"332 538 CURVE"
);
}
);
};
layerId = "4357C6FC-2C37-43D8-B6C4-D15D5E88DBAC";
name = "Bold Aug 5 16, 14:18";
paths = (
{
closed = 1;
nodes = (
"354 464.846 LINE",
"160 464.846 OFFCURVE",
"11 371.409 OFFCURVE",
"11 225.891 CURVE",
"11 77.311 OFFCURVE",
"127 -10 OFFCURVE",
"338 -10 CURVE",
"354 66 LINE",
"309 66 OFFCURVE",
"276 129.707 OFFCURVE",
"276 214.189 CURVE",
"276 353.376 OFFCURVE",
"304 392.846 OFFCURVE",
"338 392.846 CURVE"
);
}
);
width = 600;
},
{
associatedMasterId = "15808E89-C4EA-4701-A327-0721774450FF";
layerId = "57EA997F-2AFF-4F98-BBD4-CF7C7FCC91FA";
name = "Bold Aug 5 16, 16:01";
paths = (
{
closed = 1;
nodes = (
"265 436 LINE",
"57 389 OFFCURVE",
"-28 280 OFFCURVE",
"-28 166 CURVE",
"-28 -45 OFFCURVE",
"208 -21 OFFCURVE",
"321 11 CURVE",
"321 89 LINE",
"251 89 OFFCURVE",
"224 157 OFFCURVE",
"224 268 CURVE",
"224 334 OFFCURVE",
"241 357 OFFCURVE",
"264 362 CURVE"
);
},
{
closed = 1;
nodes = (
"94 300 OFFCURVE",
"322 108 OFFCURVE",
"495 0 CURVE",
"635 177 LINE",
"495 284 OFFCURVE",
"291 417 OFFCURVE",
"290.861 600.084 CURVE",
"290.861 640.771 OFFCURVE",
"305.349 661.447 OFFCURVE",
"322.217 661.447 CURVE",
"346.419 661.447 OFFCURVE",
"362 614.406 OFFCURVE",
"362 555.604 CURVE",
"362 484.201 OFFCURVE",
"332 463.2 OFFCURVE",
"309 459 CURVE",
"321 393 LINE",
"451 411.903 OFFCURVE",
"542 467.71 OFFCURVE",
"542 567.624 CURVE",
"542 665.737 OFFCURVE",
"455.945 740.447 OFFCURVE",
"332.012 740.447 CURVE",
"196.537 740.447 OFFCURVE",
"94 661 OFFCURVE",
"94 521 CURVE"
);
}
);
width = 690;
},
{
associatedMasterId = "15808E89-C4EA-4701-A327-0721774450FF";
layerId = "75632F8B-EEA6-4CAD-B772-547250591C3F";
name = "Bold Aug 5 16, 16:04";
paths = (
{
closed = 1;
nodes = (
"203 398 LINE",
"21 388 OFFCURVE",
"-83 308 OFFCURVE",
"-83 177 CURVE SMOOTH",
"-83 55 OFFCURVE",
"7 -10 OFFCURVE",
"138 -10 CURVE SMOOTH",
"209 -10 OFFCURVE",
"279 0 OFFCURVE",
"309 11 CURVE",
"309 89 LINE",
"196 89 OFFCURVE",
"150 163 OFFCURVE",
"150 229 CURVE SMOOTH",
"150 271 OFFCURVE",
"169 310 OFFCURVE",
"202 324 CURVE"
);
},
{
closed = 1;
nodes = (
"94 358 OFFCURVE",
"270 141 OFFCURVE",
"495 0 CURVE",
"635 177 LINE",
"495 284 OFFCURVE",
"291 417 OFFCURVE",
"291 600 CURVE SMOOTH",
"291 641 OFFCURVE",
"305 661 OFFCURVE",
"322 661 CURVE SMOOTH",
"346 661 OFFCURVE",
"362 614 OFFCURVE",
"362 556 CURVE SMOOTH",
"362 484 OFFCURVE",
"332 463 OFFCURVE",
"309 459 CURVE",
"321 393 LINE",
"451 412 OFFCURVE",
"542 468 OFFCURVE",
"542 568 CURVE SMOOTH",
"542 666 OFFCURVE",
"456 740 OFFCURVE",
"332 740 CURVE SMOOTH",
"197 740 OFFCURVE",
"94 661 OFFCURVE",
"94 530 CURVE SMOOTH"
);
}
);
width = 690;
},
{
associatedMasterId = "15808E89-C4EA-4701-A327-0721774450FF";
layerId = "7AE1BBFA-F308-43E9-BDF1-5DCF65054AE8";
name = "Bold Aug 5 16, 16:10";
paths = (
{
closed = 1;
nodes = (
"203 398 LINE",
"21.11 388.006 OFFCURVE",
"-86.424 299.763 OFFCURVE",
"-86.424 182.958 CURVE",
"-86.424 80.407 OFFCURVE",
"-3.533 -10 OFFCURVE",
"158.318 -10 CURVE",
"255.211 -10 OFFCURVE",
"363.051 22.401 OFFCURVE",
"441.937 140.871 CURVE",
"400.712 171.884 LINE",
"364.199 122.661 OFFCURVE",
"327.667 92.473 OFFCURVE",
"274.715 92.473 CURVE",
"189.859 92.473 OFFCURVE",
"150 169.998 OFFCURVE",
"150 239.142 CURVE",
"150 283.142 OFFCURVE",
"167.486 324 OFFCURVE",
"202 324 CURVE"
);
},
{
closed = 1;
nodes = (
"94 358 OFFCURVE",
"270 141 OFFCURVE",
"495 0 CURVE",
"629.203 169.671 LINE",
"489.203 276.671 OFFCURVE",
"291 412.256 OFFCURVE",
"291 598.814 CURVE",
"291 640.611 OFFCURVE",
"305 661 OFFCURVE",
"322 661 CURVE",
"346 661 OFFCURVE",
"362 614 OFFCURVE",
"362 556 CURVE",
"362 484 OFFCURVE",
"332 463 OFFCURVE",
"309 459 CURVE",
"321 393 LINE",
"451 412 OFFCURVE",
"542 468 OFFCURVE",
"542 568 CURVE",
"542 666 OFFCURVE",
"456 740 OFFCURVE",
"332 740 CURVE",
"197 740 OFFCURVE",
"94 661 OFFCURVE",
"94 530 CURVE"
);
}
);
width = 690;
visible = 1;
},
{
associatedMasterId = "15808E89-C4EA-4701-A327-0721774450FF";
layerId = "95C1660D-F953-4098-9D62-F13DCA6E8F55";
name = "Bold Aug 5 16, 16:19";
paths = (
{
closed = 1;
nodes = (
"-20.121 349.01 OFFCURVE",
"-87.305 261.955 OFFCURVE",
"-87.305 177.639 CURVE",
"-87.305 82.06 OFFCURVE",
"-0.973 -10 OFFCURVE",
"152.716 -10 CURVE",
"256.321 -10 OFFCURVE",
"359.243 36.26 OFFCURVE",
"432.277 146.273 CURVE",
"388.176 173.68 LINE",
"346.244 118.148 OFFCURVE",
"294.466 92.975 OFFCURVE",
"247.961 92.975 CURVE",
"166.618 92.975 OFFCURVE",
"124.442 165.816 OFFCURVE",
"124.442 232.208 CURVE",
"124.442 269.547 OFFCURVE",
"137.783 304.847 OFFCURVE",
"165 324 CURVE",
"127.277 378.02 LINE"
);
},
{
closed = 1;
nodes = (
"87 364 OFFCURVE",
"239 144 OFFCURVE",
"447 -20 CURVE",
"606 127 LINE",
"392 295 OFFCURVE",
"265 476 OFFCURVE",
"265 598 CURVE",
"265 644 OFFCURVE",
"284 661 OFFCURVE",
"306 661 CURVE",
"339 661 OFFCURVE",
"362 623 OFFCURVE",
"362 560 CURVE",
"362 490 OFFCURVE",
"333 457 OFFCURVE",
"296 450 CURVE",
"321 393 LINE",
"451 412 OFFCURVE",
"542 468 OFFCURVE",
"542 568 CURVE",
"542 666 OFFCURVE",
"447 740 OFFCURVE",
"311 740 CURVE",
"172 740 OFFCURVE",
"87 663 OFFCURVE",
"87 531 CURVE"
);
}
);
width = 690;
},
{
associatedMasterId = "15808E89-C4EA-4701-A327-0721774450FF";
layerId = "BF2160C8-B45E-408F-A498-3AD2F3BE01FA";
name = "Bold Aug 5 16, 16:22";
paths = (
{
closed = 1;
nodes = (
"11.908 364.858 OFFCURVE",
"-78.42 280.651 OFFCURVE",
"-78.42 172.071 CURVE",
"-78.42 65.256 OFFCURVE",
"8.995 -10 OFFCURVE",
"146.75 -10 CURVE",
"243.783 -10 OFFCURVE",
"340.175 47.136 OFFCURVE",
"411.854 157.149 CURVE",
"369.176 179.876 LINE",
"336.729 131.353 OFFCURVE",
"289.963 89 OFFCURVE",
"236.829 89 CURVE",
"166.999 89 OFFCURVE",
"133.032 162.154 OFFCURVE",
"133.032 229.594 CURVE",
"133.032 267.567 OFFCURVE",
"143.801 303.728 OFFCURVE",
"165 324 CURVE",
"157.67 393 LINE"
);
},
{
closed = 1;
nodes = (
"97 398.27 OFFCURVE",
"190.872 232.06 OFFCURVE",
"311.749 107.451 CURVE",
"389.638 27.157 OFFCURVE",
"475.541 -10 OFFCURVE",
"534.553 -10 CURVE",
"606 127 LINE",
"389.49 280.965 OFFCURVE",
"275 456.367 OFFCURVE",
"275 587.67 CURVE",
"275 644 OFFCURVE",
"296.071 661 OFFCURVE",
"314.658 661 CURVE",
"337.651 661 OFFCURVE",
"362 634.982 OFFCURVE",
"362 565.657 CURVE",
"362 490 OFFCURVE",
"333 457 OFFCURVE",
"296 450 CURVE",
"321 393 LINE",
"451 412 OFFCURVE",
"542 468 OFFCURVE",
"542 568 CURVE",
"542 666 OFFCURVE",
"449.088 740 OFFCURVE",
"316.077 740 CURVE",
"180.132 740 OFFCURVE",
"97 663 OFFCURVE",
"97 531 CURVE"
);
}
);
width = 690;
},
{
associatedMasterId = "15808E89-C4EA-4701-A327-0721774450FF";
layerId = "68BD902F-119E-4169-8701-BF4765CCCA6A";
name = "Bold Aug 5 16, 16:35";
paths = (
{
closed = 1;
nodes = (
"90 365 OFFCURVE",
"0 281 OFFCURVE",
"0 172 CURVE SMOOTH",
"0 65 OFFCURVE",
"87 -10 OFFCURVE",
"225 -10 CURVE SMOOTH",
"322 -10 OFFCURVE",
"418 47 OFFCURVE",
"490 157 CURVE",
"447 180 LINE",
"415 131 OFFCURVE",
"368 89 OFFCURVE",
"315 89 CURVE SMOOTH",
"245 89 OFFCURVE",
"211 162 OFFCURVE",
"211 230 CURVE SMOOTH",
"211 268 OFFCURVE",
"222 304 OFFCURVE",
"243 324 CURVE",
"236 393 LINE"
);
},
{
closed = 1;
nodes = (
"175 398 OFFCURVE",
"269 232 OFFCURVE",
"390 107 CURVE SMOOTH",
"468 27 OFFCURVE",
"554 -10 OFFCURVE",
"627 -10 CURVE SMOOTH",
"747 -10 OFFCURVE",
"816 89 OFFCURVE",
"762 176 CURVE",
"745 157 OFFCURVE",
"725 147 OFFCURVE",
"702 147 CURVE SMOOTH",
"668 147 OFFCURVE",
"626 169 OFFCURVE",
"575 213 CURVE SMOOTH",
"433 337 OFFCURVE",
"353 478 OFFCURVE",
"353 588 CURVE SMOOTH",
"353 644 OFFCURVE",
"374 661 OFFCURVE",
"393 661 CURVE SMOOTH",
"416 661 OFFCURVE",
"440 635 OFFCURVE",
"440 566 CURVE SMOOTH",
"440 490 OFFCURVE",
"411 457 OFFCURVE",
"374 450 CURVE",
"399 393 LINE",
"529 412 OFFCURVE",
"620 468 OFFCURVE",
"620 568 CURVE SMOOTH",
"620 666 OFFCURVE",
"527 740 OFFCURVE",
"394 740 CURVE SMOOTH",
"258 740 OFFCURVE",
"175 663 OFFCURVE",
"175 531 CURVE SMOOTH"
);
},
{
closed = 1;
nodes = (
"543 213 LINE",
"575 255 OFFCURVE",
"666 261 OFFCURVE",
"732 220 CURVE",
"781 282 OFFCURVE",
"744 394 OFFCURVE",
"639 393 CURVE SMOOTH",
"561 392 OFFCURVE",
"526 302 OFFCURVE",
"525 225 CURVE"
);
}
);
width = 768;
},
{
associatedMasterId = "15808E89-C4EA-4701-A327-0721774450FF";
layerId = "841A4D48-1A80-406C-B99C-1B374A0F1E2A";
name = "Bold Aug 5 16, 16:38";
paths = (
{
closed = 1;
nodes = (
"24 365 OFFCURVE",
"-41 283 OFFCURVE",
"-41 192 CURVE SMOOTH",
"-41 73 OFFCURVE",
"59 -10 OFFCURVE",
"198 -10 CURVE SMOOTH",
"316.662 -10 OFFCURVE",
"415.712 47 OFFCURVE",
"490 157 CURVE",
"447 180 LINE",
"407.502 121.572 OFFCURVE",
"360 93 OFFCURVE",
"311.051 92.49 CURVE SMOOTH",
"233 92 OFFCURVE",
"189 165 OFFCURVE",
"189 244 CURVE SMOOTH",
"189 303 OFFCURVE",
"218 346 OFFCURVE",
"261 359 CURVE",
"243 400 LINE"
);
},
{
closed = 1;
nodes = (
"146.413 391.754 OFFCURVE",
"241.664 223.458 OFFCURVE",
"368.625 98.707 CURVE SMOOTH",
"450.172 18.578 OFFCURVE",
"541.694 -10 OFFCURVE",
"619.128 -10 CURVE SMOOTH",
"714.898 -10 OFFCURVE",
"811.13 50.715 OFFCURVE",
"811.13 120.926 CURVE",
"811.13 144.034 OFFCURVE",
"803.636 168.17 OFFCURVE",
"776.413 176 CURVE",
"761.044 157 OFFCURVE",
"742.964 147 OFFCURVE",
"722.171 147 CURVE SMOOTH",
"691.434 147 OFFCURVE",
"653.211 172.566 OFFCURVE",
"604.672 216.856 CURVE SMOOTH",
"468.778 340.856 OFFCURVE",
"385 480.178 OFFCURVE",
"385 597.5 CURVE SMOOTH",
"385 644.202 OFFCURVE",
"398.276 661 OFFCURVE",
"410.287 661 CURVE SMOOTH",
"424.828 661 OFFCURVE",
"440 632.417 OFFCURVE",
"440 556.561 CURVE SMOOTH",
"440 473.01 OFFCURVE",
"415.765 436.732 OFFCURVE",
"378.765 429.732 CURVE",
"395.366 384.589 LINE",
"543.756 403.311 OFFCURVE",
"652.276 459.91 OFFCURVE",
"652.276 562.479 CURVE SMOOTH",
"652.276 662.997 OFFCURVE",
"546.556 740 OFFCURVE",
"395.366 740 CURVE SMOOTH",
"240.765 740 OFFCURVE",
"146.413 660.955 OFFCURVE",
"146.413 526.863 CURVE SMOOTH"
);
},
{
closed = 1;
nodes = (
"600.467 283.737 OFFCURVE",
"691.467 289.737 OFFCURVE",
"757.467 248.737 CURVE",
"814.741 318.712 OFFCURVE",
"771.495 444.971 OFFCURVE",
"665 444 CURVE SMOOTH",
"585 443 OFFCURVE",
"527 372 OFFCURVE",
"534.108 263.778 CURVE",
"568.467 241.737 LINE"
);
}
);
width = 768;
},
{
associatedMasterId = "15808E89-C4EA-4701-A327-0721774450FF";
layerId = "57F55B55-18DA-444C-AFBD-8617A77D7CC1";
name = "Bold Aug 5 16, 16:40";
paths = (
{
closed = 1;
nodes = (
"52 365 OFFCURVE",
"-7 283 OFFCURVE",
"-7 192 CURVE SMOOTH",
"-7 73 OFFCURVE",
"83 -10 OFFCURVE",
"208 -10 CURVE SMOOTH",
"315 -10 OFFCURVE",
"404 47 OFFCURVE",
"471 157 CURVE",
"432 180 LINE",
"397 122 OFFCURVE",
"354 93 OFFCURVE",
"310 93 CURVE SMOOTH",
"240 93 OFFCURVE",
"200 165 OFFCURVE",
"200 244 CURVE SMOOTH",
"200 303 OFFCURVE",
"226 346 OFFCURVE",
"265 359 CURVE",
"249 400 LINE"
);
},
{
closed = 1;
nodes = (
"162 392 OFFCURVE",
"247 224 OFFCURVE",
"362 99 CURVE SMOOTH",
"435 19 OFFCURVE",
"517 -10 OFFCURVE",
"587 -10 CURVE SMOOTH",
"673 -10 OFFCURVE",
"760 51 OFFCURVE",
"760 121 CURVE",
"760 144 OFFCURVE",
"753 168 OFFCURVE",
"729 176 CURVE",
"715 157 OFFCURVE",
"699 147 OFFCURVE",
"680 147 CURVE SMOOTH",
"652 147 OFFCURVE",
"618 173 OFFCURVE",
"574 217 CURVE SMOOTH",
"451 340 OFFCURVE",
"376 480 OFFCURVE",
"376 597 CURVE SMOOTH",
"376 644 OFFCURVE",
"388 661 OFFCURVE",
"399 661 CURVE SMOOTH",
"412 661 OFFCURVE",
"426 632 OFFCURVE",
"426 557 CURVE SMOOTH",
"426 473 OFFCURVE",
"404 437 OFFCURVE",
"371 430 CURVE",
"386 385 LINE",
"519 403 OFFCURVE",
"617 460 OFFCURVE",
"617 562 CURVE SMOOTH",
"617 663 OFFCURVE",
"522 740 OFFCURVE",
"386 740 CURVE SMOOTH",
"247 740 OFFCURVE",
"162 661 OFFCURVE",
"162 527 CURVE SMOOTH"
);
},
{
closed = 1;
nodes = (
"570 284 OFFCURVE",
"652 290 OFFCURVE",
"712 249 CURVE",
"763 319 OFFCURVE",
"724 445 OFFCURVE",
"629 444 CURVE SMOOTH",
"557 443 OFFCURVE",
"504 372 OFFCURVE",
"511 264 CURVE",
"542 242 LINE"
);
}
);
width = 765;
}
);
unicode = 0026;
},
{
glyphname = bar;
lastChange = "2016-08-06 09:52:48 +0000";
layers = (
{
layerId = "15808E89-C4EA-4701-A327-0721774450FF";
paths = (
{
closed = 1;
nodes = (
"35 744 LINE",
"35 -200 LINE",
"156 -200 LINE",
"156 744 LINE"
);
}
);
width = 191;
}
);
unicode = 007C;
},
{
glyphname = smiglo;
lastChange = "2016-08-06 09:52:48 +0000";
layers = (
{
layerId = "15808E89-C4EA-4701-A327-0721774450FF";
paths = (
{
closed = 1;
nodes = (
"310 513 LINE",
"282 437 OFFCURVE",
"236 336 OFFCURVE",
"247 267 CURVE",
"263 254 OFFCURVE",
"283 246 OFFCURVE",
"303 246 CURVE SMOOTH",
"355 246 OFFCURVE",
"372 302 OFFCURVE",
"372 353 CURVE SMOOTH",
"372 416 OFFCURVE",
"346 459 OFFCURVE",
"335 513 CURVE"
);
}
);
width = 600;
}
);
},
{
glyphname = brzuszek;
lastChange = "2016-08-06 13:12:27 +0000";
layers = (
{
background = {
paths = (
{
closed = 1;
nodes = (
"432 574 OFFCURVE",
"364 620 OFFCURVE",
"282 620 CURVE SMOOTH",
"123 620 OFFCURVE",
"25 495 OFFCURVE",
"25 290 CURVE SMOOTH",
"25 98 OFFCURVE",
"103 -20 OFFCURVE",
"231 -20 CURVE SMOOTH",
"331 -20 OFFCURVE",
"412 58 OFFCURVE",
"429 173 CURVE",
"419 181 LINE",
"409 163 OFFCURVE",
"389 150 OFFCURVE",
"368 150 CURVE",
"334 150 OFFCURVE",
"319 197 OFFCURVE",
"319 312 CURVE SMOOTH",
"319 431 OFFCURVE",
"345 495 OFFCURVE",
"392 495 CURVE",
"408 495 OFFCURVE",
"425 487 OFFCURVE",
"438 472 CURVE",
"462 502 LINE"
);
}
);
};
layerId = "15808E89-C4EA-4701-A327-0721774450FF";
paths = (
{
closed = 1;
nodes = (
"412 591 OFFCURVE",
"346 620 OFFCURVE",
"272 620 CURVE SMOOTH",
"126 620 OFFCURVE",
"12 498 OFFCURVE",
"12 292 CURVE SMOOTH",
"12 105 OFFCURVE",
"106 -20 OFFCURVE",
"232 -20 CURVE SMOOTH",
"335 -20 OFFCURVE",
"415 65 OFFCURVE",
"423 159 CURVE",
"420 176 LINE",
"408 161 OFFCURVE",
"389 150 OFFCURVE",
"372 150 CURVE SMOOTH",
"337 150 OFFCURVE",
"300 203 OFFCURVE",
"300 324 CURVE SMOOTH",
"300 449 OFFCURVE",
"339 503 OFFCURVE",
"389.956 503 CURVE SMOOTH",
"405.728 503 OFFCURVE",
"424 498 OFFCURVE",
"440 489 CURVE",
"468 536 LINE"
);
}
);
width = 761;
}
);
},
{
glyphname = luk;
lastChange = "2016-08-06 13:12:27 +0000";
layers = (
{
background = {
paths = (
{
closed = 1;
nodes = (
"238 602 OFFCURVE",
"141 603 OFFCURVE",
"48 582 CURVE",
"42 361 OFFCURVE",
"46 104 OFFCURVE",
"51 0 CURVE",
"148 -20 OFFCURVE",
"253 -13 OFFCURVE",
"341 11 CURVE",
"335 111 OFFCURVE",
"334 389 OFFCURVE",
"339 590 CURVE"
);
}
